<svg xmlns="http://www.w3.org/2000/svg" xmlns:xlink="http://www.w3.org/1999/xlink" width="1366" zoomAndPan="magnify" viewBox="0 0 1024.5 576" height="768" preserveAspectRatio="xMidYMid meet" version="1.0"><defs><clipPath id="c669ebaea2"><path d="M 0 0.140625 L 1024 0.140625 L 1024 575.859375 L 0 575.859375 Z M 0 0.140625 " clip-rule="nonzero"/></clipPath><clipPath id="23219ec921"><path d="M 307 116.644531 L 634 116.644531 L 634 209 L 307 209 Z M 307 116.644531 " clip-rule="nonzero"/></clipPath><clipPath id="042b946411"><path d="M 256 412 L 767.941406 412 L 767.941406 425.496094 L 256 425.496094 Z M 256 412 " clip-rule="nonzero"/></clipPath></defs><g clip-path="url(#c669ebaea2)"><path fill="#ffffff" d="M 0 0.140625 L 1024 0.140625 L 1024 575.859375 L 0 575.859375 Z M 0 0.140625 " fill-opacity="1" fill-rule="nonzero"/><path fill="#ffffff" d="M 0 0.140625 L 1024 0.140625 L 1024 575.859375 L 0 575.859375 Z M 0 0.140625 " fill-opacity="1" fill-rule="nonzero"/></g><path fill="#2e9d4c" d="M 684.773438 356.640625 L 684.773438 357.714844 C 684.847656 357.574219 684.90625 357.421875 684.96875 357.273438 C 684.90625 357.0625 684.839844 356.851562 684.773438 356.640625 " fill-opacity="1" fill-rule="nonzero"/><path fill="#2e9d4c" d="M 685.433594 356.101562 C 685.582031 355.605469 685.699219 355.101562 685.765625 354.585938 C 685.90625 353.523438 685.863281 352.480469 685.648438 351.429688 C 685.457031 350.519531 685.105469 349.652344 684.773438 348.785156 L 684.773438 353.941406 C 684.777344 353.953125 684.78125 353.96875 684.78125 353.980469 C 684.996094 354.6875 685.210938 355.394531 685.433594 356.101562 " fill-opacity="1" fill-rule="nonzero"/><path fill="#2e9d4c" d="M 679.003906 366.367188 C 679.257812 365.097656 679.707031 363.929688 680.402344 362.835938 C 680.898438 362.050781 681.566406 361.421875 682.246094 360.800781 L 682.246094 347.476562 C 682.109375 346.910156 681.976562 346.34375 681.84375 345.773438 L 672.398438 345.773438 C 673.023438 346.835938 673.566406 347.945312 673.890625 349.234375 C 674.308594 350.890625 674.417969 352.671875 674.4375 354.367188 C 674.488281 358.171875 674.234375 361.972656 674.816406 365.792969 C 675.125 367.820312 675.699219 369.765625 676.5 371.542969 L 679.230469 371.542969 C 678.804688 369.847656 678.667969 368.082031 679.003906 366.367188 " fill-opacity="1" fill-rule="nonzero"/><path fill="#2e9d4c" d="M 680.9375 341.503906 C 680.015625 336.769531 679.492188 331.972656 678.613281 327.230469 C 677.734375 322.515625 676.21875 318.363281 674.238281 314.210938 C 672.3125 310.167969 670.289062 306.136719 669.4375 301.492188 C 669.3125 300.816406 670.082031 300.710938 670.207031 301.382812 C 671.015625 305.765625 672.933594 309.605469 674.753906 313.421875 C 676.578125 317.230469 678.109375 321.042969 679.03125 325.347656 C 680.03125 330.042969 680.511719 334.847656 681.367188 339.578125 C 681.589844 340.796875 681.832031 342.019531 682.082031 343.238281 L 683.730469 343.238281 C 683.71875 342.152344 683.796875 341.058594 684 339.992188 C 684.511719 337.359375 685.867188 335.375 688.089844 333.890625 C 688.851562 333.378906 689.644531 332.90625 690.402344 332.382812 C 690.75 329.492188 690.632812 326.457031 690.074219 323.507812 C 689.394531 319.902344 687.902344 317.148438 685.570312 315.054688 C 684.59375 314.171875 683.570312 313.398438 682.628906 312.441406 C 681.679688 311.484375 680.890625 310.339844 680.179688 309.078125 C 678.671875 306.40625 677.691406 303.371094 676.511719 300.460938 C 675.257812 297.378906 673.585938 294.609375 670.996094 293.738281 C 668.375 292.855469 666.089844 294.808594 665.625 298.226562 C 665.414062 299.75 665.574219 301.371094 665.726562 302.929688 C 665.925781 304.882812 666.144531 306.84375 666.539062 308.769531 C 667.273438 312.359375 668.949219 315.742188 669.269531 319.421875 C 669.515625 322.269531 668.851562 325.085938 668.410156 327.757812 C 667.9375 330.632812 667.503906 333.675781 668.078125 336.71875 C 668.550781 339.257812 669.632812 341.273438 670.835938 343.238281 L 681.296875 343.238281 C 681.179688 342.660156 681.046875 342.085938 680.9375 341.503906 " fill-opacity="1" fill-rule="nonzero"/><path fill="#a2dda5" d="M 685.433594 356.101562 C 685.210938 355.394531 684.996094 354.6875 684.78125 353.980469 C 684.777344 353.96875 684.777344 353.953125 684.773438 353.941406 L 684.773438 356.640625 C 684.839844 356.851562 684.902344 357.0625 684.96875 357.273438 C 685.148438 356.894531 685.3125 356.503906 685.433594 356.101562 " fill-opacity="1" fill-rule="nonzero"/><path fill="#a2dda5" d="M 681.84375 345.773438 C 681.976562 346.34375 682.109375 346.910156 682.246094 347.476562 L 682.246094 345.773438 L 681.84375 345.773438 " fill-opacity="1" fill-rule="nonzero"/><path fill="#a2dda5" d="M 679.03125 325.347656 C 678.109375 321.042969 676.574219 317.230469 674.753906 313.421875 C 672.933594 309.609375 671.011719 305.765625 670.207031 301.382812 C 670.082031 300.710938 669.3125 300.816406 669.4375 301.496094 C 670.285156 306.140625 672.3125 310.167969 674.238281 314.214844 C 676.21875 318.363281 677.734375 322.515625 678.609375 327.234375 C 679.492188 331.972656 680.015625 336.769531 680.9375 341.503906 C 681.046875 342.085938 681.175781 342.664062 681.296875 343.238281 L 682.082031 343.238281 C 681.828125 342.019531 681.585938 340.800781 681.367188 339.578125 C 680.511719 334.847656 680.03125 330.042969 679.03125 325.347656 " fill-opacity="1" fill-rule="nonzero"/><path fill="#62c77f" d="M 693.9375 353.441406 C 693.246094 356.863281 692.320312 360.230469 691.164062 363.519531 C 690.234375 366.164062 689.132812 368.78125 688.664062 371.539062 L 700.773438 371.539062 L 700.773438 363.507812 C 700.773438 363.25 700.867188 363.027344 700.996094 362.832031 C 700.949219 361.652344 700.992188 360.433594 701.308594 359.296875 C 701.625 358.179688 702.246094 357.253906 702.957031 356.355469 C 704.464844 354.460938 706.039062 352.703125 706.511719 350.246094 C 706.800781 348.75 706.628906 347.246094 706.304688 345.773438 L 695.125 345.773438 C 694.746094 348.332031 694.449219 350.902344 693.9375 353.441406 " fill-opacity="1" fill-rule="nonzero"/><path fill="#62c77f" d="M 684 339.992188 C 683.792969 341.058594 683.71875 342.152344 683.726562 343.238281 L 694.765625 343.238281 C 694.863281 342.699219 694.957031 342.15625 695.078125 341.617188 C 695.792969 338.480469 697.144531 335.71875 698.777344 332.964844 C 700.410156 330.207031 702.140625 327.429688 702.738281 324.230469 C 702.828125 323.738281 703.601562 323.839844 703.511719 324.332031 C 702.882812 327.722656 701.054688 330.636719 699.324219 333.554688 C 697.554688 336.558594 696.238281 339.570312 695.582031 343.015625 C 695.570312 343.089844 695.558594 343.164062 695.546875 343.238281 L 705.632812 343.238281 C 705.082031 341.386719 704.410156 339.449219 704.515625 337.507812 C 704.664062 334.8125 706.167969 332.367188 706.734375 329.75 C 707.039062 328.34375 707.167969 326.910156 707.265625 325.476562 C 707.347656 324.335938 707.433594 323.148438 707.152344 322.03125 C 706.527344 319.503906 704.164062 318.011719 701.597656 318.59375 C 699.058594 319.175781 697.523438 321.160156 696.421875 323.398438 C 695.382812 325.503906 694.550781 327.710938 693.175781 329.636719 C 692.523438 330.550781 691.789062 331.367188 690.894531 332.046875 C 690.738281 332.167969 690.5625 332.273438 690.402344 332.386719 C 689.644531 332.90625 688.851562 333.382812 688.085938 333.894531 C 685.867188 335.375 684.511719 337.359375 684 339.992188 " fill-opacity="1" fill-rule="nonzero"/><path fill="#62c77f" d="M 680.402344 362.835938 C 679.707031 363.929688 679.257812 365.097656 679.003906 366.367188 C 678.667969 368.082031 678.804688 369.847656 679.230469 371.542969 L 682.246094 371.542969 L 682.246094 360.800781 C 681.566406 361.421875 680.898438 362.050781 680.402344 362.835938 " fill-opacity="1" fill-rule="nonzero"/><path fill="#62c77f" d="M 690.691406 362.511719 C 691.851562 359.085938 692.761719 355.574219 693.414062 352.011719 C 693.796875 349.945312 694.042969 347.851562 694.347656 345.773438 L 684.777344 345.773438 L 684.777344 348.785156 C 685.105469 349.652344 685.460938 350.515625 685.648438 351.425781 C 685.867188 352.476562 685.90625 353.523438 685.765625 354.585938 C 685.699219 355.097656 685.585938 355.605469 685.4375 356.101562 C 685.3125 356.503906 685.148438 356.890625 684.972656 357.273438 C 684.90625 357.417969 684.847656 357.570312 684.777344 357.714844 L 684.777344 371.542969 L 687.871094 371.542969 C 688.375 368.433594 689.671875 365.488281 690.691406 362.511719 " fill-opacity="1" fill-rule="nonzero"/><path fill="#a2dda5" d="M 690.691406 362.511719 C 689.675781 365.488281 688.375 368.429688 687.875 371.539062 L 688.664062 371.539062 C 689.132812 368.78125 690.234375 366.164062 691.167969 363.519531 C 692.320312 360.230469 693.246094 356.859375 693.9375 353.441406 C 694.453125 350.902344 694.75 348.332031 695.125 345.773438 L 694.347656 345.773438 C 694.046875 347.851562 693.796875 349.945312 693.417969 352.011719 C 692.765625 355.574219 691.855469 359.085938 690.691406 362.511719 " fill-opacity="1" fill-rule="nonzero"/><path fill="#a2dda5" d="M 699.324219 333.554688 C 701.054688 330.636719 702.882812 327.722656 703.511719 324.332031 C 703.601562 323.839844 702.828125 323.738281 702.738281 324.234375 C 702.144531 327.429688 700.410156 330.207031 698.773438 332.964844 C 697.140625 335.71875 695.789062 338.480469 695.074219 341.617188 C 694.953125 342.15625 694.863281 342.699219 694.765625 343.238281 L 695.546875 343.238281 C 695.558594 343.167969 695.570312 343.089844 695.582031 343.019531 C 696.238281 339.570312 697.550781 336.558594 699.324219 333.554688 " fill-opacity="1" fill-rule="nonzero"/><path fill="#eb9620" d="M 700.34375 377.648438 L 684.777344 377.648438 L 684.777344 400.191406 L 682.246094 400.191406 L 682.246094 377.648438 L 676.804688 377.648438 L 678.03125 400.542969 L 699.023438 400.542969 L 700.34375 377.648438 " fill-opacity="1" fill-rule="nonzero"/><path fill="#c67c21" d="M 700.773438 371.539062 L 684.777344 371.539062 L 684.777344 377.644531 L 700.773438 377.644531 L 700.773438 371.539062 " fill-opacity="1" fill-rule="nonzero"/><path fill="#c67c21" d="M 682.246094 377.644531 L 682.246094 371.542969 L 673.996094 371.542969 L 673.996094 377.644531 L 682.246094 377.644531 " fill-opacity="1" fill-rule="nonzero"/><path fill="#c14636" d="M 317.554688 298.070312 L 342.933594 298.070312 L 342.933594 310.777344 L 317.554688 310.777344 Z M 558.1875 235.136719 L 583.566406 235.136719 L 583.566406 247.839844 L 558.1875 247.839844 Z M 592.566406 222.621094 L 617.945312 222.621094 L 617.945312 235.328125 L 592.566406 235.328125 Z M 326.109375 352.398438 L 342.992188 352.398438 L 342.992188 362.238281 L 343.03125 362.238281 C 343.1875 362.238281 343.328125 362.277344 343.464844 362.328125 L 343.464844 345.773438 L 337.402344 345.773438 C 336.703125 345.773438 336.136719 345.203125 336.136719 344.507812 C 336.136719 343.804688 336.703125 343.238281 337.402344 343.238281 L 343.464844 343.238281 L 343.464844 297.546875 C 340.5625 295.488281 338.664062 292.109375 338.664062 288.28125 L 338.664062 265.542969 L 340.210938 251.214844 L 317.554688 251.214844 L 317.554688 238.507812 L 341.585938 238.507812 L 343.464844 221.136719 L 500.351562 221.136719 L 505.019531 265.542969 L 505.019531 288.28125 C 505.019531 293.382812 501.65625 297.699219 497.03125 299.132812 L 505.019531 299.132812 L 505.019531 311.839844 L 494.371094 311.839844 L 494.371094 362.238281 L 503.644531 362.238281 C 504.34375 362.238281 504.910156 362.804688 504.910156 363.507812 L 504.910156 400.191406 L 502.378906 400.191406 L 502.378906 375.21875 L 488.570312 375.21875 L 488.570312 400.191406 L 486.042969 400.191406 L 486.042969 375.21875 L 472.898438 375.21875 L 472.898438 388.003906 L 484.726562 388.003906 L 484.726562 400.542969 L 528.226562 400.542969 L 528.226562 345.773438 L 524.164062 345.773438 L 524.164062 400.191406 L 521.636719 400.191406 L 521.636719 345.773438 L 498.015625 345.773438 C 497.316406 345.773438 496.75 345.203125 496.75 344.507812 C 496.75 343.804688 497.316406 343.238281 498.015625 343.238281 L 528.226562 343.238281 L 528.226562 284.082031 L 514.015625 284.082031 L 514.015625 271.378906 L 528.226562 271.378906 L 528.226562 265.027344 L 585.714844 265.027344 L 585.714844 310.585938 L 591.703125 310.585938 L 591.703125 323.292969 L 588.050781 323.292969 C 588.679688 324.667969 588.9375 326.261719 588.9375 327.976562 C 588.933594 331.289062 588.03125 335.144531 586.710938 339.128906 C 586.402344 340.058594 586.066406 340.996094 585.714844 341.933594 L 585.714844 383.582031 L 592.582031 383.582031 L 592.582031 396.289062 L 585.714844 396.289062 L 585.714844 400.542969 L 626.023438 400.542969 L 626.023438 355.449219 C 623.636719 350.773438 620.863281 344.824219 618.96875 339.128906 C 617.648438 335.144531 616.746094 331.289062 616.738281 327.976562 C 616.742188 326.179688 617.003906 324.523438 617.699219 323.097656 C 618.382812 321.671875 619.554688 320.5 621.128906 319.867188 C 622.175781 319.4375 623.378906 319.230469 624.738281 319.230469 C 625.175781 319.230469 625.597656 319.28125 626.023438 319.324219 L 626.023438 310.777344 L 600.703125 310.777344 L 600.703125 298.070312 L 626.023438 298.070312 L 626.023438 208.859375 L 317.460938 208.859375 L 317.460938 328.625 C 319.898438 332.472656 321.789062 337.050781 323.269531 341.613281 C 324.480469 345.367188 325.410156 349.101562 326.109375 352.398438 " fill-opacity="1" fill-rule="nonzero"/><path fill="#c14636" d="M 502.378906 365.253906 L 502.378906 364.773438 L 494.371094 364.773438 L 494.371094 365.253906 L 502.378906 365.253906 " fill-opacity="1" fill-rule="nonzero"/><path fill="#c14636" d="M 585.714844 333.304688 C 586.148438 331.355469 586.410156 329.539062 586.410156 327.976562 C 586.410156 326.441406 586.171875 325.164062 585.714844 324.226562 L 585.714844 333.304688 " fill-opacity="1" fill-rule="nonzero"/><path fill="#c14636" d="M 317.613281 362.238281 L 317.613281 354.734375 L 317.460938 354.25 L 317.460938 362.238281 L 317.613281 362.238281 " fill-opacity="1" fill-rule="nonzero"/><path fill="#c14636" d="M 334.433594 388.003906 L 341.769531 388.003906 L 341.769531 375.21875 L 334.160156 375.21875 L 334.160156 365.253906 L 341.769531 365.253906 L 341.769531 365.101562 L 327.960938 365.101562 L 327.960938 400.191406 L 325.429688 400.191406 L 325.429688 365.101562 L 317.613281 365.101562 L 317.613281 364.773438 L 317.460938 364.773438 L 317.460938 400.542969 L 334.433594 400.542969 L 334.433594 388.003906 " fill-opacity="1" fill-rule="nonzero"/><path fill="#c14636" d="M 621.40625 322.589844 C 621.0625 322.8125 620.753906 323.0625 620.503906 323.363281 C 619.703125 324.339844 619.265625 325.910156 619.269531 327.976562 C 619.265625 330.46875 619.894531 333.589844 620.910156 336.898438 C 621.925781 340.207031 623.316406 343.710938 624.796875 347.027344 C 625.199219 347.9375 625.609375 348.832031 626.023438 349.703125 L 626.023438 335.328125 L 621.40625 322.589844 " fill-opacity="1" fill-rule="nonzero"/><path fill="#c14636" d="M 319.535156 352.398438 L 323.519531 352.398438 C 322.277344 346.65625 320.316406 339.683594 317.460938 333.847656 L 317.460938 345.777344 L 319.535156 352.398438 " fill-opacity="1" fill-rule="nonzero"/><path fill="#c14636" d="M 623.8125 321.8125 L 626.023438 327.910156 L 626.023438 321.855469 C 625.601562 321.800781 625.175781 321.761719 624.738281 321.761719 C 624.40625 321.761719 624.101562 321.78125 623.8125 321.8125 " fill-opacity="1" fill-rule="nonzero"/><path fill="#c14636" d="M 470.371094 388.003906 L 470.371094 375.21875 L 414.085938 375.21875 L 414.085938 400.191406 L 411.558594 400.191406 L 411.558594 375.21875 L 398.414062 375.21875 L 398.414062 400.191406 L 395.882812 400.191406 L 395.882812 375.21875 L 382.074219 375.21875 L 382.074219 400.191406 L 379.546875 400.191406 L 379.546875 375.21875 L 363.550781 375.21875 L 363.550781 400.191406 L 361.019531 400.191406 L 361.019531 375.21875 L 344.296875 375.21875 L 344.296875 388.003906 L 359.8125 388.003906 L 359.8125 400.542969 L 459.347656 400.542969 L 459.347656 388.003906 L 470.371094 388.003906 " fill-opacity="1" fill-rule="nonzero"/><path fill="#972425" d="M 326.109375 352.398438 C 327.054688 356.851562 327.585938 360.492188 327.8125 362.238281 L 342.992188 362.238281 L 342.992188 352.398438 L 326.109375 352.398438 " fill-opacity="1" fill-rule="nonzero"/><path fill="#972425" d="M 327.960938 364.773438 L 327.960938 365.101562 L 341.769531 365.101562 L 341.769531 364.773438 L 327.960938 364.773438 " fill-opacity="1" fill-rule="nonzero"/><path fill="#972425" d="M 319.960938 362.238281 L 317.613281 354.734375 L 317.613281 362.238281 Z M 319.960938 362.238281 " fill-opacity="1" fill-rule="nonzero"/><path fill="#972425" d="M 322.613281 362.238281 L 325.261719 362.238281 C 325.199219 361.785156 325.125 361.238281 325.03125 360.601562 C 324.742188 358.6875 324.289062 355.996094 323.636719 352.917969 C 323.601562 352.746094 323.558594 352.570312 323.519531 352.398438 L 319.535156 352.398438 L 322.613281 362.238281 " fill-opacity="1" fill-rule="nonzero"/><path fill="#972425" d="M 317.613281 364.773438 L 317.613281 365.101562 L 325.429688 365.101562 L 325.429688 364.773438 L 317.613281 364.773438 " fill-opacity="1" fill-rule="nonzero"/><path fill="#972425" d="M 592.582031 396.289062 L 592.582031 383.582031 L 585.714844 383.582031 L 585.714844 396.289062 L 592.582031 396.289062 " fill-opacity="1" fill-rule="nonzero"/><path fill="#972425" d="M 344.296875 388.003906 L 344.296875 400.191406 L 341.769531 400.191406 L 341.769531 388.003906 L 334.433594 388.003906 L 334.433594 400.542969 L 359.8125 400.542969 L 359.8125 388.003906 L 344.296875 388.003906 " fill-opacity="1" fill-rule="nonzero"/><path fill="#972425" d="M 472.898438 388.003906 L 472.898438 400.191406 L 470.371094 400.191406 L 470.371094 388.003906 L 459.347656 388.003906 L 459.347656 400.542969 L 484.726562 400.542969 L 484.726562 388.003906 L 472.898438 388.003906 " fill-opacity="1" fill-rule="nonzero"/><path fill="#972425" d="M 317.554688 238.507812 L 317.554688 251.214844 L 340.210938 251.214844 L 341.585938 238.507812 L 317.554688 238.507812 " fill-opacity="1" fill-rule="nonzero"/><path fill="#972425" d="M 587.136719 321.765625 C 587.511719 322.234375 587.804688 322.75 588.050781 323.292969 L 591.703125 323.292969 L 591.703125 310.585938 L 585.714844 310.585938 L 585.714844 320.515625 C 586.25 320.875 586.742188 321.28125 587.136719 321.765625 " fill-opacity="1" fill-rule="nonzero"/><path fill="#972425" d="M 600.703125 310.777344 L 626.082031 310.777344 L 626.082031 298.070312 L 600.703125 298.070312 L 600.703125 310.777344 " fill-opacity="1" fill-rule="nonzero"/><path fill="#972425" d="M 494.371094 311.839844 L 505.019531 311.839844 L 505.019531 299.132812 L 497.03125 299.132812 C 496.179688 299.398438 495.289062 299.550781 494.371094 299.605469 L 494.371094 311.839844 " fill-opacity="1" fill-rule="nonzero"/><path fill="#972425" d="M 514.015625 271.378906 L 514.015625 284.082031 L 528.226562 284.082031 L 528.226562 271.378906 L 514.015625 271.378906 " fill-opacity="1" fill-rule="nonzero"/><path fill="#972425" d="M 583.566406 235.136719 L 558.1875 235.136719 L 558.1875 247.839844 L 583.566406 247.839844 L 583.566406 235.136719 " fill-opacity="1" fill-rule="nonzero"/><path fill="#972425" d="M 617.945312 222.621094 L 592.566406 222.621094 L 592.566406 235.328125 L 617.945312 235.328125 L 617.945312 222.621094 " fill-opacity="1" fill-rule="nonzero"/><path fill="#972425" d="M 342.933594 298.070312 L 317.554688 298.070312 L 317.554688 310.777344 L 342.933594 310.777344 L 342.933594 298.070312 " fill-opacity="1" fill-rule="nonzero"/><path fill="#ffffff" d="M 449.054688 365.253906 L 437.367188 365.253906 L 437.425781 365.199219 L 414.085938 365.199219 L 414.085938 371.898438 L 470.371094 371.898438 L 470.371094 365.199219 L 449.117188 365.199219 L 449.054688 365.253906 " fill-opacity="1" fill-rule="nonzero"/><path fill="#ffffff" d="M 350.15625 338.800781 L 350.15625 299.640625 L 350.011719 299.640625 C 347.570312 299.640625 345.316406 298.863281 343.464844 297.546875 L 343.464844 343.238281 L 350.15625 343.238281 L 350.15625 338.800781 " fill-opacity="1" fill-rule="nonzero"/><path fill="#ffffff" d="M 493.667969 299.640625 L 492.601562 299.640625 C 490.835938 299.640625 489.167969 299.226562 487.675781 298.503906 L 487.675781 314.886719 L 487.691406 314.867188 L 487.691406 326.574219 L 487.675781 326.589844 L 487.675781 357.339844 C 488.046875 359.488281 488.292969 361.199219 488.425781 362.238281 L 494.371094 362.238281 L 494.371094 299.605469 C 494.136719 299.621094 493.90625 299.640625 493.667969 299.640625 " fill-opacity="1" fill-rule="nonzero"/><path fill="#fab85b" d="M 412.988281 324.664062 C 412.097656 325.417969 411.246094 326.28125 410.4375 327.277344 C 407.640625 330.710938 405.386719 335.46875 403.652344 340.410156 C 403.535156 340.730469 403.429688 341.058594 403.320312 341.386719 L 409.78125 334.921875 L 412.988281 324.664062 " fill-opacity="1" fill-rule="nonzero"/><path fill="#fab85b" d="M 411.558594 365.199219 L 411.558594 364.773438 L 410.015625 364.773438 L 409.59375 365.199219 L 411.558594 365.199219 " fill-opacity="1" fill-rule="nonzero"/><path fill="#fab85b" d="M 416.269531 322.648438 L 413.640625 331.054688 L 420.335938 324.351562 L 421.257812 321.8125 C 420.964844 321.78125 420.660156 321.761719 420.328125 321.761719 C 418.882812 321.761719 417.542969 322.054688 416.277344 322.589844 C 416.273438 322.609375 416.277344 322.628906 416.269531 322.648438 " fill-opacity="1" fill-rule="nonzero"/><path fill="#fab85b" d="M 486.042969 364.773438 L 472.898438 364.773438 L 472.898438 365.199219 L 486.042969 365.199219 L 486.042969 364.773438 " fill-opacity="1" fill-rule="nonzero"/><path fill="#fab85b" d="M 471.972656 362.238281 L 475.175781 362.238281 L 469.019531 345.269531 L 465.148438 349.144531 C 467.828125 354.898438 470.578125 359.816406 471.75 361.851562 C 471.835938 362 471.90625 362.121094 471.972656 362.238281 " fill-opacity="1" fill-rule="nonzero"/><path fill="#fab85b" d="M 477.863281 362.238281 L 480.574219 362.238281 L 473.773438 340.507812 L 470.992188 343.292969 L 477.863281 362.238281 " fill-opacity="1" fill-rule="nonzero"/><path fill="#fab85b" d="M 473.003906 329.574219 L 474.574219 328.003906 C 473.601562 326.71875 472.566406 325.589844 471.46875 324.664062 L 473.003906 329.574219 " fill-opacity="1" fill-rule="nonzero"/><path fill="#fab85b" d="M 483.226562 362.238281 L 485.875 362.238281 C 485.8125 361.785156 485.738281 361.238281 485.640625 360.601562 C 485.355469 358.6875 484.902344 355.996094 484.246094 352.917969 C 483.117188 347.59375 481.363281 341.105469 478.832031 335.441406 L 475.792969 338.488281 L 483.226562 362.238281 " fill-opacity="1" fill-rule="nonzero"/><path fill="#fab85b" d="M 467.878906 334.707031 L 470.984375 331.597656 L 468.1875 322.648438 C 468.179688 322.632812 468.183594 322.617188 468.179688 322.605469 C 466.914062 322.066406 465.574219 321.761719 464.125 321.761719 C 463.796875 321.761719 463.492188 321.78125 463.199219 321.8125 L 467.878906 334.707031 " fill-opacity="1" fill-rule="nonzero"/><path fill="#fab85b" d="M 470.371094 365.199219 L 470.371094 364.382812 C 470.296875 364.3125 470.21875 364.246094 470.164062 364.15625 C 470.148438 364.128906 466.71875 358.382812 463.25 351.046875 L 449.117188 365.199219 L 470.371094 365.199219 " fill-opacity="1" fill-rule="nonzero"/><path fill="#fab85b" d="M 460.789062 322.589844 C 460.449219 322.8125 460.140625 323.0625 459.894531 323.363281 C 459.089844 324.339844 458.652344 325.910156 458.65625 327.976562 C 458.652344 330.46875 459.285156 333.589844 460.300781 336.898438 C 460.703125 338.210938 461.179688 339.5625 461.679688 340.910156 L 465.902344 336.683594 L 460.789062 322.589844 " fill-opacity="1" fill-rule="nonzero"/><path fill="#fab85b" d="M 386.191406 288.28125 C 386.191406 294.554688 381.113281 299.640625 374.84375 299.640625 L 373.777344 299.640625 C 373.003906 299.640625 372.25 299.5625 371.519531 299.417969 L 350.15625 320.808594 L 350.15625 338.800781 L 391.203125 297.703125 C 388.179688 295.664062 386.191406 292.203125 386.191406 288.28125 " fill-opacity="1" fill-rule="nonzero"/><path fill="#fab85b" d="M 379.546875 365.191406 L 379.546875 363.507812 C 379.546875 362.804688 380.113281 362.238281 380.8125 362.238281 L 382.492188 362.238281 L 399.496094 345.214844 C 400.769531 340.664062 402.441406 335.882812 404.628906 331.664062 C 406.898438 327.308594 409.710938 323.519531 413.339844 321.265625 C 415.410156 319.980469 417.761719 319.226562 420.328125 319.230469 C 421.6875 319.230469 422.890625 319.4375 423.9375 319.867188 C 424.144531 319.949219 424.308594 320.082031 424.5 320.183594 L 445.019531 299.636719 C 438.777344 299.609375 433.722656 294.535156 433.722656 288.28125 C 433.722656 294.554688 428.644531 299.640625 422.375 299.640625 L 421.308594 299.640625 C 415.773438 299.640625 411.167969 295.671875 410.167969 290.421875 L 409.625 290.964844 C 408.628906 295.082031 405.402344 298.308594 401.292969 299.308594 L 357.414062 343.238281 L 387.171875 343.238281 C 387.867188 343.238281 388.433594 343.804688 388.433594 344.507812 C 388.433594 345.203125 387.867188 345.773438 387.171875 345.773438 L 363.550781 345.773438 L 363.550781 365.199219 L 379.542969 365.199219 L 379.546875 365.191406 " fill-opacity="1" fill-rule="nonzero"/><path fill="#fab85b" d="M 483.878906 341.613281 C 485.757812 347.425781 486.957031 353.195312 487.675781 357.339844 L 487.675781 326.589844 L 480.746094 333.527344 C 481.957031 336.121094 482.992188 338.871094 483.878906 341.613281 " fill-opacity="1" fill-rule="nonzero"/><path fill="#fab85b" d="M 362.425781 288.28125 C 362.425781 294.554688 357.347656 299.640625 351.078125 299.640625 L 350.15625 299.640625 L 350.15625 309.105469 L 364.472656 294.773438 C 363.1875 292.933594 362.425781 290.695312 362.425781 288.28125 " fill-opacity="1" fill-rule="nonzero"/><path fill="#fab85b" d="M 414.292969 364.15625 C 414.238281 364.246094 414.15625 364.3125 414.085938 364.382812 L 414.085938 365.199219 L 437.425781 365.199219 L 459.71875 342.878906 C 459.234375 341.625 458.769531 340.367188 458.355469 339.128906 C 457.035156 335.144531 456.132812 331.289062 456.125 327.976562 C 456.128906 326.179688 456.394531 324.523438 457.085938 323.097656 C 457.773438 321.671875 458.941406 320.5 460.515625 319.867188 C 461.5625 319.4375 462.765625 319.230469 464.125 319.230469 C 466.691406 319.226562 469.046875 319.980469 471.117188 321.265625 C 473.101562 322.492188 474.835938 324.203125 476.378906 326.195312 L 487.675781 314.886719 L 487.675781 298.503906 C 485.167969 297.289062 483.171875 295.1875 482.105469 292.59375 L 418.746094 356.035156 C 416.277344 360.828125 414.300781 364.140625 414.292969 364.15625 " fill-opacity="1" fill-rule="nonzero"/><path fill="#fab85b" d="M 361.019531 345.773438 L 354.882812 345.773438 L 350.15625 350.503906 L 350.15625 365.199219 L 361.019531 365.199219 L 361.019531 345.773438 " fill-opacity="1" fill-rule="nonzero"/><path fill="#fcd094" d="M 364.472656 294.773438 L 350.15625 309.105469 L 350.15625 320.808594 L 371.519531 299.417969 C 368.613281 298.828125 366.113281 297.125 364.472656 294.773438 " fill-opacity="1" fill-rule="nonzero"/><path fill="#fcd094" d="M 409.625 290.964844 L 410.167969 290.421875 C 410.035156 289.726562 409.957031 289.015625 409.957031 288.28125 C 409.957031 289.207031 409.835938 290.105469 409.625 290.964844 " fill-opacity="1" fill-rule="nonzero"/><path fill="#fcd094" d="M 350.15625 345.773438 L 350.15625 350.503906 L 354.882812 345.773438 Z M 350.15625 345.773438 " fill-opacity="1" fill-rule="nonzero"/><path fill="#fcd094" d="M 398.609375 299.640625 L 397.542969 299.640625 C 395.195312 299.640625 393.015625 298.925781 391.203125 297.703125 L 350.15625 338.800781 L 350.15625 343.238281 L 357.414062 343.238281 L 401.292969 299.308594 C 400.433594 299.519531 399.535156 299.640625 398.609375 299.640625 " fill-opacity="1" fill-rule="nonzero"/><path fill="#fcd094" d="M 437.367188 365.253906 L 449.054688 365.253906 L 449.117188 365.199219 L 463.25 351.046875 C 462.023438 348.457031 460.800781 345.679688 459.71875 342.878906 L 437.425781 365.199219 L 437.367188 365.253906 " fill-opacity="1" fill-rule="nonzero"/><path fill="#fcd094" d="M 465.902344 336.683594 L 461.679688 340.910156 C 462.445312 342.960938 463.292969 345.027344 464.183594 347.027344 C 464.503906 347.746094 464.828125 348.445312 465.148438 349.144531 L 469.019531 345.269531 L 465.902344 336.683594 " fill-opacity="1" fill-rule="nonzero"/><path fill="#fcd094" d="M 475.792969 338.488281 L 478.832031 335.441406 C 478.433594 334.550781 478.019531 333.675781 477.582031 332.832031 C 476.667969 331.066406 475.65625 329.445312 474.574219 328.003906 L 473.003906 329.574219 L 475.792969 338.488281 " fill-opacity="1" fill-rule="nonzero"/><path fill="#fcd094" d="M 476.585938 326.453125 C 478.167969 328.550781 479.542969 330.960938 480.746094 333.527344 L 487.675781 326.589844 L 487.691406 326.574219 L 487.691406 314.867188 L 487.675781 314.886719 L 476.378906 326.195312 C 476.449219 326.285156 476.519531 326.363281 476.585938 326.453125 " fill-opacity="1" fill-rule="nonzero"/><path fill="#fcd094" d="M 470.992188 343.292969 L 473.773438 340.507812 L 470.984375 331.597656 L 467.878906 334.707031 L 470.992188 343.292969 " fill-opacity="1" fill-rule="nonzero"/><path fill="#fcd094" d="M 395.882812 364.773438 L 382.074219 364.773438 L 382.074219 365.199219 L 395.882812 365.199219 L 395.882812 364.773438 " fill-opacity="1" fill-rule="nonzero"/><path fill="#fcd094" d="M 469.90625 299.640625 L 468.835938 299.640625 C 462.570312 299.640625 457.488281 294.554688 457.488281 288.28125 C 457.488281 294.554688 452.40625 299.640625 446.140625 299.640625 L 445.074219 299.640625 C 445.054688 299.640625 445.035156 299.636719 445.019531 299.636719 L 424.5 320.183594 C 425.285156 320.589844 425.992188 321.105469 426.523438 321.765625 C 427.855469 323.417969 428.324219 325.589844 428.328125 327.976562 C 428.324219 331.289062 427.417969 335.144531 426.097656 339.128906 C 424.773438 343.105469 423.027344 347.199219 421.277344 350.902344 C 420.417969 352.730469 419.554688 354.460938 418.746094 356.035156 L 482.105469 292.59375 C 481.558594 291.261719 481.253906 289.804688 481.253906 288.28125 C 481.253906 294.554688 476.171875 299.640625 469.90625 299.640625 " fill-opacity="1" fill-rule="nonzero"/><path fill="#fcd094" d="M 379.546875 365.199219 L 379.546875 365.191406 L 379.542969 365.199219 Z M 379.546875 365.199219 " fill-opacity="1" fill-rule="nonzero"/><path fill="#fcd094" d="M 410.015625 364.773438 L 398.414062 364.773438 L 398.414062 365.199219 L 409.59375 365.199219 L 410.015625 364.773438 " fill-opacity="1" fill-rule="nonzero"/><path fill="#fcd094" d="M 423.671875 322.570312 L 409.28125 362.238281 L 412.480469 362.238281 C 412.699219 361.867188 413.003906 361.335938 413.382812 360.660156 C 414.167969 359.265625 415.257812 357.28125 416.464844 354.933594 C 418.886719 350.238281 421.785156 344.085938 423.699219 338.324219 C 424.976562 334.492188 425.804688 330.820312 425.800781 327.976562 C 425.800781 326.433594 425.554688 325.152344 425.09375 324.207031 C 424.742188 323.5 424.296875 322.96875 423.671875 322.570312 " fill-opacity="1" fill-rule="nonzero"/><path fill="#fcd094" d="M 401.230469 362.238281 L 409.78125 334.921875 L 403.320312 341.386719 C 400.410156 350.003906 399.027344 358.894531 398.582031 362.238281 L 401.230469 362.238281 " fill-opacity="1" fill-rule="nonzero"/><path fill="#fcd094" d="M 403.882812 362.238281 L 406.589844 362.238281 L 420.335938 324.351562 L 413.640625 331.054688 L 403.882812 362.238281 " fill-opacity="1" fill-rule="nonzero"/><path fill="#fcd094" d="M 396.027344 362.238281 C 396.253906 360.492188 396.785156 356.851562 397.734375 352.386719 C 398.207031 350.160156 398.792969 347.71875 399.496094 345.214844 L 382.492188 362.238281 L 396.027344 362.238281 " fill-opacity="1" fill-rule="nonzero"/><path fill="#ffffff" d="M 341.769531 365.253906 L 334.160156 365.253906 L 334.160156 371.898438 L 341.769531 371.898438 L 341.769531 365.253906 " fill-opacity="1" fill-rule="nonzero"/><path fill="#ffffff" d="M 502.378906 371.898438 L 502.378906 365.253906 L 494.371094 365.253906 L 494.371094 364.773438 L 488.570312 364.773438 L 488.570312 371.898438 L 502.378906 371.898438 " fill-opacity="1" fill-rule="nonzero"/><path fill="#ffffff" d="M 361.019531 365.199219 L 350.15625 365.199219 L 350.15625 345.773438 L 343.464844 345.773438 L 343.464844 362.328125 C 343.949219 362.503906 344.296875 362.960938 344.296875 363.507812 L 344.296875 371.898438 L 361.019531 371.898438 L 361.019531 365.199219 " fill-opacity="1" fill-rule="nonzero"/><path fill="#ffffff" d="M 411.558594 365.199219 L 398.414062 365.199219 L 398.414062 371.898438 L 411.558594 371.898438 L 411.558594 365.199219 " fill-opacity="1" fill-rule="nonzero"/><path fill="#ffffff" d="M 379.546875 365.199219 L 363.550781 365.199219 L 363.550781 371.898438 L 379.546875 371.898438 L 379.546875 365.199219 " fill-opacity="1" fill-rule="nonzero"/><path fill="#ffffff" d="M 395.882812 365.199219 L 382.074219 365.199219 L 382.074219 371.898438 L 395.882812 371.898438 L 395.882812 365.199219 " fill-opacity="1" fill-rule="nonzero"/><path fill="#ffffff" d="M 486.042969 365.199219 L 472.898438 365.199219 L 472.898438 371.898438 L 486.042969 371.898438 L 486.042969 365.199219 " fill-opacity="1" fill-rule="nonzero"/><path fill="#e9e9e9" d="M 414.085938 371.898438 L 414.085938 375.21875 L 470.371094 375.21875 L 470.371094 371.898438 L 414.085938 371.898438 " fill-opacity="1" fill-rule="nonzero"/><path fill="#e9e9e9" d="M 398.414062 371.898438 L 398.414062 375.21875 L 411.558594 375.21875 L 411.558594 371.898438 L 398.414062 371.898438 " fill-opacity="1" fill-rule="nonzero"/><path fill="#e9e9e9" d="M 361.019531 371.898438 L 344.296875 371.898438 L 344.296875 375.21875 L 361.019531 375.21875 L 361.019531 371.898438 " fill-opacity="1" fill-rule="nonzero"/><path fill="#e9e9e9" d="M 363.550781 371.898438 L 363.550781 375.21875 L 379.546875 375.21875 L 379.546875 371.898438 L 363.550781 371.898438 " fill-opacity="1" fill-rule="nonzero"/><path fill="#e9e9e9" d="M 382.074219 371.898438 L 382.074219 375.21875 L 395.882812 375.21875 L 395.882812 371.898438 L 382.074219 371.898438 " fill-opacity="1" fill-rule="nonzero"/><path fill="#e9e9e9" d="M 334.160156 371.898438 L 334.160156 375.21875 L 341.769531 375.21875 L 341.769531 371.898438 L 334.160156 371.898438 " fill-opacity="1" fill-rule="nonzero"/><path fill="#e9e9e9" d="M 472.898438 371.898438 L 472.898438 375.21875 L 486.042969 375.21875 L 486.042969 371.898438 L 472.898438 371.898438 " fill-opacity="1" fill-rule="nonzero"/><path fill="#e9e9e9" d="M 494.371094 371.898438 L 488.570312 371.898438 L 488.570312 375.21875 L 502.378906 375.21875 L 502.378906 371.898438 L 494.371094 371.898438 " fill-opacity="1" fill-rule="nonzero"/><path fill="#ffffff" d="M 579.746094 327.667969 L 581.867188 321.8125 C 581.578125 321.78125 581.273438 321.761719 580.9375 321.761719 C 580.53125 321.761719 580.136719 321.800781 579.746094 321.84375 L 579.746094 327.667969 " fill-opacity="1" fill-rule="nonzero"/><path fill="#ffffff" d="M 534.148438 340.195312 L 534.195312 340.144531 L 534.195312 337.960938 L 562.476562 337.960938 C 563.253906 335.90625 564.117188 333.886719 565.085938 331.980469 L 534.195312 331.980469 L 534.195312 321.582031 L 534.148438 321.632812 L 534.148438 311.195312 L 534.195312 311.144531 L 534.195312 303.765625 L 534.148438 303.816406 L 534.148438 284.4375 L 534.195312 284.386719 L 534.195312 271.003906 L 579.746094 271.003906 L 579.746094 319.316406 C 580.140625 319.28125 580.53125 319.230469 580.9375 319.230469 C 582.300781 319.230469 583.503906 319.4375 584.550781 319.867188 C 584.972656 320.039062 585.347656 320.273438 585.714844 320.515625 L 585.714844 265.027344 L 528.226562 265.027344 L 528.226562 343.238281 L 534.148438 343.238281 L 534.148438 340.195312 " fill-opacity="1" fill-rule="nonzero"/><path fill="#ffffff" d="M 585.707031 324.207031 C 585.355469 323.5 584.914062 322.96875 584.285156 322.570312 L 578.703125 337.960938 L 579.746094 337.960938 L 579.746094 349.511719 C 581.414062 345.953125 583.070312 342.058594 584.3125 338.324219 C 584.886719 336.59375 585.355469 334.910156 585.714844 333.304688 L 585.714844 324.226562 C 585.707031 324.21875 585.707031 324.214844 585.707031 324.207031 " fill-opacity="1" fill-rule="nonzero"/><path fill="#ffffff" d="M 534.195312 353.566406 L 534.148438 353.617188 L 534.148438 345.773438 L 528.226562 345.773438 L 528.226562 400.542969 L 534.195312 400.542969 L 534.195312 353.566406 " fill-opacity="1" fill-rule="nonzero"/><path fill="#ffffff" d="M 585.714844 383.582031 L 585.714844 341.933594 C 584.5625 345 583.230469 348.066406 581.890625 350.902344 C 581.164062 352.445312 580.4375 353.910156 579.746094 355.277344 L 579.746094 400.542969 L 585.714844 400.542969 L 585.714844 383.582031 " fill-opacity="1" fill-rule="nonzero"/><path fill="#fab85b" d="M 573.949219 321.265625 C 575.691406 320.183594 577.644531 319.511719 579.746094 319.316406 L 579.746094 271.003906 L 534.195312 271.003906 L 534.195312 284.386719 L 547.546875 271.023438 L 566.898438 271.023438 L 534.195312 303.765625 L 534.195312 311.144531 L 574.269531 271.023438 L 579.695312 271.023438 L 579.695312 276.027344 L 534.195312 321.582031 L 534.195312 331.980469 L 542.351562 331.980469 L 579.695312 294.59375 L 579.695312 308.007812 L 555.75 331.980469 L 565.085938 331.980469 C 565.140625 331.878906 565.1875 331.769531 565.242188 331.664062 C 567.511719 327.308594 570.324219 323.519531 573.949219 321.265625 " fill-opacity="1" fill-rule="nonzero"/><path fill="#fab85b" d="M 564.496094 362.238281 L 567.203125 362.238281 L 576.011719 337.960938 L 572.09375 337.960938 L 564.496094 362.238281 " fill-opacity="1" fill-rule="nonzero"/><path fill="#fab85b" d="M 578.703125 337.960938 L 569.894531 362.238281 L 573.09375 362.238281 C 573.3125 361.867188 573.613281 361.335938 573.992188 360.660156 C 574.777344 359.265625 575.871094 357.28125 577.078125 354.933594 C 577.929688 353.28125 578.839844 351.445312 579.746094 349.511719 L 579.746094 337.960938 L 578.703125 337.960938 " fill-opacity="1" fill-rule="nonzero"/><path fill="#fab85b" d="M 559.191406 362.238281 L 561.84375 362.238281 L 569.441406 337.960938 L 565.183594 337.960938 C 564.863281 338.769531 564.554688 339.582031 564.261719 340.410156 C 561.125 349.320312 559.660156 358.765625 559.191406 362.238281 " fill-opacity="1" fill-rule="nonzero"/><path fill="#fab85b" d="M 573.597656 324.664062 C 572.710938 325.417969 571.855469 326.28125 571.050781 327.277344 C 569.929688 328.652344 568.898438 330.253906 567.949219 331.980469 L 571.308594 331.980469 L 573.597656 324.664062 " fill-opacity="1" fill-rule="nonzero"/><path fill="#fab85b" d="M 534.195312 337.960938 L 534.195312 340.144531 L 536.382812 337.960938 Z M 534.195312 337.960938 " fill-opacity="1" fill-rule="nonzero"/><path fill="#fab85b" d="M 540.15625 396.003906 L 540.15625 363.507812 C 540.15625 362.804688 540.722656 362.238281 541.425781 362.238281 L 556.640625 362.238281 C 556.867188 360.492188 557.394531 356.851562 558.34375 352.386719 C 559.273438 348.023438 560.617188 342.886719 562.476562 337.960938 L 549.78125 337.960938 L 544.507812 343.238281 L 547.78125 343.238281 C 548.480469 343.238281 549.046875 343.804688 549.046875 344.507812 C 549.046875 345.203125 548.480469 345.773438 547.78125 345.773438 L 541.980469 345.773438 L 534.195312 353.566406 L 534.195312 400.542969 L 535.625 400.542969 L 540.15625 396.003906 " fill-opacity="1" fill-rule="nonzero"/><path fill="#fab85b" d="M 579.746094 355.277344 C 579.339844 356.070312 578.949219 356.828125 578.570312 357.542969 L 579.695312 356.414062 L 579.695312 369.835938 L 574.699219 374.835938 L 574.699219 400.191406 L 572.167969 400.191406 L 572.167969 377.371094 L 559.023438 390.527344 L 559.023438 400.191406 L 556.496094 400.191406 L 556.496094 393.0625 L 549.023438 400.542969 L 579.746094 400.542969 L 579.746094 355.277344 " fill-opacity="1" fill-rule="nonzero"/><path fill="#fab85b" d="M 571.351562 364.773438 L 559.023438 364.773438 L 559.023438 377.113281 Z M 571.351562 364.773438 " fill-opacity="1" fill-rule="nonzero"/><path fill="#fab85b" d="M 556.496094 364.773438 L 542.6875 364.773438 L 542.6875 393.46875 L 556.496094 379.644531 L 556.496094 364.773438 " fill-opacity="1" fill-rule="nonzero"/><path fill="#fab85b" d="M 576.882812 322.648438 L 573.960938 331.980469 L 578.175781 331.980469 L 579.746094 327.667969 L 579.746094 321.84375 C 578.75 321.957031 577.796875 322.207031 576.886719 322.589844 C 576.882812 322.609375 576.886719 322.628906 576.882812 322.648438 " fill-opacity="1" fill-rule="nonzero"/><path fill="#fcd094" d="M 547.546875 271.023438 L 534.148438 284.4375 L 534.148438 303.816406 L 534.195312 303.765625 L 566.898438 271.023438 L 547.546875 271.023438 " fill-opacity="1" fill-rule="nonzero"/><path fill="#fcd094" d="M 579.695312 271.023438 L 574.269531 271.023438 L 534.195312 311.144531 L 534.148438 311.195312 L 534.148438 321.632812 L 534.195312 321.582031 L 579.695312 276.027344 L 579.695312 271.023438 " fill-opacity="1" fill-rule="nonzero"/><path fill="#fcd094" d="M 534.148438 345.773438 L 534.148438 353.617188 L 541.980469 345.773438 L 534.148438 345.773438 " fill-opacity="1" fill-rule="nonzero"/><path fill="#fcd094" d="M 534.195312 340.144531 L 534.148438 340.195312 L 534.148438 343.238281 L 544.507812 343.238281 L 549.78125 337.960938 L 536.382812 337.960938 L 534.195312 340.144531 " fill-opacity="1" fill-rule="nonzero"/><path fill="#fcd094" d="M 579.695312 308.007812 L 579.695312 294.59375 L 542.351562 331.980469 L 555.75 331.980469 L 579.695312 308.007812 " fill-opacity="1" fill-rule="nonzero"/><path fill="#fcd094" d="M 556.496094 393.0625 L 556.496094 379.644531 L 542.6875 393.46875 L 542.6875 400.191406 L 540.15625 400.191406 L 540.15625 396.003906 L 535.625 400.542969 L 549.023438 400.542969 L 556.496094 393.0625 " fill-opacity="1" fill-rule="nonzero"/><path fill="#fcd094" d="M 572.167969 364.773438 L 571.351562 364.773438 L 559.023438 377.113281 L 559.023438 390.527344 L 572.167969 377.371094 L 572.167969 364.773438 " fill-opacity="1" fill-rule="nonzero"/><path fill="#fcd094" d="M 574.902344 364.15625 C 574.851562 364.246094 574.769531 364.3125 574.699219 364.378906 L 574.699219 374.835938 L 579.695312 369.835938 L 579.695312 356.414062 L 578.570312 357.542969 C 576.484375 361.507812 574.914062 364.140625 574.902344 364.15625 " fill-opacity="1" fill-rule="nonzero"/><path fill="#ffffff" d="M 571.308594 331.980469 L 567.949219 331.980469 C 566.925781 333.84375 566.003906 335.867188 565.183594 337.960938 L 569.441406 337.960938 L 571.308594 331.980469 " fill-opacity="1" fill-rule="nonzero"/><path fill="#ffffff" d="M 572.09375 337.960938 L 576.011719 337.960938 L 578.175781 331.980469 L 573.960938 331.980469 L 572.09375 337.960938 " fill-opacity="1" fill-rule="nonzero"/><path fill="#351f17" d="M 303.570312 347.027344 C 302.09375 343.710938 300.703125 340.207031 299.6875 336.898438 C 298.671875 333.589844 298.039062 330.46875 298.046875 327.976562 C 298.042969 325.910156 298.476562 324.339844 299.28125 323.363281 C 299.53125 323.0625 299.835938 322.8125 300.179688 322.589844 L 314.5625 362.238281 L 311.363281 362.238281 C 311.296875 362.121094 311.222656 362 311.140625 361.851562 C 309.824219 359.570312 306.527344 353.667969 303.570312 347.027344 Z M 307.570312 322.605469 C 307.574219 322.617188 307.570312 322.632812 307.574219 322.648438 L 317.460938 354.25 L 317.613281 354.734375 L 319.960938 362.238281 L 317.253906 362.238281 L 302.585938 321.8125 C 302.878906 321.78125 303.183594 321.761719 303.515625 321.761719 C 304.964844 321.761719 306.300781 322.066406 307.570312 322.605469 Z M 316.96875 332.832031 C 317.140625 333.160156 317.296875 333.511719 317.460938 333.847656 C 320.316406 339.683594 322.277344 346.65625 323.519531 352.398438 C 323.558594 352.570312 323.601562 352.746094 323.636719 352.917969 C 324.289062 355.996094 324.742188 358.6875 325.03125 360.601562 C 325.125 361.238281 325.199219 361.785156 325.261719 362.238281 L 322.613281 362.238281 L 319.535156 352.398438 L 317.460938 345.777344 L 310.855469 324.664062 C 313.179688 326.625 315.238281 329.488281 316.96875 332.832031 Z M 325.429688 364.773438 L 325.429688 400.191406 L 327.960938 400.191406 L 327.960938 364.773438 L 341.769531 364.773438 L 341.769531 400.191406 L 344.296875 400.191406 L 344.296875 363.507812 C 344.296875 362.960938 343.949219 362.503906 343.464844 362.328125 C 343.328125 362.277344 343.1875 362.238281 343.03125 362.238281 L 327.8125 362.238281 C 327.585938 360.492188 327.054688 356.851562 326.109375 352.398438 C 325.410156 349.101562 324.480469 345.367188 323.269531 341.613281 C 321.789062 337.050781 319.898438 332.472656 317.460938 328.625 C 316.984375 327.875 316.496094 327.140625 315.976562 326.453125 C 314.386719 324.34375 312.578125 322.546875 310.503906 321.265625 C 308.433594 319.980469 306.082031 319.226562 303.515625 319.230469 C 302.15625 319.230469 300.953125 319.4375 299.90625 319.867188 C 298.332031 320.5 297.160156 321.671875 296.476562 323.097656 C 295.78125 324.523438 295.515625 326.179688 295.515625 327.976562 C 295.519531 331.289062 296.425781 335.144531 297.746094 339.128906 C 301.710938 351.046875 309.53125 364.113281 309.550781 364.15625 C 309.605469 364.246094 309.6875 364.3125 309.757812 364.382812 L 309.757812 400.191406 L 312.289062 400.191406 L 312.289062 364.773438 L 325.429688 364.773438 " fill-opacity="1" fill-rule="nonzero"/><path fill="#351f17" d="M 403.652344 340.410156 C 405.386719 335.46875 407.640625 330.710938 410.4375 327.277344 C 411.246094 326.28125 412.097656 325.417969 412.988281 324.664062 L 409.78125 334.921875 L 401.230469 362.238281 L 398.582031 362.238281 C 399.027344 358.894531 400.410156 350.003906 403.320312 341.386719 C 403.429688 341.058594 403.535156 340.730469 403.652344 340.410156 Z M 421.257812 321.8125 L 420.335938 324.351562 L 406.589844 362.238281 L 403.882812 362.238281 L 413.640625 331.054688 L 416.269531 322.648438 C 416.277344 322.628906 416.273438 322.609375 416.277344 322.589844 C 417.542969 322.054688 418.882812 321.761719 420.328125 321.761719 C 420.660156 321.761719 420.964844 321.78125 421.257812 321.8125 Z M 425.800781 327.976562 C 425.804688 330.820312 424.976562 334.492188 423.699219 338.324219 C 421.785156 344.085938 418.886719 350.238281 416.464844 354.933594 C 415.257812 357.28125 414.167969 359.265625 413.382812 360.660156 C 413.003906 361.335938 412.699219 361.867188 412.480469 362.238281 L 409.28125 362.238281 L 423.671875 322.570312 C 424.296875 322.96875 424.742188 323.5 425.09375 324.207031 C 425.554688 325.152344 425.800781 326.433594 425.800781 327.976562 Z M 414.085938 365.199219 L 414.085938 364.382812 C 414.15625 364.3125 414.238281 364.246094 414.292969 364.15625 C 414.300781 364.140625 416.277344 360.828125 418.746094 356.035156 C 419.554688 354.460938 420.417969 352.730469 421.277344 350.902344 C 423.027344 347.199219 424.773438 343.105469 426.097656 339.128906 C 427.417969 335.144531 428.324219 331.289062 428.328125 327.976562 C 428.324219 325.589844 427.855469 323.417969 426.523438 321.765625 C 425.992188 321.105469 425.285156 320.589844 424.5 320.183594 C 424.308594 320.082031 424.144531 319.949219 423.9375 319.867188 C 422.890625 319.4375 421.6875 319.230469 420.328125 319.230469 C 417.761719 319.226562 415.410156 319.980469 413.339844 321.265625 C 409.710938 323.519531 406.898438 327.308594 404.628906 331.664062 C 402.441406 335.882812 400.769531 340.664062 399.496094 345.214844 C 398.792969 347.71875 398.207031 350.160156 397.734375 352.386719 C 396.785156 356.851562 396.253906 360.492188 396.027344 362.238281 L 380.8125 362.238281 C 380.113281 362.238281 379.546875 362.804688 379.546875 363.507812 L 379.546875 400.191406 L 382.074219 400.191406 L 382.074219 364.773438 L 395.882812 364.773438 L 395.882812 400.191406 L 398.414062 400.191406 L 398.414062 364.773438 L 411.558594 364.773438 L 411.558594 400.191406 L 414.085938 400.191406 L 414.085938 365.199219 " fill-opacity="1" fill-rule="nonzero"/><path fill="#351f17" d="M 354.882812 345.773438 L 361.019531 345.773438 L 361.019531 400.191406 L 363.550781 400.191406 L 363.550781 345.773438 L 387.171875 345.773438 C 387.867188 345.773438 388.433594 345.203125 388.433594 344.507812 C 388.433594 343.804688 387.867188 343.238281 387.171875 343.238281 L 337.402344 343.238281 C 336.703125 343.238281 336.136719 343.804688 336.136719 344.507812 C 336.136719 345.203125 336.703125 345.773438 337.402344 345.773438 L 354.882812 345.773438 " fill-opacity="1" fill-rule="nonzero"/><path fill="#351f17" d="M 465.148438 349.144531 C 464.828125 348.445312 464.503906 347.746094 464.183594 347.027344 C 463.292969 345.027344 462.445312 342.960938 461.679688 340.910156 C 461.179688 339.5625 460.703125 338.210938 460.300781 336.898438 C 459.285156 333.589844 458.652344 330.46875 458.65625 327.976562 C 458.652344 325.910156 459.089844 324.339844 459.894531 323.363281 C 460.140625 323.0625 460.449219 322.8125 460.789062 322.589844 L 465.902344 336.683594 L 469.019531 345.269531 L 475.175781 362.238281 L 471.972656 362.238281 C 471.90625 362.121094 471.835938 362 471.75 361.851562 C 470.578125 359.816406 467.828125 354.898438 465.148438 349.144531 Z M 468.179688 322.605469 C 468.183594 322.617188 468.179688 322.632812 468.1875 322.648438 L 470.984375 331.597656 L 473.773438 340.507812 L 480.574219 362.238281 L 477.863281 362.238281 L 470.992188 343.292969 L 467.878906 334.707031 L 463.199219 321.8125 C 463.492188 321.78125 463.796875 321.761719 464.125 321.761719 C 465.574219 321.761719 466.914062 322.066406 468.179688 322.605469 Z M 474.574219 328.003906 C 475.65625 329.445312 476.667969 331.066406 477.582031 332.832031 C 478.019531 333.675781 478.433594 334.550781 478.832031 335.441406 C 481.363281 341.105469 483.117188 347.59375 484.246094 352.917969 C 484.902344 355.996094 485.355469 358.6875 485.640625 360.601562 C 485.738281 361.238281 485.8125 361.785156 485.875 362.238281 L 483.226562 362.238281 L 475.792969 338.488281 L 473.003906 329.574219 L 471.46875 324.664062 C 472.566406 325.589844 473.601562 326.71875 474.574219 328.003906 Z M 487.675781 357.339844 C 486.957031 353.195312 485.757812 347.425781 483.878906 341.613281 C 482.992188 338.871094 481.957031 336.121094 480.746094 333.527344 C 479.542969 330.960938 478.167969 328.550781 476.585938 326.453125 C 476.519531 326.363281 476.449219 326.285156 476.378906 326.195312 C 474.835938 324.203125 473.101562 322.492188 471.117188 321.265625 C 469.046875 319.980469 466.691406 319.226562 464.125 319.230469 C 462.765625 319.230469 461.5625 319.4375 460.515625 319.867188 C 458.941406 320.5 457.773438 321.671875 457.085938 323.097656 C 456.394531 324.523438 456.128906 326.179688 456.125 327.976562 C 456.132812 331.289062 457.035156 335.144531 458.355469 339.128906 C 458.769531 340.367188 459.234375 341.625 459.71875 342.878906 C 460.800781 345.679688 462.023438 348.457031 463.25 351.046875 C 466.71875 358.382812 470.148438 364.128906 470.164062 364.15625 C 470.21875 364.246094 470.296875 364.3125 470.371094 364.382812 L 470.371094 400.191406 L 472.898438 400.191406 L 472.898438 364.773438 L 486.042969 364.773438 L 486.042969 400.191406 L 488.570312 400.191406 L 488.570312 364.773438 L 502.378906 364.773438 L 502.378906 400.191406 L 504.910156 400.191406 L 504.910156 363.507812 C 504.910156 362.804688 504.34375 362.238281 503.644531 362.238281 L 488.425781 362.238281 C 488.292969 361.199219 488.046875 359.488281 487.675781 357.339844 " fill-opacity="1" fill-rule="nonzero"/><path fill="#351f17" d="M 585.714844 333.304688 C 585.355469 334.910156 584.886719 336.59375 584.3125 338.324219 C 583.070312 342.058594 581.414062 345.953125 579.746094 349.511719 C 578.839844 351.445312 577.929688 353.28125 577.078125 354.933594 C 575.871094 357.28125 574.777344 359.265625 573.992188 360.660156 C 573.613281 361.335938 573.3125 361.867188 573.09375 362.238281 L 569.894531 362.238281 L 578.703125 337.960938 L 584.285156 322.570312 C 584.914062 322.96875 585.355469 323.5 585.707031 324.207031 C 585.707031 324.214844 585.707031 324.21875 585.714844 324.226562 C 586.171875 325.164062 586.410156 326.441406 586.410156 327.976562 C 586.410156 329.539062 586.148438 331.355469 585.714844 333.304688 Z M 567.949219 331.980469 C 568.898438 330.253906 569.929688 328.652344 571.050781 327.277344 C 571.855469 326.28125 572.710938 325.417969 573.597656 324.664062 L 571.308594 331.980469 L 569.441406 337.960938 L 561.84375 362.238281 L 559.191406 362.238281 C 559.660156 358.765625 561.125 349.320312 564.261719 340.410156 C 564.554688 339.582031 564.863281 338.769531 565.183594 337.960938 C 566.003906 335.867188 566.925781 333.84375 567.949219 331.980469 Z M 580.9375 321.761719 C 581.273438 321.761719 581.578125 321.78125 581.867188 321.8125 L 579.746094 327.667969 L 578.175781 331.980469 L 576.011719 337.960938 L 567.203125 362.238281 L 564.496094 362.238281 L 572.09375 337.960938 L 573.960938 331.980469 L 576.882812 322.648438 C 576.886719 322.628906 576.882812 322.609375 576.886719 322.589844 C 577.796875 322.207031 578.75 321.957031 579.746094 321.84375 C 580.136719 321.800781 580.53125 321.761719 580.9375 321.761719 Z M 585.714844 320.515625 C 585.347656 320.273438 584.972656 320.039062 584.550781 319.867188 C 583.503906 319.4375 582.300781 319.230469 580.9375 319.230469 C 580.53125 319.230469 580.140625 319.28125 579.746094 319.316406 C 577.644531 319.511719 575.691406 320.183594 573.949219 321.265625 C 570.324219 323.519531 567.511719 327.308594 565.242188 331.664062 C 565.1875 331.769531 565.140625 331.878906 565.085938 331.980469 C 564.117188 333.886719 563.253906 335.90625 562.476562 337.960938 C 560.617188 342.886719 559.273438 348.023438 558.34375 352.386719 C 557.394531 356.851562 556.867188 360.492188 556.640625 362.238281 L 541.425781 362.238281 C 540.722656 362.238281 540.15625 362.804688 540.15625 363.507812 L 540.15625 400.191406 L 542.6875 400.191406 L 542.6875 364.773438 L 556.496094 364.773438 L 556.496094 400.191406 L 559.023438 400.191406 L 559.023438 364.773438 L 572.167969 364.773438 L 572.167969 400.191406 L 574.699219 400.191406 L 574.699219 364.378906 C 574.769531 364.3125 574.851562 364.246094 574.902344 364.15625 C 574.914062 364.140625 576.484375 361.507812 578.570312 357.542969 C 578.949219 356.828125 579.339844 356.070312 579.746094 355.277344 C 580.4375 353.910156 581.164062 352.445312 581.890625 350.902344 C 583.230469 348.066406 584.5625 345 585.714844 341.933594 C 586.066406 340.996094 586.402344 340.058594 586.710938 339.128906 C 588.03125 335.144531 588.933594 331.289062 588.9375 327.976562 C 588.9375 326.261719 588.679688 324.667969 588.050781 323.292969 C 587.804688 322.75 587.511719 322.234375 587.136719 321.765625 C 586.742188 321.28125 586.25 320.875 585.714844 320.515625 " fill-opacity="1" fill-rule="nonzero"/><path fill="#351f17" d="M 541.980469 345.773438 L 547.78125 345.773438 C 548.480469 345.773438 549.046875 345.203125 549.046875 344.507812 C 549.046875 343.804688 548.480469 343.238281 547.78125 343.238281 L 498.015625 343.238281 C 497.316406 343.238281 496.75 343.804688 496.75 344.507812 C 496.75 345.203125 497.316406 345.773438 498.015625 345.773438 L 521.636719 345.773438 L 521.636719 400.191406 L 524.164062 400.191406 L 524.164062 345.773438 L 541.980469 345.773438 " fill-opacity="1" fill-rule="nonzero"/><path fill="#351f17" d="M 628.792969 322.605469 C 628.796875 322.617188 628.792969 322.632812 628.800781 322.648438 L 641.1875 362.238281 L 638.480469 362.238281 L 626.023438 327.910156 L 623.8125 321.8125 C 624.101562 321.78125 624.40625 321.761719 624.738281 321.761719 C 625.175781 321.761719 625.601562 321.800781 626.023438 321.855469 C 626.988281 321.976562 627.910156 322.230469 628.792969 322.605469 Z M 638.195312 332.832031 C 641.410156 339.023438 643.554688 346.757812 644.863281 352.917969 C 645.515625 355.996094 645.96875 358.6875 646.253906 360.601562 C 646.347656 361.238281 646.425781 361.785156 646.488281 362.238281 L 643.835938 362.238281 L 632.078125 324.664062 C 634.40625 326.625 636.460938 329.488281 638.195312 332.832031 Z M 626.023438 349.703125 C 625.609375 348.832031 625.199219 347.9375 624.796875 347.027344 C 623.316406 343.710938 621.925781 340.207031 620.910156 336.898438 C 619.894531 333.589844 619.265625 330.46875 619.269531 327.976562 C 619.265625 325.910156 619.703125 324.339844 620.503906 323.363281 C 620.753906 323.0625 621.0625 322.8125 621.40625 322.589844 L 626.023438 335.328125 L 635.785156 362.238281 L 632.589844 362.238281 C 632.519531 362.121094 632.449219 362 632.363281 361.851562 C 631.230469 359.882812 628.617188 355.210938 626.023438 349.703125 Z M 621.128906 319.867188 C 619.554688 320.5 618.382812 321.671875 617.699219 323.097656 C 617.003906 324.523438 616.742188 326.179688 616.738281 327.976562 C 616.746094 331.289062 617.648438 335.144531 618.96875 339.128906 C 620.863281 344.824219 623.636719 350.773438 626.023438 355.449219 C 628.628906 360.550781 630.765625 364.136719 630.777344 364.15625 C 630.832031 364.246094 630.910156 364.3125 630.980469 364.382812 L 630.980469 400.191406 L 633.511719 400.191406 L 633.511719 364.773438 L 646.65625 364.773438 L 646.65625 400.191406 L 649.1875 400.191406 L 649.1875 364.773438 L 662.992188 364.773438 L 662.992188 400.191406 L 665.523438 400.191406 L 665.523438 363.507812 C 665.523438 362.804688 664.957031 362.238281 664.257812 362.238281 L 649.035156 362.238281 C 648.640625 359.195312 647.34375 350.4375 644.492188 341.613281 C 642.726562 336.15625 640.378906 330.671875 637.199219 326.453125 C 635.609375 324.34375 633.800781 322.546875 631.730469 321.265625 C 630.011719 320.199219 628.089844 319.53125 626.023438 319.324219 C 625.597656 319.28125 625.175781 319.230469 624.738281 319.230469 C 623.378906 319.230469 622.175781 319.4375 621.128906 319.867188 " fill-opacity="1" fill-rule="nonzero"/><path fill="#351f17" d="M 731.660156 327.277344 C 732.46875 326.28125 733.320312 325.414062 734.210938 324.667969 L 722.453125 362.238281 L 719.808594 362.238281 C 720.269531 358.765625 721.734375 349.320312 724.875 340.40625 C 726.613281 335.46875 728.867188 330.710938 731.660156 327.277344 Z M 742.484375 321.8125 L 727.820312 362.238281 L 725.105469 362.238281 L 737.492188 322.648438 C 737.503906 322.628906 737.496094 322.609375 737.503906 322.589844 C 738.769531 322.054688 740.105469 321.761719 741.550781 321.761719 C 741.886719 321.761719 742.191406 321.78125 742.484375 321.8125 Z M 746.316406 324.207031 C 746.78125 325.152344 747.023438 326.433594 747.019531 327.976562 C 747.027344 330.820312 746.203125 334.492188 744.921875 338.324219 C 743.007812 344.085938 740.109375 350.238281 737.6875 354.933594 C 736.480469 357.28125 735.390625 359.265625 734.605469 360.660156 C 734.226562 361.335938 733.921875 361.867188 733.707031 362.238281 L 730.507812 362.238281 L 744.898438 322.570312 C 745.527344 322.96875 745.96875 323.5 746.316406 324.207031 Z M 700.773438 371.542969 L 700.773438 400.191406 L 703.300781 400.191406 L 703.300781 364.773438 L 717.109375 364.773438 L 717.109375 400.191406 L 719.640625 400.191406 L 719.640625 364.773438 L 732.78125 364.773438 L 732.78125 400.191406 L 735.3125 400.191406 L 735.3125 364.378906 C 735.382812 364.3125 735.460938 364.246094 735.515625 364.15625 C 735.527344 364.136719 739.007812 358.304688 742.503906 350.902344 C 744.25 347.199219 746 343.105469 747.324219 339.128906 C 748.644531 335.144531 749.546875 331.289062 749.550781 327.976562 C 749.546875 325.589844 749.078125 323.417969 747.746094 321.765625 C 747.085938 320.949219 746.207031 320.292969 745.164062 319.867188 C 744.121094 319.4375 742.914062 319.230469 741.550781 319.230469 C 738.984375 319.226562 736.632812 319.980469 734.5625 321.265625 C 730.9375 323.519531 728.121094 327.308594 725.851562 331.664062 C 722.460938 338.203125 720.296875 346.101562 718.957031 352.386719 C 718.007812 356.851562 717.480469 360.492188 717.253906 362.238281 L 702.039062 362.238281 C 701.589844 362.238281 701.21875 362.484375 700.996094 362.832031 C 700.863281 363.027344 700.773438 363.253906 700.773438 363.507812 L 700.773438 371.542969 " fill-opacity="1" fill-rule="nonzero"/><path fill="#351f17" d="M 682.246094 345.773438 L 682.246094 400.191406 L 684.773438 400.191406 L 684.773438 345.773438 L 708.394531 345.773438 C 709.09375 345.773438 709.660156 345.203125 709.660156 344.507812 C 709.660156 343.804688 709.09375 343.238281 708.394531 343.238281 L 658.625 343.238281 C 657.929688 343.238281 657.363281 343.804688 657.363281 344.507812 C 657.363281 345.203125 657.929688 345.773438 658.625 345.773438 L 682.246094 345.773438 " fill-opacity="1" fill-rule="nonzero"/><path fill="#e9e9e9" d="M 409.957031 265.542969 L 433.722656 265.542969 L 431.65625 221.136719 L 411.472656 221.136719 L 409.957031 265.542969 " fill-opacity="1" fill-rule="nonzero"/><path fill="#f57a94" d="M 362.425781 265.542969 L 365.910156 221.136719 L 343.464844 221.136719 L 341.585938 238.507812 L 340.210938 251.214844 L 338.664062 265.542969 L 362.425781 265.542969 " fill-opacity="1" fill-rule="nonzero"/><path fill="#e9e9e9" d="M 362.425781 265.542969 L 386.191406 265.542969 L 389.675781 221.136719 L 365.910156 221.136719 L 362.425781 265.542969 " fill-opacity="1" fill-rule="nonzero"/><path fill="#f57a94" d="M 386.191406 265.542969 L 409.957031 265.542969 L 411.472656 221.136719 L 389.675781 221.136719 L 386.191406 265.542969 " fill-opacity="1" fill-rule="nonzero"/><path fill="#f57a94" d="M 481.253906 265.542969 L 505.019531 265.542969 L 500.351562 221.136719 L 477.773438 221.136719 L 481.253906 265.542969 " fill-opacity="1" fill-rule="nonzero"/><path fill="#e9e9e9" d="M 457.488281 265.542969 L 481.253906 265.542969 L 477.773438 221.136719 L 454.007812 221.136719 L 457.488281 265.542969 " fill-opacity="1" fill-rule="nonzero"/><path fill="#f57a94" d="M 433.722656 265.542969 L 457.488281 265.542969 L 454.007812 221.136719 L 431.65625 221.136719 L 433.722656 265.542969 " fill-opacity="1" fill-rule="nonzero"/><path fill="#d66481" d="M 350.15625 299.640625 L 351.078125 299.640625 C 357.347656 299.640625 362.425781 294.554688 362.425781 288.28125 L 362.425781 265.542969 L 338.664062 265.542969 L 338.664062 288.28125 C 338.664062 292.109375 340.5625 295.488281 343.464844 297.546875 C 345.316406 298.863281 347.570312 299.640625 350.011719 299.640625 L 350.15625 299.640625 " fill-opacity="1" fill-rule="nonzero"/><path fill="#d3d2d2" d="M 371.519531 299.417969 C 372.25 299.5625 373.003906 299.640625 373.777344 299.640625 L 374.84375 299.640625 C 381.113281 299.640625 386.191406 294.554688 386.191406 288.28125 L 386.191406 265.542969 L 362.425781 265.542969 L 362.425781 288.28125 C 362.425781 290.695312 363.1875 292.933594 364.472656 294.773438 C 366.113281 297.125 368.613281 298.828125 371.519531 299.417969 " fill-opacity="1" fill-rule="nonzero"/><path fill="#d66481" d="M 386.191406 288.28125 C 386.191406 292.203125 388.179688 295.664062 391.203125 297.703125 C 393.015625 298.925781 395.195312 299.640625 397.542969 299.640625 L 398.609375 299.640625 C 399.535156 299.640625 400.433594 299.519531 401.292969 299.308594 C 405.402344 298.308594 408.628906 295.082031 409.625 290.964844 C 409.835938 290.105469 409.957031 289.207031 409.957031 288.28125 L 409.957031 265.542969 L 386.191406 265.542969 L 386.191406 288.28125 " fill-opacity="1" fill-rule="nonzero"/><path fill="#d3d2d2" d="M 409.957031 288.28125 C 409.957031 289.015625 410.035156 289.726562 410.167969 290.421875 C 411.167969 295.671875 415.773438 299.640625 421.308594 299.640625 L 422.375 299.640625 C 428.644531 299.640625 433.722656 294.554688 433.722656 288.28125 L 433.722656 265.542969 L 409.957031 265.542969 L 409.957031 288.28125 " fill-opacity="1" fill-rule="nonzero"/><path fill="#d66481" d="M 433.722656 288.28125 C 433.722656 294.535156 438.777344 299.609375 445.019531 299.636719 C 445.035156 299.636719 445.054688 299.640625 445.074219 299.640625 L 446.140625 299.640625 C 452.40625 299.640625 457.488281 294.554688 457.488281 288.28125 L 457.488281 265.542969 L 433.722656 265.542969 L 433.722656 288.28125 " fill-opacity="1" fill-rule="nonzero"/><path fill="#d3d2d2" d="M 457.488281 288.28125 C 457.488281 294.554688 462.570312 299.640625 468.835938 299.640625 L 469.90625 299.640625 C 476.171875 299.640625 481.253906 294.554688 481.253906 288.28125 L 481.253906 265.542969 L 457.488281 265.542969 L 457.488281 288.28125 " fill-opacity="1" fill-rule="nonzero"/><path fill="#d66481" d="M 481.253906 265.542969 L 481.253906 288.28125 C 481.253906 289.804688 481.558594 291.261719 482.105469 292.59375 C 483.171875 295.1875 485.167969 297.289062 487.675781 298.503906 C 489.167969 299.226562 490.835938 299.640625 492.601562 299.640625 L 493.667969 299.640625 C 493.90625 299.640625 494.136719 299.621094 494.371094 299.605469 C 495.289062 299.550781 496.179688 299.398438 497.03125 299.132812 C 501.65625 297.699219 505.019531 293.382812 505.019531 288.28125 L 505.019531 265.542969 L 481.253906 265.542969 " fill-opacity="1" fill-rule="nonzero"/><g clip-path="url(#23219ec921)"><path fill="#972425" d="M 365.910156 195.851562 L 365.910156 176.675781 L 581.050781 176.675781 L 581.050781 195.851562 Z M 319.554688 146.65625 C 319.554688 136.75 327.605469 128.691406 337.5 128.691406 L 602.980469 128.691406 C 612.871094 128.691406 620.921875 136.75 620.921875 146.65625 C 620.921875 156.5625 612.871094 164.621094 602.980469 164.621094 L 337.5 164.621094 C 327.605469 164.621094 319.554688 156.5625 319.554688 146.65625 Z M 633.125 208.859375 L 633.125 195.851562 L 593.332031 195.851562 L 593.332031 176.675781 L 602.976562 176.675781 C 619.539062 176.675781 632.960938 163.234375 632.960938 146.65625 C 632.960938 130.078125 619.539062 116.640625 602.976562 116.640625 L 337.5 116.640625 C 320.9375 116.640625 307.515625 130.078125 307.515625 146.65625 C 307.515625 163.234375 320.9375 176.675781 337.5 176.675781 L 353.625 176.675781 L 353.625 195.851562 L 309.449219 195.851562 L 309.449219 208.859375 L 633.125 208.859375 " fill-opacity="1" fill-rule="nonzero"/></g><path fill="#845333" d="M 751.304688 400.542969 L 268.855469 400.542969 L 268.855469 412.65625 L 751.304688 412.65625 L 751.304688 400.542969 " fill-opacity="1" fill-rule="nonzero"/><g clip-path="url(#042b946411)"><path fill="#6f4323" d="M 751.300781 412.660156 L 256.339844 412.660156 L 256.339844 425.5 L 767.542969 425.5 L 767.542969 412.660156 L 751.300781 412.660156 " fill-opacity="1" fill-rule="nonzero"/></g><path fill="#cd4b39" d="M 454.5625 150.925781 L 458.3125 150.925781 L 456.4375 138.382812 Z M 454.5625 150.925781 " fill-opacity="1" fill-rule="nonzero"/><path fill="#cd4b39" d="M 506.347656 137.53125 L 504.46875 137.53125 L 504.46875 145.152344 L 505.992188 145.152344 C 507.441406 145.152344 508.328125 144.515625 508.328125 142.53125 L 508.328125 140.085938 C 508.328125 138.3125 507.722656 137.53125 506.347656 137.53125 " fill-opacity="1" fill-rule="nonzero"/><path fill="#cd4b39" d="M 362.390625 137.53125 L 360.515625 137.53125 L 360.515625 145.152344 L 362.035156 145.152344 C 363.488281 145.152344 364.375 144.515625 364.375 142.53125 L 364.375 140.085938 C 364.375 138.3125 363.769531 137.53125 362.390625 137.53125 " fill-opacity="1" fill-rule="nonzero"/><path fill="#cd4b39" d="M 529.140625 150.925781 L 532.894531 150.925781 L 531.019531 138.382812 Z M 529.140625 150.925781 " fill-opacity="1" fill-rule="nonzero"/><path fill="#cd4b39" d="M 587.082031 137.53125 L 583.015625 137.53125 L 583.015625 158.792969 L 579.121094 158.792969 L 579.121094 137.53125 L 575.050781 137.53125 L 575.050781 133.992188 L 587.082031 133.992188 Z M 562.765625 158.792969 L 558.769531 158.792969 L 553.917969 140.828125 L 553.917969 158.792969 L 550.414062 158.792969 L 550.414062 133.992188 L 555.300781 133.992188 L 559.296875 148.835938 L 559.296875 133.992188 L 562.765625 133.992188 Z M 534.097656 158.792969 L 533.425781 154.289062 L 528.648438 154.289062 L 527.972656 158.792969 L 524.402344 158.792969 L 528.363281 133.992188 L 534.058594 133.992188 L 538.023438 158.792969 Z M 508.71875 158.792969 C 508.507812 158.152344 508.363281 157.765625 508.363281 155.742188 L 508.363281 151.847656 C 508.363281 149.546875 507.585938 148.691406 505.816406 148.691406 L 504.46875 148.691406 L 504.46875 158.792969 L 500.578125 158.792969 L 500.578125 133.992188 L 506.453125 133.992188 C 510.488281 133.992188 512.21875 135.871094 512.21875 139.695312 L 512.21875 141.644531 C 512.21875 144.195312 511.40625 145.859375 509.675781 146.675781 C 511.621094 147.488281 512.257812 149.367188 512.257812 151.953125 L 512.257812 155.78125 C 512.257812 156.984375 512.292969 157.871094 512.679688 158.792969 Z M 487.304688 152.878906 C 487.304688 156.84375 485.320312 159.113281 481.5 159.113281 C 477.675781 159.113281 475.695312 156.84375 475.695312 152.878906 L 475.695312 133.992188 L 479.589844 133.992188 L 479.589844 153.125 C 479.589844 154.894531 480.367188 155.53125 481.605469 155.53125 C 482.84375 155.53125 483.621094 154.894531 483.621094 153.125 L 483.621094 133.992188 L 487.304688 133.992188 Z M 459.515625 158.792969 L 458.84375 154.289062 L 454.066406 154.289062 L 453.394531 158.792969 L 449.820312 158.792969 L 453.785156 133.992188 L 459.480469 133.992188 L 463.445312 158.792969 Z M 439.871094 137.53125 L 435.800781 137.53125 L 435.800781 158.792969 L 431.910156 158.792969 L 431.910156 137.53125 L 427.839844 137.53125 L 427.839844 133.992188 L 439.871094 133.992188 Z M 410.316406 159.074219 C 406.496094 159.074219 404.511719 156.804688 404.511719 152.839844 L 404.511719 151.316406 L 408.195312 151.316406 L 408.195312 153.089844 C 408.195312 154.859375 408.972656 155.5 410.210938 155.5 C 411.449219 155.5 412.226562 154.859375 412.226562 153.089844 C 412.226562 147.984375 404.621094 147.03125 404.621094 139.941406 C 404.621094 135.972656 406.566406 133.707031 410.351562 133.707031 C 414.140625 133.707031 416.085938 135.972656 416.085938 139.941406 L 416.085938 140.722656 L 412.40625 140.722656 L 412.40625 139.695312 C 412.40625 137.925781 411.699219 137.25 410.460938 137.25 C 409.21875 137.25 408.511719 137.925781 408.511719 139.695312 C 408.511719 144.796875 416.121094 145.753906 416.121094 152.839844 C 416.121094 156.804688 414.140625 159.074219 410.316406 159.074219 Z M 392.085938 137.53125 L 385.363281 137.53125 L 385.363281 144.441406 L 390.707031 144.441406 L 390.707031 147.984375 L 385.363281 147.984375 L 385.363281 155.25 L 392.085938 155.25 L 392.085938 158.792969 L 381.472656 158.792969 L 381.472656 133.992188 L 392.085938 133.992188 Z M 364.761719 158.792969 C 364.550781 158.152344 364.410156 157.765625 364.410156 155.742188 L 364.410156 151.847656 C 364.410156 149.546875 363.628906 148.691406 361.859375 148.691406 L 360.515625 148.691406 L 360.515625 158.792969 L 356.625 158.792969 L 356.625 133.992188 L 362.5 133.992188 C 366.53125 133.992188 368.265625 135.871094 368.265625 139.695312 L 368.265625 141.644531 C 368.265625 144.195312 367.453125 145.859375 365.71875 146.675781 C 367.664062 147.488281 368.300781 149.367188 368.300781 151.953125 L 368.300781 155.78125 C 368.300781 156.984375 368.335938 157.871094 368.726562 158.792969 Z M 620.921875 146.65625 C 620.921875 136.75 612.871094 128.691406 602.980469 128.691406 L 337.5 128.691406 C 327.605469 128.691406 319.554688 136.75 319.554688 146.65625 C 319.554688 156.5625 327.605469 164.621094 337.5 164.621094 L 602.980469 164.621094 C 612.871094 164.621094 620.921875 156.5625 620.921875 146.65625 " fill-opacity="1" fill-rule="nonzero"/><path fill="#ffffff" d="M 364.375 142.53125 C 364.375 144.515625 363.488281 145.152344 362.035156 145.152344 L 360.515625 145.152344 L 360.515625 137.53125 L 362.390625 137.53125 C 363.769531 137.53125 364.375 138.3125 364.375 140.085938 Z M 368.300781 151.953125 C 368.300781 149.367188 367.664062 147.488281 365.71875 146.675781 C 367.453125 145.859375 368.265625 144.195312 368.265625 141.644531 L 368.265625 139.695312 C 368.265625 135.871094 366.53125 133.992188 362.5 133.992188 L 356.625 133.992188 L 356.625 158.792969 L 360.515625 158.792969 L 360.515625 148.691406 L 361.859375 148.691406 C 363.628906 148.691406 364.410156 149.546875 364.410156 151.847656 L 364.410156 155.742188 C 364.410156 157.765625 364.550781 158.152344 364.761719 158.792969 L 368.726562 158.792969 C 368.335938 157.871094 368.300781 156.984375 368.300781 155.78125 L 368.300781 151.953125 " fill-opacity="1" fill-rule="nonzero"/><path fill="#ffffff" d="M 381.472656 158.792969 L 392.085938 158.792969 L 392.085938 155.25 L 385.363281 155.25 L 385.363281 147.984375 L 390.707031 147.984375 L 390.707031 144.441406 L 385.363281 144.441406 L 385.363281 137.53125 L 392.085938 137.53125 L 392.085938 133.992188 L 381.472656 133.992188 L 381.472656 158.792969 " fill-opacity="1" fill-rule="nonzero"/><path fill="#ffffff" d="M 408.511719 139.695312 C 408.511719 137.925781 409.21875 137.25 410.460938 137.25 C 411.699219 137.25 412.40625 137.925781 412.40625 139.695312 L 412.40625 140.722656 L 416.085938 140.722656 L 416.085938 139.941406 C 416.085938 135.972656 414.140625 133.707031 410.351562 133.707031 C 406.566406 133.707031 404.621094 135.972656 404.621094 139.941406 C 404.621094 147.03125 412.226562 147.984375 412.226562 153.089844 C 412.226562 154.859375 411.449219 155.5 410.210938 155.5 C 408.972656 155.5 408.195312 154.859375 408.195312 153.089844 L 408.195312 151.316406 L 404.511719 151.316406 L 404.511719 152.839844 C 404.511719 156.804688 406.496094 159.074219 410.316406 159.074219 C 414.140625 159.074219 416.121094 156.804688 416.121094 152.839844 C 416.121094 145.753906 408.511719 144.796875 408.511719 139.695312 " fill-opacity="1" fill-rule="nonzero"/><path fill="#ffffff" d="M 427.839844 137.53125 L 431.910156 137.53125 L 431.910156 158.792969 L 435.800781 158.792969 L 435.800781 137.53125 L 439.871094 137.53125 L 439.871094 133.992188 L 427.839844 133.992188 L 427.839844 137.53125 " fill-opacity="1" fill-rule="nonzero"/><path fill="#ffffff" d="M 454.5625 150.925781 L 456.4375 138.382812 L 458.3125 150.925781 Z M 453.785156 133.992188 L 449.820312 158.792969 L 453.394531 158.792969 L 454.066406 154.289062 L 458.84375 154.289062 L 459.515625 158.792969 L 463.445312 158.792969 L 459.480469 133.992188 L 453.785156 133.992188 " fill-opacity="1" fill-rule="nonzero"/><path fill="#ffffff" d="M 483.621094 153.125 C 483.621094 154.894531 482.84375 155.53125 481.605469 155.53125 C 480.367188 155.53125 479.589844 154.894531 479.589844 153.125 L 479.589844 133.992188 L 475.695312 133.992188 L 475.695312 152.878906 C 475.695312 156.84375 477.675781 159.113281 481.5 159.113281 C 485.320312 159.113281 487.304688 156.84375 487.304688 152.878906 L 487.304688 133.992188 L 483.621094 133.992188 L 483.621094 153.125 " fill-opacity="1" fill-rule="nonzero"/><path fill="#ffffff" d="M 508.328125 142.53125 C 508.328125 144.515625 507.441406 145.152344 505.992188 145.152344 L 504.46875 145.152344 L 504.46875 137.53125 L 506.347656 137.53125 C 507.722656 137.53125 508.328125 138.3125 508.328125 140.085938 Z M 512.257812 151.953125 C 512.257812 149.367188 511.621094 147.488281 509.675781 146.675781 C 511.40625 145.859375 512.21875 144.195312 512.21875 141.644531 L 512.21875 139.695312 C 512.21875 135.871094 510.488281 133.992188 506.453125 133.992188 L 500.578125 133.992188 L 500.578125 158.792969 L 504.46875 158.792969 L 504.46875 148.691406 L 505.816406 148.691406 C 507.585938 148.691406 508.363281 149.546875 508.363281 151.847656 L 508.363281 155.742188 C 508.363281 157.765625 508.507812 158.152344 508.71875 158.792969 L 512.679688 158.792969 C 512.292969 157.871094 512.257812 156.984375 512.257812 155.78125 L 512.257812 151.953125 " fill-opacity="1" fill-rule="nonzero"/><path fill="#ffffff" d="M 529.140625 150.925781 L 531.019531 138.382812 L 532.894531 150.925781 Z M 528.363281 133.992188 L 524.402344 158.792969 L 527.972656 158.792969 L 528.648438 154.289062 L 533.425781 154.289062 L 534.097656 158.792969 L 538.023438 158.792969 L 534.058594 133.992188 L 528.363281 133.992188 " fill-opacity="1" fill-rule="nonzero"/><path fill="#ffffff" d="M 559.296875 148.835938 L 555.300781 133.992188 L 550.414062 133.992188 L 550.414062 158.792969 L 553.917969 158.792969 L 553.917969 140.828125 L 558.769531 158.792969 L 562.765625 158.792969 L 562.765625 133.992188 L 559.296875 133.992188 L 559.296875 148.835938 " fill-opacity="1" fill-rule="nonzero"/><path fill="#ffffff" d="M 575.050781 137.53125 L 579.121094 137.53125 L 579.121094 158.792969 L 583.015625 158.792969 L 583.015625 137.53125 L 587.082031 137.53125 L 587.082031 133.992188 L 575.050781 133.992188 L 575.050781 137.53125 " fill-opacity="1" fill-rule="nonzero"/></svg>