<svg xmlns="http://www.w3.org/2000/svg" xmlns:xlink="http://www.w3.org/1999/xlink" width="1366" zoomAndPan="magnify" viewBox="0 0 1024.5 576" height="768" preserveAspectRatio="xMidYMid meet" version="1.0"><defs><clipPath id="cf98b39c08"><path d="M 0 0.140625 L 1024 0.140625 L 1024 575.859375 L 0 575.859375 Z M 0 0.140625 " clip-rule="nonzero"/></clipPath><clipPath id="20180bb70b"><path d="M 710 402 L 753 402 L 753 416.300781 L 710 416.300781 Z M 710 402 " clip-rule="nonzero"/></clipPath><clipPath id="058165db7e"><path d="M 679 358 L 703 358 L 703 416.300781 L 679 416.300781 Z M 679 358 " clip-rule="nonzero"/></clipPath><clipPath id="ef49fd7c0d"><path d="M 759 395 L 798 395 L 798 416.300781 L 759 416.300781 Z M 759 395 " clip-rule="nonzero"/></clipPath><clipPath id="9a502720e9"><path d="M 259.828125 365 L 355 365 L 355 416.300781 L 259.828125 416.300781 Z M 259.828125 365 " clip-rule="nonzero"/></clipPath><clipPath id="322095d8f5"><path d="M 399 88.710938 L 638 88.710938 L 638 164 L 399 164 Z M 399 88.710938 " clip-rule="nonzero"/></clipPath><clipPath id="248b69552d"><path d="M 345 408 L 691 408 L 691 416.300781 L 345 416.300781 Z M 345 408 " clip-rule="nonzero"/></clipPath><clipPath id="c68fe0a6a3"><path d="M 702 313 L 760 313 L 760 416.300781 L 702 416.300781 Z M 702 313 " clip-rule="nonzero"/></clipPath></defs><g clip-path="url(#cf98b39c08)"><path fill="#ffffff" d="M 0 0.140625 L 1024 0.140625 L 1024 575.859375 L 0 575.859375 Z M 0 0.140625 " fill-opacity="1" fill-rule="nonzero"/><path fill="#ffffff" d="M 0 0.140625 L 1024 0.140625 L 1024 575.859375 L 0 575.859375 Z M 0 0.140625 " fill-opacity="1" fill-rule="nonzero"/></g><g clip-path="url(#20180bb70b)"><path fill="#cce310" d="M 710.066406 402.6875 L 710.066406 416.277344 L 752.207031 416.277344 L 752.207031 402.6875 L 710.066406 402.6875 " fill-opacity="1" fill-rule="nonzero"/></g><g clip-path="url(#058165db7e)"><path fill="#cce310" d="M 702.867188 365.519531 C 697.046875 364.503906 690.46875 363.894531 682.96875 363.894531 C 682.96875 363.894531 682.214844 361.585938 679.84375 358.308594 L 679.84375 405.175781 L 679.714844 405.175781 L 679.714844 408.035156 L 690.664062 408.035156 L 690.664062 416.277344 L 702.867188 416.277344 L 702.867188 365.519531 " fill-opacity="1" fill-rule="nonzero"/></g><g clip-path="url(#ef49fd7c0d)"><path fill="#cce310" d="M 759.398438 395.839844 L 759.398438 416.277344 L 797.921875 416.277344 C 797.921875 416.277344 797.234375 399.320312 759.398438 395.839844 " fill-opacity="1" fill-rule="nonzero"/></g><g clip-path="url(#9a502720e9)"><path fill="#cce310" d="M 354.402344 408.035156 L 354.402344 400.257812 L 354.417969 400.257812 L 354.417969 365.625 C 318.375 372.167969 312.941406 395.207031 312.941406 395.207031 C 260.765625 395.207031 259.949219 416.277344 259.949219 416.277344 L 345.964844 416.277344 L 345.964844 408.035156 L 354.402344 408.035156 " fill-opacity="1" fill-rule="nonzero"/></g><g clip-path="url(#322095d8f5)"><path fill="#6f4323" d="M 425.714844 134.386719 C 415.929688 134.386719 407.964844 125.636719 407.964844 114.890625 C 407.964844 104.140625 415.929688 95.394531 425.714844 95.394531 L 611.691406 95.394531 C 621.476562 95.394531 629.441406 104.140625 629.441406 114.890625 C 629.441406 125.636719 621.476562 134.386719 611.691406 134.386719 Z M 449.125 141.292969 L 587.925781 141.292969 L 587.925781 163.773438 L 595.628906 163.773438 L 595.628906 141.292969 L 611.691406 141.292969 C 626.210938 141.292969 637.988281 129.515625 637.988281 114.996094 C 637.988281 100.476562 626.210938 88.703125 611.691406 88.703125 L 425.714844 88.703125 C 411.191406 88.703125 399.417969 100.476562 399.417969 114.996094 C 399.417969 129.515625 411.191406 141.292969 425.714844 141.292969 L 441.425781 141.292969 L 441.425781 163.773438 L 449.125 163.773438 L 449.125 141.292969 " fill-opacity="1" fill-rule="nonzero"/></g><path fill="#bf935b" d="M 478.589844 190.746094 L 478.554688 191.042969 L 518.316406 191.042969 L 518.273438 190.671875 L 478.589844 190.746094 " fill-opacity="1" fill-rule="nonzero"/><path fill="#bf935b" d="M 558.078125 191.042969 L 597.839844 191.042969 L 597.652344 190.820312 L 557.914062 190.746094 L 558.078125 191.042969 " fill-opacity="1" fill-rule="nonzero"/><path fill="#bf935b" d="M 359.269531 217.773438 C 359.269531 222.242188 357.722656 226.347656 355.152344 229.601562 L 363.386719 229.601562 C 360.816406 226.347656 359.269531 222.242188 359.269531 217.773438 " fill-opacity="1" fill-rule="nonzero"/><path fill="#bf935b" d="M 354.417969 190.976562 L 354.417969 191.042969 L 359.269531 191.042969 L 359.371094 190.96875 L 354.417969 190.976562 " fill-opacity="1" fill-rule="nonzero"/><path fill="#bf935b" d="M 546.726562 363.089844 L 546.726562 362.582031 L 540.992188 362.582031 L 540.992188 363.089844 L 546.726562 363.089844 " fill-opacity="1" fill-rule="nonzero"/><path fill="#bf935b" d="M 512.964844 387.046875 L 512.964844 373.585938 L 496.097656 373.585938 L 496.097656 399.886719 L 493.425781 399.886719 L 493.425781 373.585938 L 475.789062 373.585938 L 475.789062 399.886719 L 473.121094 399.886719 L 473.121094 373.585938 L 458.558594 373.585938 L 458.558594 399.886719 L 455.890625 399.886719 L 455.890625 373.585938 L 442.03125 373.585938 L 442.03125 399.886719 L 439.363281 399.886719 L 439.363281 373.585938 L 401.066406 373.585938 C 400.023438 374.296875 399.128906 375.144531 398.382812 376.085938 L 409 376.085938 L 409 388.476562 L 408.964844 388.476562 C 408.984375 388.773438 409 389.078125 409 389.382812 C 409 394.003906 406.511719 398.039062 402.804688 400.246094 L 399.082031 400.246094 L 399.082031 400.257812 L 504.058594 400.257812 L 504.058594 387.046875 L 512.964844 387.046875 " fill-opacity="1" fill-rule="nonzero"/><path fill="#bf935b" d="M 548.234375 320.339844 C 547.292969 321.132812 546.398438 322.042969 545.542969 323.089844 C 543.835938 325.1875 542.324219 327.757812 540.992188 330.558594 L 540.992188 343.445312 L 548.234375 320.339844 " fill-opacity="1" fill-rule="nonzero"/><path fill="#bf935b" d="M 530.195312 373.585938 L 515.632812 373.585938 L 515.632812 387.046875 L 530.195312 387.046875 L 530.195312 373.585938 " fill-opacity="1" fill-rule="nonzero"/><path fill="#bf935b" d="M 551.699219 318.21875 L 540.992188 352.371094 L 540.992188 359.917969 L 541.488281 359.917969 L 556.957031 317.335938 C 556.648438 317.304688 556.328125 317.285156 555.976562 317.285156 C 554.449219 317.285156 553.042969 317.59375 551.703125 318.152344 C 551.699219 318.175781 551.703125 318.199219 551.699219 318.21875 " fill-opacity="1" fill-rule="nonzero"/><path fill="#bf935b" d="M 544.328125 359.917969 L 547.703125 359.917969 C 547.929688 359.523438 548.25 358.964844 548.652344 358.253906 C 549.480469 356.785156 550.625 354.691406 551.902344 352.222656 C 554.453125 347.273438 557.511719 340.796875 559.53125 334.730469 C 560.875 330.691406 561.75 326.828125 561.746094 323.832031 C 561.746094 322.207031 561.492188 320.851562 561.003906 319.863281 C 560.632812 319.117188 560.164062 318.558594 559.503906 318.140625 L 544.328125 359.917969 " fill-opacity="1" fill-rule="nonzero"/><path fill="#bf935b" d="M 438.917969 190.820312 L 399.15625 190.894531 L 399.03125 191.042969 L 438.792969 191.042969 L 438.917969 190.820312 " fill-opacity="1" fill-rule="nonzero"/><path fill="#bf935b" d="M 677.234375 190.96875 L 637.398438 190.894531 L 637.601562 191.042969 L 677.363281 191.042969 L 677.234375 190.96875 " fill-opacity="1" fill-rule="nonzero"/><path fill="#bf935b" d="M 393.140625 376.085938 L 393.484375 376.085938 C 393.34375 375.707031 393.207031 375.324219 393.070312 374.929688 C 393.085938 375.328125 393.113281 375.707031 393.140625 376.085938 " fill-opacity="1" fill-rule="nonzero"/><path fill="#bf935b" d="M 396.089844 373.585938 L 393.046875 373.585938 C 393.046875 373.644531 393.050781 373.695312 393.050781 373.75 C 393.316406 374.550781 393.585938 375.328125 393.867188 376.085938 L 396.097656 376.085938 C 396.101562 375.277344 396.101562 374.449219 396.089844 373.585938 " fill-opacity="1" fill-rule="nonzero"/><path fill="#bf935b" d="M 396.449219 373.585938 C 396.460938 374.449219 396.460938 375.277344 396.460938 376.085938 L 397.332031 376.085938 C 397.449219 375.230469 397.582031 374.402344 397.722656 373.585938 L 396.449219 373.585938 " fill-opacity="1" fill-rule="nonzero"/><path fill="#bf935b" d="M 397.878906 374.929688 C 398.050781 374.46875 398.222656 374.023438 398.398438 373.585938 L 398.085938 373.585938 C 398.011719 374.023438 397.945312 374.480469 397.878906 374.929688 " fill-opacity="1" fill-rule="nonzero"/><path fill="#bf935b" d="M 400.414062 373.585938 L 398.785156 373.585938 C 398.46875 374.378906 398.148438 375.203125 397.835938 376.085938 L 397.925781 376.085938 C 398.617188 375.175781 399.4375 374.316406 400.414062 373.585938 " fill-opacity="1" fill-rule="nonzero"/><path fill="#bf935b" d="M 354.515625 292.335938 L 381.28125 292.335938 L 381.28125 305.714844 L 354.515625 305.714844 Z M 381.34375 349.550781 L 381.34375 362.933594 L 354.578125 362.933594 L 354.578125 349.550781 Z M 372.316406 400.257812 L 372.316406 387.046875 L 383.695312 387.046875 L 383.695312 376.085938 L 391.894531 376.085938 C 391.65625 375.195312 391.398438 374.367188 391.132812 373.585938 L 372.027344 373.585938 L 372.027344 363.089844 L 381.839844 363.089844 L 381.839844 257.535156 L 540.992188 257.535156 L 540.992188 293.453125 L 552.226562 293.453125 L 552.226562 306.835938 L 540.992188 306.835938 L 540.992188 324.945312 C 543.089844 321.542969 545.574219 318.640625 548.605469 316.761719 C 550.789062 315.414062 553.269531 314.613281 555.976562 314.617188 C 557.410156 314.617188 558.679688 314.835938 559.785156 315.289062 C 560.886719 315.734375 561.8125 316.425781 562.511719 317.289062 C 563.917969 319.027344 564.414062 321.316406 564.414062 323.832031 C 564.410156 327.320312 563.453125 331.378906 562.0625 335.574219 C 560.667969 339.761719 558.820312 344.078125 556.980469 347.976562 C 553.292969 355.773438 549.625 361.914062 549.609375 361.933594 C 549.550781 362.03125 549.46875 362.097656 549.394531 362.171875 L 549.394531 363.089844 L 550.429688 363.089844 L 550.429688 373.585938 L 549.394531 373.585938 L 549.394531 399.886719 L 546.726562 399.886719 L 546.726562 373.585938 L 532.863281 373.585938 L 532.863281 399.886719 L 530.828125 399.886719 L 530.828125 400.257812 L 576.703125 400.257812 L 576.703125 277.601562 L 561.71875 277.601562 L 561.71875 264.21875 L 576.703125 264.21875 L 576.703125 257.535156 L 637.332031 257.535156 L 637.332031 305.511719 L 643.648438 305.511719 L 643.648438 318.894531 L 637.332031 318.894531 L 637.332031 382.394531 L 644.578125 382.394531 L 644.578125 395.773438 L 637.332031 395.773438 L 637.332031 400.257812 L 679.714844 400.257812 L 679.714844 405.171875 L 679.84375 405.171875 L 679.84375 305.714844 L 653.140625 305.714844 L 653.140625 292.335938 L 679.84375 292.335938 L 679.84375 227.175781 C 678.273438 224.398438 677.363281 221.191406 677.363281 217.773438 C 677.363281 228.332031 668.796875 236.898438 658.234375 236.898438 L 656.730469 236.898438 C 646.164062 236.898438 637.601562 228.332031 637.601562 217.773438 C 637.601562 221.230469 636.671875 224.460938 635.070312 227.257812 L 635.070312 239.433594 L 608.300781 239.433594 L 608.300781 234.808594 C 602.101562 231.644531 597.839844 225.210938 597.839844 217.773438 C 597.839844 228.332031 589.277344 236.898438 578.710938 236.898438 L 577.207031 236.898438 C 566.640625 236.898438 558.078125 228.332031 558.078125 217.773438 C 558.078125 228.332031 549.511719 236.898438 538.949219 236.898438 L 537.445312 236.898438 C 526.882812 236.898438 518.316406 228.332031 518.316406 217.773438 C 518.316406 228.332031 509.753906 236.898438 499.1875 236.898438 L 497.683594 236.898438 C 487.121094 236.898438 478.554688 228.332031 478.554688 217.773438 C 478.554688 228.332031 469.992188 236.898438 459.425781 236.898438 L 457.921875 236.898438 C 447.359375 236.898438 438.792969 228.332031 438.792969 217.773438 C 438.792969 228.332031 430.230469 236.898438 419.664062 236.898438 L 418.160156 236.898438 C 412.160156 236.898438 406.808594 234.128906 403.300781 229.800781 L 394.765625 229.800781 C 391.527344 233.792969 386.71875 236.4375 381.28125 236.828125 L 381.28125 242.984375 L 354.515625 242.984375 L 354.515625 230.363281 C 354.484375 230.398438 354.449219 230.433594 354.417969 230.46875 L 354.417969 400.257812 L 372.316406 400.257812 " fill-opacity="1" fill-rule="nonzero"/><path fill="#bf935b" d="M 392.613281 373.585938 L 391.511719 373.585938 C 391.777344 374.367188 392.035156 375.195312 392.269531 376.085938 L 392.78125 376.085938 C 392.722656 375.363281 392.6875 374.609375 392.6875 373.804688 C 392.664062 373.730469 392.640625 373.660156 392.613281 373.585938 " fill-opacity="1" fill-rule="nonzero"/><path fill="#a47343" d="M 354.578125 362.933594 L 381.34375 362.933594 L 381.34375 349.550781 L 354.578125 349.550781 L 354.578125 362.933594 " fill-opacity="1" fill-rule="nonzero"/><path fill="#a47343" d="M 644.578125 395.773438 L 644.578125 382.394531 L 637.332031 382.394531 L 637.332031 395.773438 L 644.578125 395.773438 " fill-opacity="1" fill-rule="nonzero"/><path fill="#a47343" d="M 399.082031 400.246094 L 389.886719 400.246094 C 386.183594 398.039062 383.695312 394.003906 383.695312 389.382812 C 383.695312 389.078125 383.707031 388.773438 383.730469 388.476562 L 383.695312 388.476562 L 383.695312 387.046875 L 372.316406 387.046875 L 372.316406 400.257812 L 399.082031 400.257812 L 399.082031 400.246094 " fill-opacity="1" fill-rule="nonzero"/><path fill="#a47343" d="M 530.195312 387.046875 L 515.632812 387.046875 L 515.632812 399.886719 L 512.964844 399.886719 L 512.964844 387.046875 L 504.058594 387.046875 L 504.058594 400.257812 L 530.828125 400.257812 L 530.828125 399.886719 L 530.195312 399.886719 L 530.195312 387.046875 " fill-opacity="1" fill-rule="nonzero"/><path fill="#a47343" d="M 378.398438 236.898438 C 372.308594 236.898438 366.890625 234.039062 363.386719 229.601562 L 355.152344 229.601562 C 354.945312 229.863281 354.734375 230.113281 354.515625 230.363281 L 354.515625 242.984375 L 381.28125 242.984375 L 381.28125 236.828125 C 380.824219 236.859375 380.371094 236.898438 379.902344 236.898438 L 378.398438 236.898438 " fill-opacity="1" fill-rule="nonzero"/><path fill="#a47343" d="M 394.765625 229.800781 L 403.300781 229.800781 C 400.632812 226.519531 399.03125 222.335938 399.03125 217.773438 C 399.03125 222.335938 397.429688 226.519531 394.765625 229.800781 " fill-opacity="1" fill-rule="nonzero"/><path fill="#a47343" d="M 643.648438 318.894531 L 643.648438 305.511719 L 637.332031 305.511719 L 637.332031 318.894531 L 643.648438 318.894531 " fill-opacity="1" fill-rule="nonzero"/><path fill="#a47343" d="M 653.140625 305.714844 L 679.90625 305.714844 L 679.90625 292.335938 L 653.140625 292.335938 L 653.140625 305.714844 " fill-opacity="1" fill-rule="nonzero"/><path fill="#a47343" d="M 552.226562 306.835938 L 552.226562 293.453125 L 540.992188 293.453125 L 540.992188 306.835938 L 552.226562 306.835938 " fill-opacity="1" fill-rule="nonzero"/><path fill="#a47343" d="M 561.71875 264.21875 L 561.71875 277.601562 L 576.703125 277.601562 L 576.703125 264.21875 L 561.71875 264.21875 " fill-opacity="1" fill-rule="nonzero"/><path fill="#a47343" d="M 618.472656 236.898438 L 616.96875 236.898438 C 613.84375 236.898438 610.90625 236.132812 608.300781 234.808594 L 608.300781 239.433594 L 635.070312 239.433594 L 635.070312 227.257812 C 631.769531 233.011719 625.582031 236.898438 618.472656 236.898438 " fill-opacity="1" fill-rule="nonzero"/><path fill="#a47343" d="M 381.28125 292.335938 L 354.515625 292.335938 L 354.515625 305.714844 L 381.28125 305.714844 L 381.28125 292.335938 " fill-opacity="1" fill-rule="nonzero"/><path fill="#845333" d="M 637.332031 400.257812 L 637.332031 400.378906 L 598.515625 400.378906 L 598.496094 400.394531 L 584.367188 400.394531 L 584.382812 400.378906 L 576.703125 400.378906 L 576.703125 400.257812 L 354.402344 400.257812 L 354.402344 408.035156 L 679.714844 408.035156 L 679.714844 400.257812 L 637.332031 400.257812 " fill-opacity="1" fill-rule="nonzero"/><g clip-path="url(#248b69552d)"><path fill="#6f4323" d="M 679.714844 408.035156 L 345.964844 408.035156 L 345.964844 416.277344 L 690.667969 416.277344 L 690.667969 408.035156 L 679.714844 408.035156 " fill-opacity="1" fill-rule="nonzero"/></g><path fill="#40bb6a" d="M 515.226562 163.773438 L 481.644531 163.773438 L 478.589844 190.746094 L 518.273438 190.671875 L 515.226562 163.773438 " fill-opacity="1" fill-rule="nonzero"/><path fill="#40bb6a" d="M 399.15625 190.894531 L 438.917969 190.820312 L 453.863281 163.773438 L 421.769531 163.773438 L 399.15625 190.894531 " fill-opacity="1" fill-rule="nonzero"/><path fill="#40bb6a" d="M 359.371094 190.96875 L 396.292969 163.773438 L 380.371094 163.773438 L 319.507812 191.042969 L 354.417969 190.976562 L 359.371094 190.96875 " fill-opacity="1" fill-rule="nonzero"/><path fill="#00a650" d="M 355.152344 229.601562 C 357.722656 226.347656 359.269531 222.242188 359.269531 217.773438 L 359.269531 191.042969 L 319.507812 191.042969 L 319.507812 217.773438 C 319.507812 228.332031 328.074219 236.898438 338.636719 236.898438 L 340.140625 236.898438 C 345.824219 236.898438 350.914062 234.40625 354.417969 230.46875 C 354.449219 230.433594 354.484375 230.398438 354.515625 230.363281 C 354.734375 230.113281 354.945312 229.863281 355.152344 229.601562 " fill-opacity="1" fill-rule="nonzero"/><path fill="#e9e9e9" d="M 399.03125 191.042969 L 359.269531 191.042969 L 359.269531 217.773438 C 359.269531 222.242188 360.816406 226.347656 363.386719 229.601562 C 366.890625 234.039062 372.308594 236.898438 378.398438 236.898438 L 379.902344 236.898438 C 380.371094 236.898438 380.824219 236.859375 381.28125 236.828125 C 386.71875 236.4375 391.527344 233.792969 394.765625 229.800781 C 397.429688 226.519531 399.03125 222.335938 399.03125 217.773438 L 399.03125 191.042969 " fill-opacity="1" fill-rule="nonzero"/><path fill="#00a650" d="M 399.03125 191.042969 L 399.03125 217.773438 C 399.03125 222.335938 400.632812 226.519531 403.300781 229.800781 C 406.808594 234.128906 412.160156 236.898438 418.160156 236.898438 L 419.664062 236.898438 C 430.230469 236.898438 438.792969 228.332031 438.792969 217.773438 L 438.792969 191.042969 L 399.03125 191.042969 " fill-opacity="1" fill-rule="nonzero"/><path fill="#e9e9e9" d="M 438.792969 191.042969 L 438.792969 217.773438 C 438.792969 228.332031 447.359375 236.898438 457.921875 236.898438 L 459.425781 236.898438 C 469.992188 236.898438 478.554688 228.332031 478.554688 217.773438 L 478.554688 191.042969 L 438.792969 191.042969 " fill-opacity="1" fill-rule="nonzero"/><path fill="#00a650" d="M 478.554688 191.042969 L 478.554688 217.773438 C 478.554688 228.332031 487.121094 236.898438 497.683594 236.898438 L 499.1875 236.898438 C 509.753906 236.898438 518.316406 228.332031 518.316406 217.773438 L 518.316406 191.042969 L 478.554688 191.042969 " fill-opacity="1" fill-rule="nonzero"/><path fill="#ffffff" d="M 359.371094 190.96875 L 359.269531 191.042969 L 399.03125 191.042969 L 399.15625 190.894531 L 421.769531 163.773438 L 396.292969 163.773438 L 359.371094 190.96875 " fill-opacity="1" fill-rule="nonzero"/><path fill="#ffffff" d="M 478.554688 191.042969 L 478.589844 190.746094 L 481.644531 163.773438 L 453.863281 163.773438 L 438.917969 190.820312 L 438.792969 191.042969 L 478.554688 191.042969 " fill-opacity="1" fill-rule="nonzero"/><path fill="#40bb6a" d="M 557.914062 190.746094 L 597.652344 190.820312 L 575.101562 163.773438 L 543.007812 163.773438 L 557.914062 190.746094 " fill-opacity="1" fill-rule="nonzero"/><path fill="#40bb6a" d="M 637.398438 190.894531 L 677.234375 190.96875 L 631.328125 163.773438 L 600.582031 163.773438 L 637.398438 190.894531 " fill-opacity="1" fill-rule="nonzero"/><path fill="#e9e9e9" d="M 677.363281 191.042969 L 677.363281 217.773438 C 677.363281 221.191406 678.273438 224.398438 679.84375 227.171875 C 683.132812 232.972656 689.347656 236.898438 696.492188 236.898438 L 698 236.898438 C 708.5625 236.898438 717.125 228.332031 717.125 217.773438 L 717.125 191.042969 L 677.363281 191.042969 " fill-opacity="1" fill-rule="nonzero"/><path fill="#00a650" d="M 637.601562 191.042969 L 637.601562 217.773438 C 637.601562 228.332031 646.164062 236.898438 656.730469 236.898438 L 658.234375 236.898438 C 668.796875 236.898438 677.363281 228.332031 677.363281 217.773438 L 677.363281 191.042969 L 637.601562 191.042969 " fill-opacity="1" fill-rule="nonzero"/><path fill="#e9e9e9" d="M 597.839844 191.042969 L 597.839844 217.773438 C 597.839844 225.210938 602.101562 231.644531 608.300781 234.808594 C 610.90625 236.132812 613.84375 236.898438 616.96875 236.898438 L 618.472656 236.898438 C 625.582031 236.898438 631.769531 233.011719 635.070312 227.257812 C 636.671875 224.460938 637.601562 221.230469 637.601562 217.773438 L 637.601562 191.042969 L 597.839844 191.042969 " fill-opacity="1" fill-rule="nonzero"/><path fill="#00a650" d="M 558.078125 191.042969 L 558.078125 217.773438 C 558.078125 228.332031 566.640625 236.898438 577.207031 236.898438 L 578.710938 236.898438 C 589.277344 236.898438 597.839844 228.332031 597.839844 217.773438 L 597.839844 191.042969 L 558.078125 191.042969 " fill-opacity="1" fill-rule="nonzero"/><path fill="#e9e9e9" d="M 518.316406 191.042969 L 518.316406 217.773438 C 518.316406 228.332031 526.882812 236.898438 537.445312 236.898438 L 538.949219 236.898438 C 549.511719 236.898438 558.078125 228.332031 558.078125 217.773438 L 558.078125 191.042969 L 518.316406 191.042969 " fill-opacity="1" fill-rule="nonzero"/><path fill="#ffffff" d="M 575.101562 163.773438 L 597.652344 190.820312 L 597.839844 191.042969 L 637.601562 191.042969 L 637.398438 190.894531 L 600.582031 163.773438 L 575.101562 163.773438 " fill-opacity="1" fill-rule="nonzero"/><path fill="#ffffff" d="M 677.238281 190.96875 L 677.363281 191.042969 L 717.125 191.042969 L 656.265625 163.773438 L 631.328125 163.773438 L 677.238281 190.96875 " fill-opacity="1" fill-rule="nonzero"/><path fill="#ffffff" d="M 543.007812 163.773438 L 515.226562 163.773438 L 518.273438 190.671875 L 518.316406 191.042969 L 558.078125 191.042969 L 557.914062 190.746094 L 543.007812 163.773438 " fill-opacity="1" fill-rule="nonzero"/><path fill="#ffffff" d="M 538.628906 359.917969 L 540.992188 359.917969 L 540.992188 352.371094 Z M 538.628906 359.917969 " fill-opacity="1" fill-rule="nonzero"/><path fill="#ffffff" d="M 533.9375 354.277344 L 533.9375 359.917969 L 535.835938 359.917969 L 540.992188 343.445312 L 540.992188 330.558594 C 540.03125 332.589844 539.15625 334.734375 538.386719 336.921875 C 536.203125 343.117188 534.789062 349.554688 533.9375 354.277344 " fill-opacity="1" fill-rule="nonzero"/><path fill="#ffffff" d="M 396.371094 370.085938 L 398.394531 370.085938 C 398.957031 367.472656 399.609375 365.128906 400.269531 363.03125 L 395.957031 363.03125 C 396.164062 365.457031 396.292969 367.828125 396.371094 370.085938 " fill-opacity="1" fill-rule="nonzero"/><path fill="#ffffff" d="M 391.964844 370.085938 L 392.898438 370.085938 C 393.148438 367.558594 393.515625 365.179688 393.945312 363.03125 L 390.664062 363.03125 C 390.902344 365.417969 391.367188 367.804688 391.964844 370.085938 " fill-opacity="1" fill-rule="nonzero"/><path fill="#ffffff" d="M 493.207031 363.089844 L 480.878906 363.089844 L 480.941406 363.03125 L 475.789062 363.03125 L 475.789062 370.085938 L 493.425781 370.085938 L 493.425781 363.03125 L 493.269531 363.03125 L 493.207031 363.089844 " fill-opacity="1" fill-rule="nonzero"/><path fill="#ffffff" d="M 496.097656 363.03125 L 496.097656 370.085938 L 512.964844 370.085938 L 512.964844 363.03125 L 496.097656 363.03125 " fill-opacity="1" fill-rule="nonzero"/><path fill="#91cddf" d="M 392.578125 344.644531 C 393.855469 348.617188 394.734375 352.953125 395.328125 357.292969 C 396.125 354.488281 396.875 352.464844 397.261719 351.488281 C 396.734375 351.226562 397.253906 350.15625 398.023438 347.375 C 398.71875 344.839844 399.039062 342.539062 400.015625 342.566406 C 401.210938 342.714844 402.050781 344.605469 401.265625 347.726562 C 400.566406 350.519531 398.671875 351.609375 397.628906 351.554688 C 397.214844 352.585938 396.335938 354.914062 395.445312 358.210938 C 395.652344 359.828125 395.824219 361.441406 395.957031 363.03125 L 400.269531 363.03125 C 402.339844 356.457031 404.511719 352.566406 404.570312 352.460938 C 403.84375 352.070312 404.710938 350.953125 406.332031 347.667969 C 407.746094 344.800781 408.65625 342.117188 409.820312 342.382812 C 411.210938 342.832031 411.78125 345.285156 410.128906 348.835938 C 408.585938 352.152344 405.90625 352.96875 404.730469 352.542969 L 404.890625 352.632812 C 404.847656 352.707031 402.703125 356.539062 400.648438 363.03125 L 401.453125 363.03125 C 401.796875 362.15625 402.390625 361.199219 403.285156 360.1875 C 405.367188 357.824219 407.75 356.519531 409.4375 358.015625 C 410.804688 359.21875 410.394531 361.101562 409.089844 363.03125 L 419.890625 363.03125 L 432.808594 350.113281 C 430.640625 345.691406 428.351562 340.542969 426.691406 335.574219 C 425.300781 331.378906 424.347656 327.320312 424.339844 323.832031 C 424.339844 321.9375 424.621094 320.195312 425.351562 318.691406 C 426.074219 317.1875 427.3125 315.957031 428.96875 315.289062 C 430.074219 314.835938 431.34375 314.617188 432.777344 314.617188 C 435.484375 314.613281 437.964844 315.414062 440.148438 316.761719 C 442.335938 318.113281 444.242188 320.003906 445.921875 322.222656 C 448 324.984375 449.742188 328.253906 451.210938 331.710938 L 518.34375 264.59375 L 471.882812 264.59375 L 395.347656 341.117188 C 395.011719 342.898438 394.011719 344.132812 392.578125 344.644531 " fill-opacity="1" fill-rule="nonzero"/><path fill="#91cddf" d="M 521.007812 339.90625 C 521.742188 339.90625 522.339844 340.503906 522.339844 341.242188 C 522.339844 341.976562 521.742188 342.574219 521.007812 342.574219 L 513.726562 342.574219 L 496.097656 360.203125 L 496.097656 363.03125 L 512.964844 363.03125 L 512.964844 361.25 C 512.964844 360.515625 513.5625 359.917969 514.300781 359.917969 L 530.347656 359.917969 C 530.585938 358.074219 531.144531 354.242188 532.144531 349.542969 C 532.632812 347.269531 533.226562 344.789062 533.9375 342.238281 L 533.9375 322.371094 L 516.398438 339.90625 L 521.007812 339.90625 " fill-opacity="1" fill-rule="nonzero"/><path fill="#91cddf" d="M 445.785156 337.140625 L 449.164062 333.757812 C 448.492188 332.097656 447.761719 330.472656 446.96875 328.945312 C 445.140625 325.421875 442.972656 322.410156 440.519531 320.339844 L 445.785156 337.140625 " fill-opacity="1" fill-rule="nonzero"/><path fill="#91cddf" d="M 530.195312 362.582031 L 515.632812 362.582031 L 515.632812 363.03125 L 530.195312 363.03125 L 530.195312 362.582031 " fill-opacity="1" fill-rule="nonzero"/><path fill="#91cddf" d="M 392.289062 331.84375 L 459.554688 264.59375 L 440.597656 264.59375 L 388.902344 316.277344 L 388.902344 330.671875 C 390.203125 330.519531 391.335938 330.96875 392.289062 331.84375 " fill-opacity="1" fill-rule="nonzero"/><path fill="#91cddf" d="M 533.042969 359.917969 L 533.9375 359.917969 L 533.9375 354.277344 C 533.496094 356.710938 533.207031 358.671875 533.042969 359.917969 " fill-opacity="1" fill-rule="nonzero"/><path fill="#91cddf" d="M 533.9375 362.582031 L 532.863281 362.582031 L 532.863281 363.03125 L 533.9375 363.03125 L 533.9375 362.582031 " fill-opacity="1" fill-rule="nonzero"/><path fill="#91cddf" d="M 440.804688 342.121094 L 443.65625 339.269531 L 437.058594 318.21875 C 437.054688 318.203125 437.058594 318.191406 437.054688 318.171875 C 435.714844 317.605469 434.308594 317.285156 432.777344 317.285156 C 432.429688 317.285156 432.105469 317.304688 431.800781 317.335938 L 440.804688 342.121094 " fill-opacity="1" fill-rule="nonzero"/><path fill="#91cddf" d="M 388.902344 264.59375 L 388.902344 303.953125 L 428.269531 264.59375 Z M 388.902344 264.59375 " fill-opacity="1" fill-rule="nonzero"/><path fill="#91cddf" d="M 473.121094 362.582031 L 458.558594 362.582031 L 458.558594 363.03125 L 473.121094 363.03125 L 473.121094 362.582031 " fill-opacity="1" fill-rule="nonzero"/><path fill="#91cddf" d="M 429.261719 318.15625 C 428.898438 318.390625 428.574219 318.652344 428.3125 318.972656 C 427.464844 320.003906 427.003906 321.65625 427.007812 323.832031 C 427.003906 326.453125 427.667969 329.742188 428.742188 333.222656 C 429.8125 336.710938 431.277344 340.398438 432.839844 343.894531 C 433.484375 345.351562 434.148438 346.761719 434.804688 348.121094 L 438.722656 344.203125 L 429.261719 318.15625 " fill-opacity="1" fill-rule="nonzero"/><path fill="#91cddf" d="M 455.890625 363.03125 L 455.890625 362.582031 L 452.03125 362.582031 L 451.589844 363.03125 L 455.890625 363.03125 " fill-opacity="1" fill-rule="nonzero"/><path fill="#91cddf" d="M 455.714844 359.917969 C 455.679688 359.652344 455.636719 359.355469 455.589844 359.023438 L 454.703125 359.917969 L 455.714844 359.917969 " fill-opacity="1" fill-rule="nonzero"/><path fill="#91cddf" d="M 395.203125 359.152344 C 394.894531 360.34375 394.59375 361.636719 394.316406 363.03125 L 395.597656 363.03125 C 395.488281 361.75 395.355469 360.449219 395.203125 359.152344 " fill-opacity="1" fill-rule="nonzero"/><path fill="#91cddf" d="M 493.425781 363.03125 L 493.425781 362.871094 L 493.269531 363.03125 Z M 493.425781 363.03125 " fill-opacity="1" fill-rule="nonzero"/><path fill="#91cddf" d="M 474.714844 339.90625 L 504.070312 339.90625 L 533.9375 310.042969 L 533.9375 280.695312 L 474.714844 339.90625 " fill-opacity="1" fill-rule="nonzero"/><path fill="#91cddf" d="M 474.457031 359.917969 C 475.191406 359.917969 475.792969 360.515625 475.792969 361.25 C 475.792969 361.253906 475.789062 361.253906 475.789062 361.253906 L 475.789062 363.03125 L 480.941406 363.03125 L 493.425781 350.542969 L 493.425781 342.574219 L 472.046875 342.574219 L 457.9375 356.683594 C 458.152344 358.046875 458.308594 359.152344 458.40625 359.917969 L 474.457031 359.917969 " fill-opacity="1" fill-rule="nonzero"/><path fill="#91cddf" d="M 496.097656 342.574219 L 496.097656 347.875 L 501.398438 342.574219 Z M 496.097656 342.574219 " fill-opacity="1" fill-rule="nonzero"/><path fill="#91cddf" d="M 390.289062 350.878906 C 391.980469 350.875 392.671875 352.785156 392.679688 355.144531 C 392.6875 357.804688 391.71875 359.261719 390.492188 359.394531 C 390.480469 360.601562 390.542969 361.8125 390.664062 363.03125 L 393.945312 363.03125 C 394.296875 361.253906 394.6875 359.632812 395.078125 358.183594 C 394.488281 353.582031 393.585938 348.957031 392.230469 344.738281 C 392.019531 344.796875 391.804688 344.847656 391.589844 344.867188 L 388.902344 347.558594 L 388.902344 351.515625 C 389.257812 351.121094 389.710938 350.882812 390.289062 350.878906 " fill-opacity="1" fill-rule="nonzero"/><path fill="#91cddf" d="M 390.128906 359.394531 C 389.671875 359.34375 389.25 359.113281 388.902344 358.691406 L 388.902344 363.03125 L 390.300781 363.03125 C 390.179688 361.8125 390.121094 360.601562 390.128906 359.394531 " fill-opacity="1" fill-rule="nonzero"/><path fill="#c3ebf7" d="M 428.269531 264.59375 L 388.902344 303.953125 L 388.902344 316.277344 L 440.597656 264.59375 L 428.269531 264.59375 " fill-opacity="1" fill-rule="nonzero"/><path fill="#c3ebf7" d="M 388.902344 344.183594 L 388.902344 347.558594 L 391.589844 344.867188 C 390.679688 344.960938 389.765625 344.722656 388.902344 344.183594 " fill-opacity="1" fill-rule="nonzero"/><path fill="#c3ebf7" d="M 394.859375 336.253906 C 395.488281 338.15625 395.59375 339.78125 395.347656 341.117188 L 471.882812 264.59375 L 459.554688 264.59375 L 392.289062 331.84375 C 393.390625 332.855469 394.257812 334.414062 394.859375 336.253906 " fill-opacity="1" fill-rule="nonzero"/><path fill="#c3ebf7" d="M 480.878906 363.089844 L 493.207031 363.089844 L 493.269531 363.03125 L 493.425781 362.871094 L 493.425781 350.542969 L 480.941406 363.03125 L 480.878906 363.089844 " fill-opacity="1" fill-rule="nonzero"/><path fill="#c3ebf7" d="M 516.398438 339.90625 L 533.953125 322.355469 L 533.953125 310.027344 L 533.9375 310.042969 L 504.070312 339.90625 L 516.398438 339.90625 " fill-opacity="1" fill-rule="nonzero"/><path fill="#c3ebf7" d="M 501.398438 342.574219 L 496.097656 347.875 L 496.097656 360.203125 L 513.726562 342.574219 L 501.398438 342.574219 " fill-opacity="1" fill-rule="nonzero"/><path fill="#c3ebf7" d="M 453.609375 338.1875 C 455.902344 345.273438 457.242188 352.3125 457.9375 356.683594 L 472.046875 342.574219 L 468.519531 342.574219 C 467.78125 342.574219 467.183594 341.976562 467.183594 341.242188 C 467.183594 340.503906 467.78125 339.90625 468.519531 339.90625 L 474.714844 339.90625 L 533.9375 280.695312 L 533.9375 264.59375 L 518.34375 264.59375 L 451.210938 331.710938 C 452.109375 333.828125 452.90625 336.011719 453.609375 338.1875 " fill-opacity="1" fill-rule="nonzero"/><path fill="#c3ebf7" d="M 447.265625 359.917969 L 450.125 359.917969 L 443.65625 339.269531 L 440.804688 342.121094 L 447.265625 359.917969 " fill-opacity="1" fill-rule="nonzero"/><path fill="#c3ebf7" d="M 452.03125 362.582031 L 442.03125 362.582031 L 442.03125 363.03125 L 451.589844 363.03125 L 452.03125 362.582031 " fill-opacity="1" fill-rule="nonzero"/><path fill="#c3ebf7" d="M 441.054688 359.917969 L 444.429688 359.917969 L 438.722656 344.203125 L 434.804688 348.121094 C 437.308594 353.300781 439.722656 357.605469 440.816406 359.507812 C 440.90625 359.664062 440.984375 359.792969 441.054688 359.917969 " fill-opacity="1" fill-rule="nonzero"/><path fill="#c3ebf7" d="M 445.785156 337.140625 L 452.921875 359.917969 L 454.703125 359.917969 L 455.589844 359.023438 C 455.554688 358.765625 455.511719 358.488281 455.46875 358.191406 C 455.167969 356.175781 454.691406 353.339844 454 350.09375 C 452.945312 345.132812 451.367188 339.199219 449.164062 333.757812 L 445.785156 337.140625 " fill-opacity="1" fill-rule="nonzero"/><path fill="#c3ebf7" d="M 439.363281 362.171875 C 439.285156 362.097656 439.203125 362.03125 439.144531 361.933594 C 439.132812 361.90625 436.117188 356.863281 432.808594 350.113281 L 419.890625 363.03125 L 439.363281 363.03125 L 439.363281 362.171875 " fill-opacity="1" fill-rule="nonzero"/><path fill="#ffffff" d="M 546.726562 370.085938 L 546.726562 363.089844 L 540.992188 363.089844 L 540.992188 362.582031 L 533.9375 362.582031 L 533.9375 363.03125 L 532.863281 363.03125 L 532.863281 370.085938 L 546.726562 370.085938 " fill-opacity="1" fill-rule="nonzero"/><path fill="#ffffff" d="M 550.429688 370.085938 L 550.429688 363.089844 L 549.394531 363.089844 L 549.394531 370.085938 L 550.429688 370.085938 " fill-opacity="1" fill-rule="nonzero"/><path fill="#ffffff" d="M 530.195312 363.03125 L 515.632812 363.03125 L 515.632812 370.085938 L 530.195312 370.085938 L 530.195312 363.03125 " fill-opacity="1" fill-rule="nonzero"/><path fill="#ffffff" d="M 473.121094 363.03125 L 458.558594 363.03125 L 458.558594 370.085938 L 473.121094 370.085938 L 473.121094 363.03125 " fill-opacity="1" fill-rule="nonzero"/><path fill="#ffffff" d="M 389.730469 370.085938 C 389.261719 369.085938 388.816406 368.25 388.445312 367.609375 C 387.371094 367.882812 385.789062 366.777344 384.730469 364.019531 C 383.652344 361.214844 384.699219 359.164062 385.621094 358.714844 C 386.398438 358.28125 386.5 359.40625 387.589844 362.441406 C 388.449219 364.84375 389.460938 366.851562 388.773438 367.457031 C 389.167969 368.140625 389.636719 369.015625 390.128906 370.085938 L 391.59375 370.085938 C 390.996094 367.800781 390.539062 365.417969 390.300781 363.03125 L 388.902344 363.03125 L 388.902344 358.691406 C 388.316406 358 387.933594 356.816406 387.929688 355.15625 C 387.921875 353.613281 388.222656 352.269531 388.902344 351.515625 L 388.902344 344.183594 C 387.558594 343.339844 386.351562 341.746094 385.550781 339.3125 C 384.296875 335.5 384.628906 331.96875 387.933594 330.878906 C 388.269531 330.769531 388.585938 330.707031 388.902344 330.671875 L 388.902344 264.59375 L 533.9375 264.59375 L 533.9375 310.042969 L 533.953125 310.027344 L 533.953125 322.355469 L 533.9375 322.371094 L 533.9375 342.238281 C 535.289062 337.371094 537.070312 332.238281 539.421875 327.714844 C 539.917969 326.761719 540.445312 325.839844 540.992188 324.945312 L 540.992188 257.535156 L 381.839844 257.535156 L 381.839844 363.089844 L 372.027344 363.089844 L 372.027344 370.085938 L 389.730469 370.085938 " fill-opacity="1" fill-rule="nonzero"/><path fill="#ffffff" d="M 395.597656 363.03125 L 394.316406 363.03125 C 393.882812 365.179688 393.515625 367.554688 393.265625 370.085938 L 396.011719 370.085938 C 395.933594 367.828125 395.804688 365.457031 395.597656 363.03125 " fill-opacity="1" fill-rule="nonzero"/><path fill="#ffffff" d="M 455.890625 363.03125 L 442.03125 363.03125 L 442.03125 370.085938 L 455.890625 370.085938 L 455.890625 363.03125 " fill-opacity="1" fill-rule="nonzero"/><path fill="#ffffff" d="M 411.824219 369.042969 C 411.984375 369.339844 412 369.703125 411.890625 370.085938 L 439.363281 370.085938 L 439.363281 363.03125 L 409.089844 363.03125 C 408.78125 363.480469 408.4375 363.9375 408.039062 364.386719 C 405.660156 367.082031 403.375 367.664062 402.039062 366.660156 C 402 366.730469 401.273438 368.007812 400.300781 370.085938 L 406.972656 370.085938 C 409.34375 369.222656 411.304688 368.25 411.824219 369.042969 " fill-opacity="1" fill-rule="nonzero"/><path fill="#ffffff" d="M 401.453125 363.03125 L 400.648438 363.03125 C 399.984375 365.121094 399.332031 367.472656 398.761719 370.085938 L 399.902344 370.085938 C 400.933594 367.871094 401.707031 366.507812 401.730469 366.472656 L 401.886719 366.558594 C 401.046875 365.820312 400.851562 364.566406 401.453125 363.03125 " fill-opacity="1" fill-rule="nonzero"/><path fill="#e9e9e9" d="M 540.992188 370.085938 L 532.863281 370.085938 L 532.863281 373.585938 L 546.726562 373.585938 L 546.726562 370.085938 L 540.992188 370.085938 " fill-opacity="1" fill-rule="nonzero"/><path fill="#e9e9e9" d="M 549.394531 373.585938 L 550.429688 373.585938 L 550.429688 370.085938 L 549.394531 370.085938 L 549.394531 373.585938 " fill-opacity="1" fill-rule="nonzero"/><path fill="#e9e9e9" d="M 530.195312 370.085938 L 515.632812 370.085938 L 515.632812 373.585938 L 530.195312 373.585938 L 530.195312 370.085938 " fill-opacity="1" fill-rule="nonzero"/><path fill="#e9e9e9" d="M 406.746094 370.171875 C 406.824219 370.144531 406.898438 370.117188 406.972656 370.085938 L 400.300781 370.085938 C 399.835938 371.085938 399.320312 372.265625 398.785156 373.585938 L 400.414062 373.585938 C 401.179688 373.007812 402.046875 372.523438 403.015625 372.136719 C 402.585938 371.363281 403.710938 371.257812 406.746094 370.171875 " fill-opacity="1" fill-rule="nonzero"/><path fill="#e9e9e9" d="M 475.789062 370.085938 L 475.789062 373.585938 L 493.425781 373.585938 L 493.425781 370.085938 L 475.789062 370.085938 " fill-opacity="1" fill-rule="nonzero"/><path fill="#e9e9e9" d="M 411.890625 370.085938 C 411.613281 371.0625 410.472656 372.207031 408.320312 373.03125 C 405.816406 373.992188 403.925781 373.261719 403.222656 372.4375 C 402.429688 372.742188 401.722656 373.136719 401.066406 373.585938 L 439.363281 373.585938 L 439.363281 370.085938 L 411.890625 370.085938 " fill-opacity="1" fill-rule="nonzero"/><path fill="#e9e9e9" d="M 398.085938 373.585938 L 398.398438 373.585938 C 398.921875 372.273438 399.4375 371.089844 399.902344 370.085938 L 398.761719 370.085938 C 398.519531 371.207031 398.296875 372.382812 398.085938 373.585938 " fill-opacity="1" fill-rule="nonzero"/><path fill="#e9e9e9" d="M 458.558594 370.085938 L 458.558594 373.585938 L 473.121094 373.585938 L 473.121094 370.085938 L 458.558594 370.085938 " fill-opacity="1" fill-rule="nonzero"/><path fill="#e9e9e9" d="M 392.71875 372.710938 C 392.734375 372.230469 392.746094 371.757812 392.789062 371.25 C 392.820312 370.855469 392.863281 370.476562 392.898438 370.085938 L 391.964844 370.085938 C 392.199219 370.976562 392.453125 371.851562 392.71875 372.710938 " fill-opacity="1" fill-rule="nonzero"/><path fill="#e9e9e9" d="M 381.839844 370.085938 L 372.027344 370.085938 L 372.027344 373.585938 L 391.132812 373.585938 C 390.675781 372.253906 390.195312 371.082031 389.730469 370.085938 L 381.839844 370.085938 " fill-opacity="1" fill-rule="nonzero"/><path fill="#e9e9e9" d="M 396.449219 373.585938 L 397.722656 373.585938 C 397.929688 372.382812 398.148438 371.207031 398.394531 370.085938 L 396.371094 370.085938 C 396.414062 371.292969 396.4375 372.460938 396.449219 373.585938 " fill-opacity="1" fill-rule="nonzero"/><path fill="#e9e9e9" d="M 391.59375 370.085938 L 390.128906 370.085938 C 390.589844 371.089844 391.066406 372.265625 391.511719 373.585938 L 392.613281 373.585938 C 392.246094 372.457031 391.902344 371.28125 391.59375 370.085938 " fill-opacity="1" fill-rule="nonzero"/><path fill="#e9e9e9" d="M 496.097656 370.085938 L 496.097656 373.585938 L 512.964844 373.585938 L 512.964844 370.085938 L 496.097656 370.085938 " fill-opacity="1" fill-rule="nonzero"/><path fill="#e9e9e9" d="M 396.011719 370.085938 L 393.265625 370.085938 C 393.226562 370.484375 393.179688 370.875 393.148438 371.277344 C 393.082031 372.089844 393.054688 372.851562 393.046875 373.585938 L 396.089844 373.585938 C 396.078125 372.460938 396.050781 371.292969 396.011719 370.085938 " fill-opacity="1" fill-rule="nonzero"/><path fill="#e9e9e9" d="M 442.03125 370.085938 L 442.03125 373.585938 L 455.890625 373.585938 L 455.890625 370.085938 L 442.03125 370.085938 " fill-opacity="1" fill-rule="nonzero"/><path fill="#ffffff" d="M 583 263.828125 L 631.035156 263.828125 L 631.035156 328.050781 L 583 328.050781 L 583 317.09375 L 582.949219 317.144531 L 582.949219 306.152344 L 583 306.101562 L 583 298.332031 L 582.949219 298.382812 L 582.949219 277.972656 L 583 277.921875 Z M 583 400.378906 L 583 350.78125 L 582.949219 350.832031 L 582.949219 336.703125 L 583 336.648438 L 583 334.34375 L 631.035156 334.34375 L 631.035156 400.378906 L 637.332031 400.378906 L 637.332031 257.535156 L 576.703125 257.535156 L 576.703125 400.378906 L 583 400.378906 " fill-opacity="1" fill-rule="nonzero"/><path fill="#91cddf" d="M 585.304688 334.34375 L 583 334.34375 L 583 336.648438 Z M 585.304688 334.34375 " fill-opacity="1" fill-rule="nonzero"/><path fill="#91cddf" d="M 597.078125 263.847656 L 617.492188 263.847656 L 583 298.332031 L 583 306.101562 L 625.261719 263.847656 L 630.988281 263.847656 L 630.988281 269.117188 L 583 317.09375 L 583 328.050781 L 591.601562 328.050781 L 630.988281 288.671875 L 630.988281 302.800781 L 605.734375 328.050781 L 631.035156 328.050781 L 631.035156 263.828125 L 583 263.828125 L 583 277.921875 L 597.078125 263.847656 " fill-opacity="1" fill-rule="nonzero"/><path fill="#91cddf" d="M 631.035156 334.34375 L 599.4375 334.34375 L 583 350.78125 L 583 400.378906 L 584.382812 400.378906 L 630.988281 353.78125 L 630.988281 367.914062 L 598.515625 400.378906 L 631.035156 400.378906 L 631.035156 334.34375 " fill-opacity="1" fill-rule="nonzero"/><path fill="#c3ebf7" d="M 597.078125 263.847656 L 583 277.921875 L 582.949219 277.972656 L 582.949219 298.382812 L 583 298.332031 L 617.492188 263.847656 L 597.078125 263.847656 " fill-opacity="1" fill-rule="nonzero"/><path fill="#c3ebf7" d="M 630.988281 263.847656 L 625.261719 263.847656 L 582.949219 306.152344 L 582.949219 317.144531 L 583 317.09375 L 630.988281 269.117188 L 630.988281 263.847656 " fill-opacity="1" fill-rule="nonzero"/><path fill="#c3ebf7" d="M 599.4375 334.34375 L 585.304688 334.34375 L 583 336.648438 L 582.949219 336.703125 L 582.949219 350.832031 L 599.4375 334.34375 " fill-opacity="1" fill-rule="nonzero"/><path fill="#c3ebf7" d="M 630.988281 302.800781 L 630.988281 288.671875 L 591.601562 328.050781 L 605.734375 328.050781 L 630.988281 302.800781 " fill-opacity="1" fill-rule="nonzero"/><path fill="#c3ebf7" d="M 630.988281 367.914062 L 630.988281 353.78125 L 584.382812 400.378906 L 584.367188 400.394531 L 598.496094 400.394531 L 598.515625 400.378906 L 630.988281 367.914062 " fill-opacity="1" fill-rule="nonzero"/><g clip-path="url(#c68fe0a6a3)"><path fill="#845333" d="M 710.066406 395.5 L 710.066406 320.398438 L 752.203125 320.398438 L 752.203125 395.5 Z M 759.398438 395.839844 L 759.398438 313.210938 L 702.871094 313.210938 L 702.871094 416.277344 L 710.066406 416.277344 L 710.066406 402.6875 L 752.203125 402.6875 L 752.203125 416.277344 L 759.398438 416.277344 L 759.398438 395.839844 " fill-opacity="1" fill-rule="nonzero"/></g><path fill="#00a650" d="M 752.207031 320.398438 L 710.066406 320.398438 L 710.066406 395.5 L 752.207031 320.398438 " fill-opacity="1" fill-rule="nonzero"/><path fill="#bf935b" d="M 505.898438 107.265625 L 504.015625 119.832031 L 507.78125 119.832031 Z M 505.898438 107.265625 " fill-opacity="1" fill-rule="nonzero"/><path fill="#bf935b" d="M 447.800781 117.796875 C 446.199219 119.191406 443.765625 119.023438 442.371094 117.417969 C 440.976562 115.816406 441.144531 113.382812 442.746094 111.988281 C 444.347656 110.59375 446.78125 110.761719 448.179688 112.363281 C 449.574219 113.964844 449.40625 116.398438 447.800781 117.796875 Z M 472.058594 108.824219 C 472.058594 106.8125 472.554688 105.269531 473.546875 104.191406 C 474.542969 103.117188 475.988281 102.578125 477.878906 102.578125 C 479.773438 102.578125 481.21875 103.117188 482.210938 104.191406 C 483.207031 105.269531 483.703125 106.8125 483.703125 108.824219 L 483.703125 111.238281 L 480.011719 111.238281 L 480.011719 108.578125 C 480.011719 106.945312 479.335938 106.128906 477.988281 106.128906 C 476.640625 106.128906 475.964844 106.945312 475.964844 108.578125 L 475.964844 121.996094 C 475.964844 123.605469 476.640625 124.410156 477.988281 124.410156 C 479.335938 124.410156 480.011719 123.605469 480.011719 121.996094 L 480.011719 118.449219 L 483.703125 118.449219 L 483.703125 121.75 C 483.703125 123.757812 483.207031 125.304688 482.210938 126.382812 C 481.21875 127.460938 479.773438 128 477.878906 128 C 475.988281 128 474.542969 127.460938 473.546875 126.382812 C 472.554688 125.304688 472.058594 123.757812 472.058594 121.75 Z M 503.234375 102.859375 L 508.953125 102.859375 L 512.929688 127.710938 L 508.988281 127.710938 L 508.3125 123.203125 L 503.519531 123.203125 L 502.84375 127.710938 L 499.257812 127.710938 Z M 528.945312 102.859375 L 539.277344 102.859375 L 539.277344 106.410156 L 532.851562 106.410156 L 532.851562 113.902344 L 537.890625 113.902344 L 537.890625 117.453125 L 532.851562 117.453125 L 532.851562 127.710938 L 528.945312 127.710938 Z M 555.359375 102.859375 L 566.015625 102.859375 L 566.015625 106.410156 L 559.269531 106.410156 L 559.269531 113.335938 L 564.628906 113.335938 L 564.628906 116.882812 L 559.269531 116.882812 L 559.269531 124.164062 L 566.015625 124.164062 L 566.015625 127.710938 L 555.359375 127.710938 Z M 585.394531 111.988281 C 587 110.59375 589.4375 110.761719 590.828125 112.363281 C 592.226562 113.964844 592.058594 116.398438 590.453125 117.796875 C 588.851562 119.191406 586.421875 119.023438 585.023438 117.417969 C 583.628906 115.816406 583.796875 113.382812 585.394531 111.988281 Z M 587.925781 134.386719 L 611.6875 134.386719 C 621.472656 134.386719 629.441406 125.640625 629.441406 114.890625 C 629.441406 104.144531 621.472656 95.394531 611.6875 95.394531 L 425.714844 95.394531 C 415.929688 95.394531 407.964844 104.144531 407.964844 114.890625 C 407.964844 125.640625 415.929688 134.386719 425.714844 134.386719 L 587.925781 134.386719 " fill-opacity="1" fill-rule="nonzero"/><path fill="#40bb6a" d="M 409.4375 358.015625 C 407.75 356.519531 405.367188 357.824219 403.285156 360.1875 C 402.390625 361.199219 401.796875 362.15625 401.453125 363.03125 C 400.851562 364.566406 401.046875 365.820312 401.886719 366.558594 L 409.4375 358.015625 " fill-opacity="1" fill-rule="nonzero"/><path fill="#00a650" d="M 408.039062 364.386719 C 408.4375 363.9375 408.78125 363.480469 409.089844 363.03125 C 410.394531 361.101562 410.804688 359.21875 409.4375 358.015625 L 401.886719 366.558594 L 402.042969 366.648438 C 402.042969 366.648438 402.039062 366.660156 402.039062 366.660156 C 403.375 367.664062 405.660156 367.082031 408.039062 364.386719 " fill-opacity="1" fill-rule="nonzero"/><path fill="#40bb6a" d="M 409.820312 342.382812 C 408.65625 342.117188 407.746094 344.800781 406.332031 347.667969 C 404.710938 350.953125 403.84375 352.070312 404.570312 352.460938 L 404.574219 352.457031 L 404.730469 352.542969 L 409.820312 342.382812 " fill-opacity="1" fill-rule="nonzero"/><path fill="#00a650" d="M 404.730469 352.542969 C 405.90625 352.96875 408.585938 352.152344 410.128906 348.835938 C 411.78125 345.285156 411.210938 342.832031 409.820312 342.382812 L 404.730469 352.542969 " fill-opacity="1" fill-rule="nonzero"/><path fill="#1f5231" d="M 396.449219 373.585938 C 396.4375 372.460938 396.414062 371.292969 396.371094 370.085938 C 396.292969 367.828125 396.164062 365.457031 395.957031 363.03125 C 395.824219 361.441406 395.652344 359.828125 395.445312 358.210938 C 396.335938 354.914062 397.214844 352.585938 397.628906 351.554688 C 397.582031 351.554688 397.527344 351.558594 397.484375 351.554688 C 397.394531 351.542969 397.324219 351.515625 397.261719 351.488281 C 396.875 352.464844 396.125 354.488281 395.328125 357.292969 C 394.734375 352.953125 393.855469 348.617188 392.578125 344.644531 C 392.542969 344.65625 392.511719 344.679688 392.476562 344.691406 C 392.394531 344.714844 392.3125 344.71875 392.230469 344.738281 C 393.585938 348.957031 394.488281 353.582031 395.078125 358.183594 C 394.6875 359.632812 394.296875 361.253906 393.945312 363.03125 C 393.515625 365.179688 393.148438 367.558594 392.898438 370.085938 C 392.863281 370.476562 392.820312 370.855469 392.789062 371.25 C 392.746094 371.757812 392.734375 372.230469 392.71875 372.710938 C 392.453125 371.851562 392.199219 370.976562 391.964844 370.085938 C 391.367188 367.804688 390.902344 365.417969 390.664062 363.03125 C 390.542969 361.8125 390.480469 360.601562 390.492188 359.394531 C 390.433594 359.402344 390.378906 359.421875 390.316406 359.421875 C 390.253906 359.421875 390.191406 359.402344 390.128906 359.394531 C 390.121094 360.601562 390.179688 361.8125 390.300781 363.03125 C 390.539062 365.417969 390.996094 367.800781 391.59375 370.085938 C 391.902344 371.28125 392.246094 372.457031 392.613281 373.585938 C 392.640625 373.660156 392.664062 373.730469 392.6875 373.804688 C 392.6875 374.609375 392.722656 375.363281 392.78125 376.085938 L 393.140625 376.085938 C 393.113281 375.707031 393.085938 375.328125 393.070312 374.929688 C 393.207031 375.324219 393.34375 375.707031 393.484375 376.085938 L 393.867188 376.085938 C 393.585938 375.328125 393.316406 374.550781 393.050781 373.75 C 393.050781 373.695312 393.046875 373.644531 393.046875 373.585938 C 393.054688 372.851562 393.082031 372.089844 393.148438 371.277344 C 393.179688 370.875 393.226562 370.484375 393.265625 370.085938 C 393.515625 367.554688 393.882812 365.179688 394.316406 363.03125 C 394.59375 361.636719 394.894531 360.34375 395.203125 359.152344 C 395.355469 360.449219 395.488281 361.75 395.597656 363.03125 C 395.804688 365.457031 395.933594 367.828125 396.011719 370.085938 C 396.050781 371.292969 396.078125 372.460938 396.089844 373.585938 C 396.101562 374.449219 396.101562 375.277344 396.097656 376.085938 L 396.460938 376.085938 C 396.460938 375.277344 396.460938 374.449219 396.449219 373.585938 " fill-opacity="1" fill-rule="nonzero"/><path fill="#40bb6a" d="M 391.589844 344.867188 C 391.804688 344.847656 392.019531 344.796875 392.230469 344.738281 C 392.3125 344.71875 392.394531 344.714844 392.476562 344.691406 L 387.933594 330.878906 C 384.628906 331.96875 384.296875 335.5 385.550781 339.3125 C 386.351562 341.746094 387.558594 343.339844 388.902344 344.183594 C 389.765625 344.722656 390.679688 344.960938 391.589844 344.867188 " fill-opacity="1" fill-rule="nonzero"/><path fill="#00a650" d="M 392.476562 344.691406 C 392.511719 344.679688 392.542969 344.65625 392.578125 344.644531 C 394.011719 344.132812 395.011719 342.898438 395.347656 341.117188 C 395.59375 339.78125 395.488281 338.15625 394.859375 336.253906 C 394.257812 334.414062 393.390625 332.855469 392.289062 331.84375 C 391.335938 330.96875 390.203125 330.519531 388.902344 330.671875 C 388.585938 330.707031 388.269531 330.769531 387.933594 330.878906 L 392.476562 344.691406 " fill-opacity="1" fill-rule="nonzero"/><path fill="#1f5231" d="M 400.300781 370.085938 C 401.273438 368.007812 402 366.730469 402.039062 366.660156 C 402.039062 366.660156 402.042969 366.648438 402.042969 366.648438 L 401.886719 366.558594 L 401.730469 366.472656 C 401.707031 366.507812 400.933594 367.871094 399.902344 370.085938 C 399.4375 371.089844 398.921875 372.273438 398.398438 373.585938 C 398.222656 374.023438 398.050781 374.46875 397.878906 374.929688 C 397.945312 374.480469 398.011719 374.023438 398.085938 373.585938 C 398.296875 372.382812 398.519531 371.207031 398.761719 370.085938 C 399.332031 367.472656 399.984375 365.121094 400.648438 363.03125 C 402.703125 356.539062 404.847656 352.707031 404.890625 352.632812 L 404.730469 352.542969 L 404.574219 352.457031 L 404.570312 352.460938 C 404.511719 352.566406 402.339844 356.457031 400.269531 363.03125 C 399.609375 365.128906 398.957031 367.472656 398.394531 370.085938 C 398.148438 371.207031 397.929688 372.382812 397.722656 373.585938 C 397.582031 374.402344 397.449219 375.230469 397.332031 376.085938 L 397.835938 376.085938 C 398.148438 375.203125 398.46875 374.378906 398.785156 373.585938 C 399.320312 372.265625 399.835938 371.085938 400.300781 370.085938 " fill-opacity="1" fill-rule="nonzero"/><path fill="#1f5231" d="M 401.066406 373.585938 C 401.722656 373.136719 402.429688 372.742188 403.222656 372.4375 C 403.136719 372.339844 403.0625 372.238281 403.015625 372.136719 C 402.046875 372.523438 401.179688 373.007812 400.414062 373.585938 C 399.4375 374.316406 398.617188 375.175781 397.925781 376.085938 L 398.382812 376.085938 C 399.128906 375.144531 400.023438 374.296875 401.066406 373.585938 " fill-opacity="1" fill-rule="nonzero"/><path fill="#40bb6a" d="M 411.824219 369.042969 C 411.304688 368.25 409.34375 369.222656 406.972656 370.085938 C 406.898438 370.117188 406.824219 370.144531 406.746094 370.171875 C 403.710938 371.257812 402.585938 371.363281 403.015625 372.136719 L 411.824219 369.042969 " fill-opacity="1" fill-rule="nonzero"/><path fill="#00a650" d="M 408.320312 373.03125 C 410.472656 372.207031 411.613281 371.0625 411.890625 370.085938 C 412 369.703125 411.984375 369.339844 411.824219 369.042969 L 403.015625 372.136719 C 403.0625 372.238281 403.136719 372.339844 403.222656 372.4375 C 403.925781 373.261719 405.816406 373.992188 408.320312 373.03125 " fill-opacity="1" fill-rule="nonzero"/><path fill="#40bb6a" d="M 400.015625 342.566406 C 399.039062 342.539062 398.71875 344.839844 398.023438 347.375 C 397.253906 350.15625 396.734375 351.226562 397.261719 351.488281 C 397.324219 351.515625 397.394531 351.542969 397.484375 351.554688 L 400.015625 342.566406 " fill-opacity="1" fill-rule="nonzero"/><path fill="#00a650" d="M 401.265625 347.726562 C 402.050781 344.605469 401.210938 342.714844 400.015625 342.566406 L 397.484375 351.554688 C 397.527344 351.558594 397.582031 351.554688 397.628906 351.554688 C 398.671875 351.609375 400.566406 350.519531 401.265625 347.726562 " fill-opacity="1" fill-rule="nonzero"/><path fill="#40bb6a" d="M 390.128906 359.394531 C 390.191406 359.402344 390.253906 359.421875 390.316406 359.421875 L 390.289062 350.878906 C 389.710938 350.882812 389.257812 351.121094 388.902344 351.515625 C 388.222656 352.269531 387.921875 353.613281 387.929688 355.15625 C 387.933594 356.816406 388.316406 358 388.902344 358.691406 C 389.25 359.113281 389.671875 359.34375 390.128906 359.394531 " fill-opacity="1" fill-rule="nonzero"/><path fill="#00a650" d="M 392.679688 355.144531 C 392.671875 352.785156 391.980469 350.875 390.289062 350.878906 L 390.316406 359.421875 C 390.378906 359.421875 390.433594 359.402344 390.492188 359.394531 C 391.71875 359.261719 392.6875 357.804688 392.679688 355.144531 " fill-opacity="1" fill-rule="nonzero"/><path fill="#1f5231" d="M 391.511719 373.585938 C 391.066406 372.265625 390.589844 371.089844 390.128906 370.085938 C 389.636719 369.015625 389.167969 368.140625 388.773438 367.457031 C 388.753906 367.476562 388.746094 367.507812 388.71875 367.523438 C 388.636719 367.570312 388.539062 367.585938 388.445312 367.609375 C 388.816406 368.25 389.261719 369.085938 389.730469 370.085938 C 390.195312 371.082031 390.675781 372.253906 391.132812 373.585938 C 391.398438 374.367188 391.65625 375.195312 391.894531 376.085938 L 392.269531 376.085938 C 392.035156 375.195312 391.777344 374.367188 391.511719 373.585938 " fill-opacity="1" fill-rule="nonzero"/><path fill="#40bb6a" d="M 387.589844 362.441406 C 386.5 359.40625 386.398438 358.28125 385.621094 358.714844 L 388.71875 367.523438 C 388.746094 367.507812 388.753906 367.476562 388.773438 367.457031 C 389.460938 366.851562 388.449219 364.84375 387.589844 362.441406 " fill-opacity="1" fill-rule="nonzero"/><path fill="#00a650" d="M 385.621094 358.714844 C 384.699219 359.164062 383.652344 361.214844 384.730469 364.019531 C 385.789062 366.777344 387.371094 367.882812 388.445312 367.609375 C 388.539062 367.585938 388.636719 367.570312 388.71875 367.523438 L 385.621094 358.714844 " fill-opacity="1" fill-rule="nonzero"/><path fill="#ffffff" d="M 396.78125 397.5 C 395.050781 398.902344 391.988281 397.992188 389.953125 395.464844 C 387.914062 392.941406 387.667969 389.761719 389.402344 388.359375 C 391.136719 386.960938 394.195312 387.875 396.230469 390.394531 C 398.269531 392.917969 398.519531 396.101562 396.78125 397.5 Z M 383.730469 388.476562 C 383.707031 388.773438 383.695312 389.078125 383.695312 389.382812 C 383.695312 394.003906 386.183594 398.039062 389.886719 400.246094 L 402.804688 400.246094 C 406.511719 398.039062 409 394.003906 409 389.382812 C 409 389.078125 408.984375 388.773438 408.964844 388.476562 L 409 388.476562 L 409 376.085938 L 383.695312 376.085938 L 383.695312 388.476562 L 383.730469 388.476562 " fill-opacity="1" fill-rule="nonzero"/><path fill="#e9e9e9" d="M 389.402344 388.359375 C 387.667969 389.761719 387.914062 392.941406 389.953125 395.464844 C 391.988281 397.992188 395.050781 398.902344 396.78125 397.5 C 398.519531 396.101562 398.269531 392.917969 396.230469 390.394531 C 394.195312 387.875 391.136719 386.960938 389.402344 388.359375 " fill-opacity="1" fill-rule="nonzero"/><path fill="#6f4323" d="M 477.882812 127.996094 C 479.777344 127.996094 481.21875 127.460938 482.214844 126.382812 C 483.207031 125.304688 483.707031 123.757812 483.707031 121.746094 L 483.707031 118.445312 L 480.011719 118.445312 L 480.011719 121.996094 C 480.011719 123.605469 479.339844 124.410156 477.988281 124.410156 C 476.640625 124.410156 475.964844 123.605469 475.964844 121.996094 L 475.964844 108.578125 C 475.964844 106.945312 476.640625 106.125 477.988281 106.125 C 479.339844 106.125 480.011719 106.945312 480.011719 108.578125 L 480.011719 111.238281 L 483.707031 111.238281 L 483.707031 108.824219 C 483.707031 106.8125 483.207031 105.269531 482.214844 104.191406 C 481.21875 103.113281 479.777344 102.578125 477.882812 102.578125 C 475.988281 102.578125 474.542969 103.113281 473.550781 104.191406 C 472.554688 105.269531 472.058594 106.8125 472.058594 108.824219 L 472.058594 121.746094 C 472.058594 123.757812 472.554688 125.304688 473.550781 126.382812 C 474.542969 127.460938 475.988281 127.996094 477.882812 127.996094 " fill-opacity="1" fill-rule="nonzero"/><path fill="#6f4323" d="M 505.894531 107.265625 L 507.777344 119.835938 L 504.015625 119.835938 Z M 503.519531 123.207031 L 508.3125 123.207031 L 508.984375 127.714844 L 512.925781 127.714844 L 508.949219 102.863281 L 503.234375 102.863281 L 499.257812 127.714844 L 502.84375 127.714844 L 503.519531 123.207031 " fill-opacity="1" fill-rule="nonzero"/><path fill="#6f4323" d="M 532.847656 117.457031 L 537.890625 117.457031 L 537.890625 113.90625 L 532.847656 113.90625 L 532.847656 106.414062 L 539.273438 106.414062 L 539.273438 102.863281 L 528.9375 102.863281 L 528.9375 127.714844 L 532.847656 127.714844 L 532.847656 117.457031 " fill-opacity="1" fill-rule="nonzero"/><path fill="#6f4323" d="M 566.011719 124.167969 L 559.265625 124.167969 L 559.265625 116.886719 L 564.625 116.886719 L 564.625 113.335938 L 559.265625 113.335938 L 559.265625 106.414062 L 566.011719 106.414062 L 566.011719 102.863281 L 555.359375 102.863281 L 555.359375 127.714844 L 566.011719 127.714844 L 566.011719 124.167969 " fill-opacity="1" fill-rule="nonzero"/><path fill="#6f4323" d="M 434.804688 348.121094 C 434.148438 346.761719 433.484375 345.351562 432.839844 343.894531 C 431.277344 340.398438 429.8125 336.710938 428.742188 333.222656 C 427.667969 329.742188 427.003906 326.453125 427.007812 323.832031 C 427.003906 321.65625 427.464844 320.003906 428.3125 318.972656 C 428.574219 318.652344 428.898438 318.390625 429.261719 318.15625 L 438.722656 344.203125 L 444.429688 359.917969 L 441.054688 359.917969 C 440.984375 359.792969 440.90625 359.664062 440.816406 359.507812 C 439.722656 357.605469 437.308594 353.300781 434.804688 348.121094 Z M 437.054688 318.171875 C 437.058594 318.191406 437.054688 318.203125 437.058594 318.21875 L 443.65625 339.269531 L 450.125 359.917969 L 447.265625 359.917969 L 440.804688 342.121094 L 431.800781 317.335938 C 432.105469 317.304688 432.429688 317.285156 432.777344 317.285156 C 434.308594 317.285156 435.714844 317.605469 437.054688 318.171875 Z M 446.96875 328.945312 C 447.761719 330.472656 448.492188 332.097656 449.164062 333.757812 C 451.367188 339.199219 452.945312 345.132812 454 350.09375 C 454.691406 353.339844 455.167969 356.175781 455.46875 358.191406 C 455.511719 358.488281 455.554688 358.765625 455.589844 359.023438 C 455.636719 359.355469 455.679688 359.652344 455.714844 359.917969 L 452.921875 359.917969 L 445.785156 337.140625 L 440.519531 320.339844 C 442.972656 322.410156 445.140625 325.421875 446.96875 328.945312 Z M 475.789062 363.03125 L 475.789062 361.253906 C 475.789062 361.253906 475.792969 361.253906 475.792969 361.25 C 475.792969 360.515625 475.191406 359.917969 474.457031 359.917969 L 458.40625 359.917969 C 458.308594 359.152344 458.152344 358.046875 457.9375 356.683594 C 457.242188 352.3125 455.902344 345.273438 453.609375 338.1875 C 452.90625 336.011719 452.109375 333.828125 451.210938 331.710938 C 449.742188 328.253906 448 324.984375 445.921875 322.222656 C 444.242188 320.003906 442.335938 318.113281 440.148438 316.761719 C 437.964844 315.414062 435.484375 314.613281 432.777344 314.617188 C 431.34375 314.617188 430.074219 314.835938 428.96875 315.289062 C 427.3125 315.957031 426.074219 317.1875 425.351562 318.691406 C 424.621094 320.195312 424.339844 321.9375 424.339844 323.832031 C 424.347656 327.320312 425.300781 331.378906 426.691406 335.574219 C 428.351562 340.542969 430.640625 345.691406 432.808594 350.113281 C 436.117188 356.863281 439.132812 361.90625 439.144531 361.933594 C 439.203125 362.03125 439.285156 362.097656 439.363281 362.171875 L 439.363281 399.886719 L 442.03125 399.886719 L 442.03125 362.582031 L 455.890625 362.582031 L 455.890625 399.886719 L 458.558594 399.886719 L 458.558594 362.582031 L 473.121094 362.582031 L 473.121094 399.886719 L 475.789062 399.886719 L 475.789062 363.03125 " fill-opacity="1" fill-rule="nonzero"/><path fill="#6f4323" d="M 545.542969 323.089844 C 546.398438 322.042969 547.292969 321.132812 548.234375 320.339844 L 540.992188 343.445312 L 535.835938 359.917969 L 533.042969 359.917969 C 533.207031 358.671875 533.496094 356.710938 533.9375 354.277344 C 534.789062 349.554688 536.203125 343.117188 538.386719 336.921875 C 539.15625 334.734375 540.03125 332.589844 540.992188 330.558594 C 542.324219 327.757812 543.835938 325.1875 545.542969 323.089844 Z M 556.957031 317.335938 L 541.488281 359.917969 L 538.628906 359.917969 L 540.992188 352.371094 L 551.699219 318.21875 C 551.703125 318.199219 551.699219 318.175781 551.703125 318.152344 C 553.042969 317.59375 554.449219 317.285156 555.976562 317.285156 C 556.328125 317.285156 556.648438 317.304688 556.957031 317.335938 Z M 561.003906 319.863281 C 561.492188 320.851562 561.746094 322.207031 561.746094 323.832031 C 561.75 326.828125 560.875 330.691406 559.53125 334.730469 C 557.511719 340.796875 554.453125 347.273438 551.902344 352.222656 C 550.625 354.691406 549.480469 356.785156 548.652344 358.253906 C 548.25 358.964844 547.929688 359.523438 547.703125 359.917969 L 544.328125 359.917969 L 559.503906 318.140625 C 560.164062 318.558594 560.632812 319.117188 561.003906 319.863281 Z M 533.9375 342.238281 C 533.226562 344.789062 532.632812 347.269531 532.144531 349.542969 C 531.144531 354.242188 530.585938 358.074219 530.347656 359.917969 L 514.300781 359.917969 C 513.5625 359.917969 512.964844 360.515625 512.964844 361.25 L 512.964844 399.886719 L 515.632812 399.886719 L 515.632812 362.582031 L 530.195312 362.582031 L 530.195312 399.886719 L 532.863281 399.886719 L 532.863281 362.582031 L 546.726562 362.582031 L 546.726562 399.886719 L 549.394531 399.886719 L 549.394531 362.171875 C 549.46875 362.097656 549.550781 362.03125 549.609375 361.933594 C 549.625 361.914062 553.292969 355.773438 556.980469 347.976562 C 558.820312 344.078125 560.667969 339.761719 562.0625 335.574219 C 563.453125 331.378906 564.410156 327.320312 564.414062 323.832031 C 564.414062 321.316406 563.917969 319.027344 562.511719 317.289062 C 561.8125 316.425781 560.886719 315.734375 559.785156 315.289062 C 558.679688 314.835938 557.410156 314.617188 555.976562 314.617188 C 553.269531 314.613281 550.789062 315.414062 548.605469 316.761719 C 545.574219 318.640625 543.089844 321.542969 540.992188 324.945312 C 540.445312 325.839844 539.917969 326.761719 539.421875 327.714844 C 537.070312 332.238281 535.289062 337.371094 533.9375 342.238281 " fill-opacity="1" fill-rule="nonzero"/><path fill="#6f4323" d="M 496.097656 363.03125 L 496.097656 342.574219 L 521.007812 342.574219 C 521.742188 342.574219 522.339844 341.976562 522.339844 341.242188 C 522.339844 340.503906 521.742188 339.90625 521.007812 339.90625 L 468.519531 339.90625 C 467.78125 339.90625 467.183594 340.503906 467.183594 341.242188 C 467.183594 341.976562 467.78125 342.574219 468.519531 342.574219 L 493.425781 342.574219 L 493.425781 399.886719 L 496.097656 399.886719 L 496.097656 363.03125 " fill-opacity="1" fill-rule="nonzero"/><path fill="#6f4323" d="M 442.746094 111.988281 C 441.144531 113.386719 440.976562 115.816406 442.371094 117.417969 C 443.765625 119.023438 446.199219 119.191406 447.800781 117.792969 C 449.40625 116.398438 449.574219 113.96875 448.175781 112.363281 C 446.78125 110.761719 444.347656 110.59375 442.746094 111.988281 " fill-opacity="1" fill-rule="nonzero"/><path fill="#6f4323" d="M 590.453125 117.792969 C 592.054688 116.398438 592.222656 113.96875 590.828125 112.363281 C 589.433594 110.761719 587 110.59375 585.394531 111.988281 C 583.792969 113.386719 583.628906 115.816406 585.023438 117.417969 C 586.417969 119.023438 588.851562 119.191406 590.453125 117.792969 " fill-opacity="1" fill-rule="nonzero"/><path fill="#247938" d="M 752.207031 320.398438 L 710.066406 395.5 L 752.207031 395.5 L 752.207031 320.398438 " fill-opacity="1" fill-rule="nonzero"/></svg>