<svg xmlns="http://www.w3.org/2000/svg" xmlns:xlink="http://www.w3.org/1999/xlink" width="1366" zoomAndPan="magnify" viewBox="0 0 1024.5 576" height="768" preserveAspectRatio="xMidYMid meet" version="1.0"><defs><clipPath id="2f68df2b78"><path d="M 0 0.140625 L 1024 0.140625 L 1024 575.859375 L 0 575.859375 Z M 0 0.140625 " clip-rule="nonzero"/></clipPath><clipPath id="775272540a"><path d="M 346 115.285156 L 678 115.285156 L 678 134 L 346 134 Z M 346 115.285156 " clip-rule="nonzero"/></clipPath><clipPath id="43ff49202c"><path d="M 336.652344 438 L 687.484375 438 L 687.484375 460.867188 L 336.652344 460.867188 Z M 336.652344 438 " clip-rule="nonzero"/></clipPath></defs><g clip-path="url(#2f68df2b78)"><path fill="#ffffff" d="M 0 0.140625 L 1024 0.140625 L 1024 575.859375 L 0 575.859375 Z M 0 0.140625 " fill-opacity="1" fill-rule="nonzero"/><path fill="#ffffff" d="M 0 0.140625 L 1024 0.140625 L 1024 575.859375 L 0 575.859375 Z M 0 0.140625 " fill-opacity="1" fill-rule="nonzero"/></g><path fill="#c7463b" d="M 355.15625 257.789062 L 668.914062 257.789062 L 668.914062 438.457031 L 355.15625 438.457031 Z M 355.15625 257.789062 " fill-opacity="1" fill-rule="nonzero"/><path fill="#c7463b" d="M 355.15625 133.074219 L 668.914062 133.074219 L 668.914062 162.566406 L 355.15625 162.566406 Z M 355.15625 133.074219 " fill-opacity="1" fill-rule="nonzero"/><path fill="#e2ac7a" d="M 685.425781 231.953125 L 338.710938 231.953125 L 355.15625 162.609375 L 668.980469 162.609375 Z M 685.425781 231.953125 " fill-opacity="1" fill-rule="nonzero"/><g clip-path="url(#775272540a)"><path fill="#e0e0e0" d="M 346.246094 115.394531 L 677.890625 115.394531 L 677.890625 133.09375 L 346.246094 133.09375 Z M 346.246094 115.394531 " fill-opacity="1" fill-rule="nonzero"/></g><path fill="#da922a" d="M 494.800781 277.523438 C 494.238281 277.523438 493.671875 277.496094 493.109375 277.4375 C 492.550781 277.382812 491.992188 277.300781 491.4375 277.191406 C 490.882812 277.078125 490.335938 276.941406 489.796875 276.777344 C 489.257812 276.613281 488.726562 276.421875 488.203125 276.207031 C 487.683594 275.988281 487.171875 275.75 486.675781 275.480469 C 486.175781 275.214844 485.695312 274.925781 485.226562 274.609375 C 484.753906 274.296875 484.304688 273.957031 483.867188 273.597656 C 483.429688 273.238281 483.015625 272.859375 482.617188 272.460938 C 482.21875 272.058594 481.839844 271.640625 481.480469 271.203125 C 481.125 270.765625 480.789062 270.3125 480.476562 269.84375 C 480.164062 269.371094 479.875 268.886719 479.609375 268.390625 C 479.347656 267.890625 479.105469 267.378906 478.890625 266.855469 C 478.675781 266.335938 478.488281 265.804688 478.328125 265.261719 C 478.164062 264.722656 478.03125 264.171875 477.921875 263.621094 C 477.8125 263.066406 477.730469 262.507812 477.679688 261.945312 C 477.625 261.382812 477.601562 260.820312 477.601562 260.253906 L 477.601562 231.953125 L 512.070312 231.953125 L 512.070312 260.253906 C 512.070312 260.820312 512.039062 261.382812 511.984375 261.945312 C 511.929688 262.507812 511.847656 263.070312 511.738281 263.625 C 511.625 264.179688 511.488281 264.726562 511.324219 265.265625 C 511.160156 265.808594 510.96875 266.339844 510.753906 266.863281 C 510.539062 267.386719 510.296875 267.894531 510.03125 268.394531 C 509.761719 268.894531 509.472656 269.378906 509.160156 269.847656 C 508.84375 270.316406 508.507812 270.773438 508.148438 271.207031 C 507.789062 271.644531 507.410156 272.066406 507.011719 272.464844 C 506.609375 272.863281 506.191406 273.242188 505.753906 273.601562 C 505.320312 273.960938 504.863281 274.296875 504.394531 274.613281 C 503.925781 274.925781 503.441406 275.214844 502.941406 275.484375 C 502.441406 275.75 501.933594 275.992188 501.410156 276.207031 C 500.886719 276.425781 500.355469 276.613281 499.8125 276.777344 C 499.273438 276.941406 498.722656 277.082031 498.167969 277.191406 C 497.617188 277.300781 497.054688 277.382812 496.492188 277.4375 C 495.929688 277.496094 495.367188 277.523438 494.800781 277.523438 Z M 494.800781 277.523438 " fill-opacity="1" fill-rule="nonzero"/><path fill="#e0e0e0" d="M 443.066406 231.953125 L 477.535156 231.953125 L 477.535156 260.324219 C 477.535156 260.886719 477.507812 261.453125 477.449219 262.015625 C 477.394531 262.578125 477.3125 263.136719 477.203125 263.691406 C 477.089844 264.246094 476.953125 264.792969 476.789062 265.335938 C 476.625 265.875 476.4375 266.410156 476.21875 266.929688 C 476.003906 267.453125 475.761719 267.964844 475.496094 268.460938 C 475.226562 268.960938 474.9375 269.445312 474.625 269.917969 C 474.308594 270.386719 473.972656 270.839844 473.613281 271.277344 C 473.253906 271.714844 472.875 272.132812 472.476562 272.53125 C 472.078125 272.933594 471.65625 273.3125 471.222656 273.671875 C 470.785156 274.03125 470.328125 274.367188 469.859375 274.679688 C 469.390625 274.996094 468.90625 275.285156 468.40625 275.550781 C 467.90625 275.820312 467.398438 276.058594 466.875 276.277344 C 466.351562 276.492188 465.820312 276.683594 465.277344 276.847656 C 464.738281 277.011719 464.191406 277.148438 463.636719 277.257812 C 463.082031 277.371094 462.523438 277.453125 461.960938 277.507812 C 461.394531 277.5625 460.832031 277.589844 460.265625 277.589844 C 459.699219 277.589844 459.136719 277.5625 458.574219 277.507812 C 458.011719 277.453125 457.453125 277.371094 456.898438 277.257812 C 456.34375 277.148438 455.796875 277.011719 455.253906 276.847656 C 454.714844 276.683594 454.179688 276.492188 453.660156 276.277344 C 453.136719 276.058594 452.625 275.820312 452.125 275.550781 C 451.628906 275.285156 451.144531 274.996094 450.671875 274.679688 C 450.203125 274.367188 449.75 274.03125 449.3125 273.671875 C 448.875 273.3125 448.457031 272.933594 448.058594 272.53125 C 447.65625 272.132812 447.277344 271.714844 446.917969 271.277344 C 446.558594 270.839844 446.222656 270.386719 445.910156 269.917969 C 445.59375 269.445312 445.304688 268.960938 445.039062 268.460938 C 444.773438 267.964844 444.53125 267.453125 444.3125 266.929688 C 444.097656 266.410156 443.90625 265.875 443.742188 265.335938 C 443.578125 264.792969 443.441406 264.246094 443.332031 263.691406 C 443.21875 263.136719 443.136719 262.578125 443.082031 262.015625 C 443.027344 261.453125 443 260.886719 443 260.324219 L 443 231.953125 Z M 443.066406 231.953125 " fill-opacity="1" fill-rule="nonzero"/><path fill="#da922a" d="M 425.867188 277.523438 C 425.304688 277.523438 424.738281 277.496094 424.175781 277.4375 C 423.613281 277.382812 423.054688 277.300781 422.5 277.191406 C 421.945312 277.082031 421.398438 276.941406 420.855469 276.777344 C 420.316406 276.613281 419.785156 276.425781 419.261719 276.207031 C 418.738281 275.992188 418.226562 275.75 417.730469 275.484375 C 417.230469 275.214844 416.746094 274.925781 416.277344 274.613281 C 415.804688 274.296875 415.351562 273.960938 414.914062 273.601562 C 414.476562 273.242188 414.058594 272.863281 413.660156 272.464844 C 413.257812 272.066406 412.878906 271.644531 412.519531 271.207031 C 412.164062 270.773438 411.824219 270.316406 411.511719 269.847656 C 411.199219 269.378906 410.90625 268.894531 410.640625 268.394531 C 410.375 267.894531 410.132812 267.386719 409.914062 266.863281 C 409.699219 266.339844 409.507812 265.808594 409.34375 265.265625 C 409.179688 264.726562 409.042969 264.179688 408.933594 263.625 C 408.824219 263.070312 408.738281 262.507812 408.683594 261.945312 C 408.628906 261.382812 408.601562 260.820312 408.601562 260.253906 L 408.601562 231.953125 L 443.066406 231.953125 L 443.066406 260.253906 C 443.070312 260.820312 443.042969 261.382812 442.992188 261.945312 C 442.9375 262.507812 442.855469 263.066406 442.75 263.621094 C 442.640625 264.171875 442.503906 264.722656 442.34375 265.261719 C 442.179688 265.804688 441.992188 266.335938 441.777344 266.855469 C 441.5625 267.378906 441.324219 267.890625 441.058594 268.390625 C 440.792969 268.886719 440.503906 269.371094 440.191406 269.84375 C 439.878906 270.3125 439.546875 270.765625 439.1875 271.203125 C 438.832031 271.640625 438.453125 272.058594 438.054688 272.460938 C 437.65625 272.859375 437.238281 273.238281 436.804688 273.597656 C 436.367188 273.957031 435.914062 274.292969 435.445312 274.609375 C 434.976562 274.921875 434.492188 275.214844 433.996094 275.480469 C 433.496094 275.75 432.988281 275.988281 432.464844 276.207031 C 431.945312 276.421875 431.414062 276.613281 430.875 276.777344 C 430.332031 276.941406 429.785156 277.078125 429.234375 277.191406 C 428.679688 277.300781 428.121094 277.382812 427.558594 277.4375 C 426.996094 277.496094 426.433594 277.523438 425.867188 277.523438 Z M 425.867188 277.523438 " fill-opacity="1" fill-rule="nonzero"/><path fill="#e0e0e0" d="M 373.246094 231.953125 L 408.601562 231.953125 L 408.601562 260.324219 C 408.601562 260.886719 408.574219 261.453125 408.519531 262.015625 C 408.464844 262.578125 408.378906 263.136719 408.269531 263.691406 C 408.160156 264.246094 408.023438 264.792969 407.859375 265.335938 C 407.695312 265.875 407.503906 266.410156 407.289062 266.929688 C 407.070312 267.453125 406.828125 267.964844 406.5625 268.460938 C 406.296875 268.960938 406.003906 269.445312 405.691406 269.917969 C 405.378906 270.386719 405.039062 270.839844 404.683594 271.277344 C 404.324219 271.714844 403.945312 272.132812 403.542969 272.53125 C 403.144531 272.933594 402.726562 273.3125 402.289062 273.671875 C 401.851562 274.03125 401.398438 274.367188 400.925781 274.679688 C 400.457031 274.996094 399.972656 275.285156 399.472656 275.550781 C 398.976562 275.820312 398.464844 276.058594 397.941406 276.277344 C 397.417969 276.492188 396.886719 276.683594 396.347656 276.847656 C 395.804688 277.011719 395.257812 277.148438 394.703125 277.257812 C 394.148438 277.371094 393.589844 277.453125 393.027344 277.507812 C 392.464844 277.5625 391.898438 277.589844 391.335938 277.589844 L 390.445312 277.589844 C 389.878906 277.589844 389.3125 277.5625 388.75 277.507812 C 388.1875 277.453125 387.628906 277.371094 387.074219 277.257812 C 386.519531 277.148438 385.972656 277.011719 385.429688 276.847656 C 384.890625 276.683594 384.359375 276.492188 383.835938 276.277344 C 383.3125 276.058594 382.800781 275.820312 382.304688 275.550781 C 381.804688 275.285156 381.320312 274.996094 380.851562 274.679688 C 380.378906 274.367188 379.925781 274.03125 379.488281 273.671875 C 379.050781 273.3125 378.632812 272.933594 378.234375 272.53125 C 377.832031 272.132812 377.453125 271.714844 377.09375 271.277344 C 376.738281 270.839844 376.398438 270.386719 376.085938 269.917969 C 375.773438 269.445312 375.480469 268.960938 375.214844 268.460938 C 374.949219 267.964844 374.707031 267.453125 374.492188 266.929688 C 374.273438 266.410156 374.082031 265.875 373.917969 265.335938 C 373.753906 264.792969 373.617188 264.246094 373.507812 263.691406 C 373.398438 263.136719 373.316406 262.578125 373.257812 262.015625 C 373.203125 261.453125 373.175781 260.886719 373.175781 260.324219 L 373.175781 231.953125 Z M 373.246094 231.953125 " fill-opacity="1" fill-rule="nonzero"/><path fill="#da922a" d="M 355.976562 277.523438 C 355.410156 277.523438 354.847656 277.496094 354.285156 277.4375 C 353.722656 277.382812 353.164062 277.300781 352.609375 277.191406 C 352.054688 277.082031 351.507812 276.941406 350.964844 276.777344 C 350.421875 276.613281 349.890625 276.425781 349.371094 276.207031 C 348.847656 275.992188 348.335938 275.75 347.835938 275.484375 C 347.339844 275.214844 346.855469 274.925781 346.382812 274.613281 C 345.914062 274.296875 345.460938 273.960938 345.023438 273.601562 C 344.585938 273.242188 344.167969 272.863281 343.765625 272.464844 C 343.367188 272.066406 342.988281 271.644531 342.628906 271.207031 C 342.269531 270.773438 341.933594 270.316406 341.621094 269.847656 C 341.304688 269.378906 341.015625 268.894531 340.75 268.394531 C 340.480469 267.894531 340.242188 267.386719 340.023438 266.863281 C 339.808594 266.339844 339.617188 265.808594 339.453125 265.265625 C 339.289062 264.726562 339.152344 264.179688 339.042969 263.625 C 338.929688 263.070312 338.847656 262.507812 338.792969 261.945312 C 338.738281 261.382812 338.710938 260.820312 338.710938 260.253906 L 338.710938 231.953125 L 373.246094 231.953125 L 373.246094 260.253906 C 373.246094 260.820312 373.21875 261.382812 373.160156 261.945312 C 373.105469 262.507812 373.023438 263.070312 372.914062 263.625 C 372.800781 264.179688 372.664062 264.726562 372.5 265.265625 C 372.335938 265.808594 372.148438 266.339844 371.929688 266.863281 C 371.714844 267.386719 371.472656 267.894531 371.207031 268.394531 C 370.9375 268.894531 370.648438 269.378906 370.335938 269.847656 C 370.019531 270.316406 369.683594 270.773438 369.324219 271.207031 C 368.964844 271.644531 368.585938 272.066406 368.1875 272.464844 C 367.789062 272.863281 367.367188 273.242188 366.929688 273.601562 C 366.496094 273.960938 366.039062 274.296875 365.570312 274.613281 C 365.101562 274.925781 364.617188 275.214844 364.117188 275.484375 C 363.617188 275.75 363.109375 275.992188 362.585938 276.207031 C 362.0625 276.425781 361.53125 276.613281 360.988281 276.777344 C 360.449219 276.941406 359.902344 277.082031 359.347656 277.191406 C 358.792969 277.300781 358.234375 277.382812 357.667969 277.4375 C 357.105469 277.496094 356.542969 277.523438 355.976562 277.523438 Z M 355.976562 277.523438 " fill-opacity="1" fill-rule="nonzero"/><path fill="#e0e0e0" d="M 650.894531 231.953125 L 685.425781 231.953125 L 685.425781 260.324219 C 685.425781 260.886719 685.398438 261.453125 685.34375 262.015625 C 685.289062 262.578125 685.207031 263.136719 685.09375 263.691406 C 684.984375 264.246094 684.847656 264.792969 684.683594 265.335938 C 684.519531 265.875 684.328125 266.410156 684.113281 266.929688 C 683.894531 267.453125 683.65625 267.964844 683.386719 268.460938 C 683.121094 268.960938 682.832031 269.445312 682.515625 269.917969 C 682.203125 270.386719 681.867188 270.839844 681.507812 271.277344 C 681.148438 271.714844 680.769531 272.132812 680.371094 272.53125 C 679.96875 272.933594 679.550781 273.3125 679.113281 273.671875 C 678.675781 274.03125 678.222656 274.367188 677.753906 274.679688 C 677.28125 274.996094 676.796875 275.285156 676.300781 275.550781 C 675.800781 275.820312 675.289062 276.058594 674.769531 276.277344 C 674.246094 276.492188 673.714844 276.683594 673.171875 276.847656 C 672.632812 277.011719 672.082031 277.148438 671.527344 277.257812 C 670.972656 277.371094 670.414062 277.453125 669.851562 277.507812 C 669.289062 277.5625 668.726562 277.589844 668.160156 277.589844 C 667.59375 277.589844 667.03125 277.5625 666.46875 277.507812 C 665.90625 277.453125 665.347656 277.371094 664.792969 277.257812 C 664.238281 277.148438 663.6875 277.011719 663.148438 276.847656 C 662.605469 276.683594 662.074219 276.492188 661.550781 276.277344 C 661.03125 276.058594 660.519531 275.820312 660.019531 275.550781 C 659.519531 275.285156 659.035156 274.996094 658.566406 274.679688 C 658.097656 274.367188 657.644531 274.03125 657.207031 273.671875 C 656.769531 273.3125 656.351562 272.933594 655.949219 272.53125 C 655.550781 272.132812 655.171875 271.714844 654.8125 271.277344 C 654.453125 270.839844 654.117188 270.386719 653.800781 269.917969 C 653.488281 269.445312 653.199219 268.960938 652.929688 268.460938 C 652.664062 267.964844 652.421875 267.453125 652.207031 266.929688 C 651.992188 266.410156 651.800781 265.875 651.636719 265.335938 C 651.472656 264.792969 651.335938 264.246094 651.222656 263.691406 C 651.113281 263.136719 651.03125 262.578125 650.976562 262.015625 C 650.921875 261.453125 650.894531 260.886719 650.894531 260.324219 Z M 650.894531 231.953125 " fill-opacity="1" fill-rule="nonzero"/><path fill="#da922a" d="M 633.695312 277.523438 C 633.128906 277.523438 632.5625 277.496094 632 277.4375 C 631.4375 277.382812 630.878906 277.300781 630.324219 277.191406 C 629.769531 277.082031 629.222656 276.941406 628.679688 276.777344 C 628.140625 276.613281 627.609375 276.425781 627.085938 276.207031 C 626.5625 275.992188 626.054688 275.75 625.554688 275.484375 C 625.054688 275.214844 624.570312 274.925781 624.101562 274.613281 C 623.628906 274.296875 623.175781 273.960938 622.738281 273.601562 C 622.300781 273.242188 621.882812 272.863281 621.484375 272.464844 C 621.085938 272.066406 620.703125 271.644531 620.347656 271.207031 C 619.988281 270.773438 619.652344 270.316406 619.335938 269.847656 C 619.023438 269.378906 618.730469 268.894531 618.464844 268.394531 C 618.199219 267.894531 617.957031 267.386719 617.742188 266.863281 C 617.523438 266.339844 617.335938 265.808594 617.171875 265.265625 C 617.003906 264.726562 616.867188 264.179688 616.757812 263.625 C 616.648438 263.070312 616.566406 262.507812 616.507812 261.945312 C 616.453125 261.382812 616.425781 260.820312 616.425781 260.253906 L 616.425781 231.953125 L 650.894531 231.953125 L 650.894531 260.253906 C 650.894531 260.820312 650.871094 261.382812 650.816406 261.945312 C 650.761719 262.507812 650.683594 263.066406 650.574219 263.621094 C 650.464844 264.171875 650.332031 264.722656 650.167969 265.261719 C 650.007812 265.804688 649.816406 266.335938 649.601562 266.855469 C 649.386719 267.378906 649.148438 267.890625 648.882812 268.390625 C 648.621094 268.886719 648.332031 269.371094 648.019531 269.84375 C 647.707031 270.3125 647.371094 270.765625 647.011719 271.203125 C 646.65625 271.640625 646.277344 272.058594 645.878906 272.460938 C 645.480469 272.859375 645.0625 273.238281 644.628906 273.597656 C 644.191406 273.957031 643.738281 274.296875 643.269531 274.609375 C 642.800781 274.925781 642.316406 275.214844 641.820312 275.480469 C 641.324219 275.75 640.8125 275.988281 640.292969 276.207031 C 639.769531 276.421875 639.238281 276.613281 638.699219 276.777344 C 638.160156 276.941406 637.613281 277.078125 637.058594 277.191406 C 636.503906 277.300781 635.945312 277.382812 635.382812 277.4375 C 634.820312 277.496094 634.257812 277.523438 633.695312 277.523438 Z M 633.695312 277.523438 " fill-opacity="1" fill-rule="nonzero"/><path fill="#e0e0e0" d="M 581.070312 231.953125 L 616.425781 231.953125 L 616.425781 260.324219 C 616.425781 260.886719 616.398438 261.453125 616.34375 262.015625 C 616.289062 262.578125 616.203125 263.136719 616.09375 263.691406 C 615.984375 264.246094 615.847656 264.792969 615.683594 265.335938 C 615.519531 265.875 615.328125 266.410156 615.113281 266.929688 C 614.894531 267.453125 614.652344 267.964844 614.386719 268.460938 C 614.121094 268.960938 613.832031 269.445312 613.515625 269.917969 C 613.203125 270.386719 612.867188 270.839844 612.507812 271.277344 C 612.148438 271.714844 611.769531 272.132812 611.367188 272.53125 C 610.96875 272.933594 610.550781 273.3125 610.113281 273.671875 C 609.675781 274.03125 609.222656 274.367188 608.753906 274.679688 C 608.28125 274.996094 607.796875 275.285156 607.300781 275.550781 C 606.800781 275.820312 606.289062 276.058594 605.765625 276.277344 C 605.246094 276.492188 604.710938 276.683594 604.171875 276.847656 C 603.628906 277.011719 603.082031 277.148438 602.527344 277.257812 C 601.972656 277.371094 601.414062 277.453125 600.851562 277.507812 C 600.289062 277.5625 599.726562 277.589844 599.160156 277.589844 L 598.269531 277.589844 C 597.703125 277.589844 597.136719 277.5625 596.574219 277.507812 C 596.011719 277.453125 595.453125 277.371094 594.898438 277.257812 C 594.34375 277.148438 593.796875 277.011719 593.257812 276.847656 C 592.714844 276.683594 592.183594 276.492188 591.660156 276.277344 C 591.136719 276.058594 590.628906 275.820312 590.128906 275.550781 C 589.628906 275.285156 589.144531 274.996094 588.675781 274.679688 C 588.203125 274.367188 587.75 274.03125 587.3125 273.671875 C 586.875 273.3125 586.457031 272.933594 586.058594 272.53125 C 585.660156 272.132812 585.277344 271.714844 584.921875 271.277344 C 584.5625 270.839844 584.226562 270.386719 583.910156 269.917969 C 583.597656 269.445312 583.304688 268.960938 583.039062 268.460938 C 582.773438 267.964844 582.53125 267.453125 582.316406 266.929688 C 582.097656 266.410156 581.910156 265.875 581.746094 265.335938 C 581.582031 264.792969 581.441406 264.246094 581.332031 263.691406 C 581.222656 263.136719 581.140625 262.578125 581.085938 262.015625 C 581.027344 261.453125 581 260.886719 581 260.324219 L 581 231.953125 Z M 581.070312 231.953125 " fill-opacity="1" fill-rule="nonzero"/><path fill="#da922a" d="M 563.800781 277.523438 C 563.238281 277.523438 562.671875 277.496094 562.109375 277.4375 C 561.546875 277.382812 560.988281 277.300781 560.433594 277.191406 C 559.878906 277.082031 559.332031 276.941406 558.789062 276.777344 C 558.25 276.613281 557.714844 276.425781 557.195312 276.207031 C 556.671875 275.992188 556.160156 275.75 555.664062 275.484375 C 555.164062 275.214844 554.679688 274.925781 554.207031 274.613281 C 553.738281 274.296875 553.285156 273.960938 552.847656 273.601562 C 552.410156 273.242188 551.992188 272.863281 551.59375 272.464844 C 551.191406 272.066406 550.8125 271.644531 550.453125 271.210938 C 550.09375 270.773438 549.757812 270.316406 549.445312 269.847656 C 549.128906 269.378906 548.839844 268.894531 548.574219 268.394531 C 548.308594 267.894531 548.066406 267.386719 547.847656 266.863281 C 547.632812 266.339844 547.441406 265.808594 547.277344 265.265625 C 547.113281 264.726562 546.976562 264.179688 546.867188 263.625 C 546.757812 263.070312 546.671875 262.507812 546.617188 261.945312 C 546.5625 261.382812 546.535156 260.820312 546.535156 260.253906 L 546.535156 231.953125 L 581.070312 231.953125 L 581.070312 260.253906 C 581.070312 260.820312 581.042969 261.382812 580.984375 261.945312 C 580.929688 262.507812 580.847656 263.070312 580.738281 263.625 C 580.628906 264.179688 580.488281 264.726562 580.324219 265.265625 C 580.160156 265.808594 579.972656 266.339844 579.753906 266.863281 C 579.539062 267.386719 579.296875 267.894531 579.03125 268.394531 C 578.765625 268.894531 578.472656 269.378906 578.160156 269.847656 C 577.84375 270.316406 577.507812 270.773438 577.148438 271.210938 C 576.792969 271.644531 576.410156 272.066406 576.011719 272.464844 C 575.613281 272.863281 575.195312 273.242188 574.757812 273.601562 C 574.320312 273.960938 573.867188 274.296875 573.394531 274.613281 C 572.925781 274.925781 572.441406 275.214844 571.941406 275.484375 C 571.441406 275.75 570.933594 275.992188 570.410156 276.207031 C 569.886719 276.425781 569.355469 276.613281 568.816406 276.777344 C 568.273438 276.941406 567.726562 277.082031 567.171875 277.191406 C 566.617188 277.300781 566.058594 277.382812 565.496094 277.4375 C 564.933594 277.496094 564.367188 277.523438 563.800781 277.523438 Z M 563.800781 277.523438 " fill-opacity="1" fill-rule="nonzero"/><path fill="#e0e0e0" d="M 512.070312 231.953125 L 546.535156 231.953125 L 546.535156 260.324219 C 546.535156 260.886719 546.507812 261.453125 546.453125 262.015625 C 546.394531 262.578125 546.3125 263.136719 546.203125 263.691406 C 546.09375 264.246094 545.957031 264.792969 545.792969 265.335938 C 545.628906 265.875 545.4375 266.410156 545.21875 266.929688 C 545.003906 267.453125 544.761719 267.964844 544.496094 268.460938 C 544.230469 268.960938 543.9375 269.445312 543.625 269.917969 C 543.308594 270.386719 542.972656 270.839844 542.617188 271.277344 C 542.257812 271.714844 541.878906 272.132812 541.476562 272.53125 C 541.078125 272.933594 540.660156 273.3125 540.222656 273.671875 C 539.785156 274.03125 539.332031 274.367188 538.859375 274.679688 C 538.390625 274.996094 537.90625 275.285156 537.40625 275.550781 C 536.910156 275.820312 536.398438 276.058594 535.875 276.277344 C 535.351562 276.492188 534.820312 276.683594 534.28125 276.847656 C 533.738281 277.011719 533.191406 277.148438 532.636719 277.257812 C 532.082031 277.371094 531.523438 277.453125 530.960938 277.507812 C 530.398438 277.5625 529.832031 277.589844 529.265625 277.589844 C 528.703125 277.589844 528.136719 277.558594 527.574219 277.5 C 527.011719 277.441406 526.453125 277.359375 525.898438 277.246094 C 525.347656 277.132812 524.796875 276.992188 524.257812 276.828125 C 523.71875 276.660156 523.1875 276.46875 522.664062 276.25 C 522.144531 276.03125 521.632812 275.789062 521.136719 275.519531 C 520.636719 275.25 520.15625 274.957031 519.6875 274.644531 C 519.214844 274.328125 518.765625 273.988281 518.328125 273.628906 C 517.894531 273.265625 517.476562 272.886719 517.078125 272.484375 C 516.679688 272.082031 516.300781 271.664062 515.945312 271.222656 C 515.585938 270.785156 515.253906 270.332031 514.941406 269.859375 C 514.628906 269.386719 514.339844 268.902344 514.074219 268.402344 C 513.8125 267.902344 513.570312 267.390625 513.355469 266.867188 C 513.140625 266.34375 512.953125 265.8125 512.792969 265.269531 C 512.628906 264.726562 512.496094 264.179688 512.386719 263.625 C 512.277344 263.070312 512.199219 262.511719 512.144531 261.945312 C 512.09375 261.382812 512.066406 260.820312 512.070312 260.253906 Z M 512.070312 231.953125 " fill-opacity="1" fill-rule="nonzero"/><path fill="#e0e0e0" d="M 607.449219 296.296875 L 614.234375 296.296875 C 615.265625 296.296875 616.296875 296.347656 617.324219 296.449219 C 618.351562 296.550781 619.371094 296.703125 620.382812 296.902344 C 621.394531 297.105469 622.394531 297.355469 623.382812 297.65625 C 624.371094 297.953125 625.34375 298.300781 626.296875 298.695312 C 627.25 299.09375 628.179688 299.53125 629.09375 300.019531 C 630.003906 300.507812 630.886719 301.035156 631.746094 301.609375 C 632.601562 302.183594 633.433594 302.796875 634.230469 303.453125 C 635.027344 304.109375 635.792969 304.800781 636.523438 305.53125 C 637.25 306.261719 637.945312 307.023438 638.597656 307.820312 C 639.253906 308.621094 639.867188 309.449219 640.441406 310.308594 C 641.015625 311.164062 641.546875 312.050781 642.03125 312.960938 C 642.519531 313.871094 642.960938 314.800781 643.355469 315.757812 C 643.75 316.710938 644.097656 317.679688 644.394531 318.667969 C 644.695312 319.65625 644.945312 320.65625 645.148438 321.667969 C 645.347656 322.683594 645.5 323.703125 645.601562 324.730469 C 645.703125 325.757812 645.753906 326.785156 645.753906 327.820312 L 645.753906 438.484375 L 575.863281 438.484375 L 575.863281 327.886719 C 575.859375 326.851562 575.910156 325.820312 576.007812 324.789062 C 576.105469 323.757812 576.257812 322.734375 576.457031 321.71875 C 576.65625 320.703125 576.90625 319.699219 577.207031 318.710938 C 577.503906 317.71875 577.851562 316.746094 578.246094 315.789062 C 578.644531 314.832031 579.085938 313.894531 579.570312 312.984375 C 580.058594 312.070312 580.589844 311.183594 581.164062 310.320312 C 581.738281 309.460938 582.355469 308.628906 583.011719 307.828125 C 583.667969 307.027344 584.363281 306.261719 585.09375 305.53125 C 585.824219 304.796875 586.59375 304.105469 587.390625 303.449219 C 588.191406 302.789062 589.023438 302.175781 589.882812 301.601562 C 590.746094 301.027344 591.632812 300.496094 592.546875 300.007812 C 593.460938 299.519531 594.394531 299.078125 595.351562 298.683594 C 596.308594 298.289062 597.28125 297.941406 598.273438 297.644531 C 599.265625 297.34375 600.265625 297.09375 601.28125 296.894531 C 602.296875 296.691406 603.320312 296.542969 604.351562 296.445312 C 605.382812 296.34375 606.414062 296.296875 607.449219 296.296875 Z M 607.449219 296.296875 " fill-opacity="1" fill-rule="nonzero"/><path fill="#777777" d="M 645.753906 442.597656 L 575.863281 442.597656 C 575.59375 442.597656 575.324219 442.570312 575.058594 442.515625 C 574.796875 442.464844 574.539062 442.386719 574.289062 442.285156 C 574.039062 442.179688 573.800781 442.054688 573.578125 441.902344 C 573.351562 441.753906 573.144531 441.582031 572.953125 441.390625 C 572.765625 441.203125 572.59375 440.992188 572.445312 440.769531 C 572.292969 440.542969 572.167969 440.308594 572.0625 440.058594 C 571.960938 439.808594 571.882812 439.550781 571.828125 439.289062 C 571.777344 439.023438 571.75 438.753906 571.75 438.484375 L 571.75 327.886719 C 571.753906 326.71875 571.8125 325.554688 571.929688 324.390625 C 572.046875 323.226562 572.21875 322.074219 572.449219 320.925781 C 572.675781 319.78125 572.960938 318.648438 573.304688 317.53125 C 573.644531 316.414062 574.039062 315.316406 574.488281 314.234375 C 574.933594 313.15625 575.433594 312.101562 575.984375 311.070312 C 576.539062 310.042969 577.136719 309.039062 577.789062 308.070312 C 578.4375 307.097656 579.132812 306.160156 579.875 305.257812 C 580.617188 304.355469 581.402344 303.488281 582.226562 302.664062 C 583.054688 301.835938 583.917969 301.050781 584.820312 300.3125 C 585.722656 299.570312 586.660156 298.875 587.632812 298.222656 C 588.605469 297.574219 589.605469 296.972656 590.636719 296.421875 C 591.664062 295.871094 592.71875 295.371094 593.800781 294.921875 C 594.878906 294.472656 595.976562 294.078125 597.09375 293.738281 C 598.210938 293.398438 599.34375 293.113281 600.492188 292.882812 C 601.636719 292.652344 602.789062 292.480469 603.953125 292.363281 C 605.117188 292.246094 606.28125 292.1875 607.449219 292.1875 L 614.234375 292.1875 C 615.402344 292.1875 616.566406 292.25 617.726562 292.363281 C 618.890625 292.480469 620.042969 292.65625 621.1875 292.882812 C 622.332031 293.113281 623.464844 293.398438 624.582031 293.738281 C 625.699219 294.082031 626.796875 294.476562 627.875 294.921875 C 628.953125 295.371094 630.007812 295.871094 631.035156 296.425781 C 632.066406 296.976562 633.0625 297.578125 634.035156 298.226562 C 635.003906 298.875 635.941406 299.574219 636.84375 300.316406 C 637.746094 301.054688 638.609375 301.839844 639.433594 302.667969 C 640.257812 303.492188 641.039062 304.359375 641.78125 305.261719 C 642.519531 306.164062 643.214844 307.101562 643.863281 308.074219 C 644.511719 309.046875 645.109375 310.046875 645.660156 311.078125 C 646.210938 312.105469 646.707031 313.160156 647.152344 314.242188 C 647.601562 315.320312 647.992188 316.417969 648.332031 317.535156 C 648.667969 318.652344 648.953125 319.785156 649.179688 320.929688 C 649.40625 322.078125 649.578125 323.230469 649.691406 324.390625 C 649.808594 325.554688 649.863281 326.71875 649.863281 327.886719 L 649.863281 438.484375 C 649.863281 438.753906 649.839844 439.023438 649.785156 439.289062 C 649.734375 439.550781 649.65625 439.808594 649.550781 440.058594 C 649.449219 440.308594 649.320312 440.542969 649.171875 440.769531 C 649.023438 440.992188 648.851562 441.203125 648.660156 441.390625 C 648.46875 441.582031 648.261719 441.753906 648.039062 441.902344 C 647.8125 442.054688 647.578125 442.179688 647.328125 442.285156 C 647.078125 442.386719 646.820312 442.464844 646.554688 442.515625 C 646.289062 442.570312 646.023438 442.597656 645.753906 442.597656 Z M 579.972656 434.375 L 641.640625 434.375 L 641.640625 327.886719 C 641.640625 326.988281 641.597656 326.09375 641.511719 325.199219 C 641.421875 324.304688 641.289062 323.417969 641.117188 322.535156 C 640.941406 321.652344 640.722656 320.78125 640.460938 319.921875 C 640.203125 319.0625 639.902344 318.21875 639.558594 317.386719 C 639.214844 316.558594 638.832031 315.746094 638.40625 314.953125 C 637.984375 314.160156 637.523438 313.390625 637.027344 312.644531 C 636.527344 311.894531 635.992188 311.175781 635.425781 310.480469 C 634.855469 309.785156 634.253906 309.117188 633.617188 308.480469 C 632.984375 307.84375 632.320312 307.242188 631.625 306.671875 C 630.933594 306.101562 630.210938 305.5625 629.464844 305.0625 C 628.71875 304.5625 627.949219 304.101562 627.160156 303.675781 C 626.367188 303.25 625.558594 302.867188 624.726562 302.519531 C 623.898438 302.175781 623.054688 301.871094 622.195312 301.609375 C 621.335938 301.347656 620.464844 301.125 619.585938 300.949219 C 618.703125 300.773438 617.816406 300.636719 616.921875 300.546875 C 616.027344 300.457031 615.132812 300.410156 614.234375 300.410156 L 607.449219 300.410156 C 606.550781 300.410156 605.652344 300.457031 604.757812 300.546875 C 603.863281 300.636719 602.976562 300.773438 602.09375 300.949219 C 601.210938 301.125 600.339844 301.34375 599.480469 301.609375 C 598.621094 301.871094 597.777344 302.175781 596.945312 302.519531 C 596.117188 302.863281 595.304688 303.25 594.511719 303.675781 C 593.71875 304.097656 592.949219 304.5625 592.199219 305.0625 C 591.453125 305.5625 590.730469 306.097656 590.039062 306.667969 C 589.34375 307.238281 588.675781 307.839844 588.039062 308.476562 C 587.40625 309.113281 586.800781 309.777344 586.230469 310.472656 C 585.660156 311.167969 585.125 311.890625 584.625 312.636719 C 584.125 313.386719 583.664062 314.15625 583.238281 314.949219 C 582.8125 315.742188 582.429688 316.550781 582.082031 317.382812 C 581.738281 318.214844 581.433594 319.058594 581.171875 319.917969 C 580.910156 320.777344 580.691406 321.648438 580.511719 322.53125 C 580.335938 323.414062 580.203125 324.300781 580.113281 325.195312 C 580.023438 326.089844 579.976562 326.988281 579.972656 327.886719 Z M 579.972656 434.375 " fill-opacity="1" fill-rule="nonzero"/><path fill="#fbe36a" d="M 631.226562 344.46875 L 631.226562 333.847656 C 631.226562 333.183594 631.191406 332.515625 631.121094 331.851562 C 631.054688 331.1875 630.957031 330.527344 630.824219 329.875 C 630.691406 329.222656 630.527344 328.574219 630.332031 327.9375 C 630.136719 327.296875 629.910156 326.671875 629.652344 326.054688 C 629.394531 325.441406 629.109375 324.835938 628.792969 324.25 C 628.476562 323.664062 628.132812 323.089844 627.761719 322.539062 C 627.390625 321.984375 626.992188 321.449219 626.566406 320.933594 C 626.144531 320.417969 625.695312 319.925781 625.222656 319.453125 C 624.75 318.984375 624.253906 318.535156 623.738281 318.113281 C 623.222656 317.691406 622.6875 317.292969 622.128906 316.925781 C 621.574219 316.554688 621.003906 316.210938 620.414062 315.898438 C 619.824219 315.585938 619.222656 315.300781 618.605469 315.046875 C 617.988281 314.789062 617.363281 314.566406 616.722656 314.371094 C 616.085938 314.179688 615.4375 314.019531 614.78125 313.886719 C 614.128906 313.757812 613.46875 313.660156 612.804688 313.59375 C 612.140625 313.53125 611.476562 313.496094 610.808594 313.496094 C 610.140625 313.496094 609.476562 313.53125 608.8125 313.59375 C 608.148438 313.660156 607.492188 313.757812 606.835938 313.886719 C 606.183594 314.019531 605.539062 314.179688 604.898438 314.375 C 604.261719 314.566406 603.636719 314.792969 603.019531 315.046875 C 602.402344 315.300781 601.800781 315.585938 601.214844 315.902344 C 600.625 316.214844 600.054688 316.558594 599.5 316.925781 C 598.945312 317.296875 598.414062 317.695312 597.898438 318.117188 C 597.382812 318.539062 596.890625 318.988281 596.417969 319.457031 C 595.945312 319.929688 595.5 320.421875 595.078125 320.9375 C 594.652344 321.453125 594.257812 321.988281 593.886719 322.542969 C 593.515625 323.097656 593.175781 323.667969 592.859375 324.253906 C 592.546875 324.84375 592.261719 325.445312 592.007812 326.0625 C 591.75 326.675781 591.527344 327.304688 591.332031 327.941406 C 591.140625 328.578125 590.976562 329.226562 590.847656 329.878906 C 590.71875 330.53125 590.621094 331.191406 590.554688 331.855469 C 590.488281 332.515625 590.457031 333.183594 590.457031 333.847656 L 590.457031 421.355469 L 631.226562 421.355469 L 631.226562 389.148438 " fill-opacity="1" fill-rule="nonzero"/><path fill="#e0e0e0" d="M 631.226562 337.960938 L 631.226562 329.738281 L 590.457031 329.738281 L 590.457031 337.960938 L 606.695312 337.960938 L 606.695312 362.011719 L 590.457031 362.011719 L 590.457031 370.234375 L 606.695312 370.234375 L 606.695312 394.355469 L 590.457031 394.355469 L 590.457031 402.578125 L 606.695312 402.578125 L 606.695312 421.355469 L 614.917969 421.355469 L 614.917969 402.578125 L 631.226562 402.578125 L 631.226562 394.355469 L 614.917969 394.355469 L 614.917969 370.234375 L 631.226562 370.234375 L 631.226562 362.011719 L 614.917969 362.011719 L 614.917969 337.960938 Z M 631.226562 337.960938 " fill-opacity="1" fill-rule="nonzero"/><path fill="#777777" d="M 627.117188 355.226562 L 635.339844 355.226562 L 635.339844 377.082031 L 627.117188 377.082031 Z M 627.117188 355.226562 " fill-opacity="1" fill-rule="nonzero"/><path fill="#af0e0e" d="M 554.347656 326.652344 L 554.347656 416.351562 L 532.554688 416.351562 C 535.777344 396.34375 539.886719 377.566406 539.886719 377.566406 L 535.570312 375.441406 C 534.691406 375.007812 533.84375 374.515625 533.03125 373.96875 C 532.214844 373.421875 531.441406 372.820312 530.707031 372.167969 C 529.972656 371.519531 529.285156 370.820312 528.644531 370.078125 C 528 369.335938 527.414062 368.550781 526.875 367.730469 C 526.339844 366.90625 525.859375 366.054688 525.4375 365.167969 C 525.011719 364.28125 524.652344 363.371094 524.347656 362.4375 C 524.046875 361.503906 523.808594 360.554688 523.636719 359.585938 C 523.460938 358.621094 523.351562 357.648438 523.304688 356.667969 L 520.566406 296.296875 L 523.921875 296.296875 C 524.917969 296.296875 525.910156 296.34375 526.902344 296.4375 C 527.894531 296.535156 528.878906 296.675781 529.855469 296.871094 C 530.832031 297.0625 531.796875 297.300781 532.75 297.589844 C 533.703125 297.875 534.640625 298.210938 535.558594 298.589844 C 536.480469 298.96875 537.378906 299.390625 538.257812 299.859375 C 539.136719 300.328125 539.992188 300.839844 540.820312 301.390625 C 541.648438 301.941406 542.449219 302.535156 543.21875 303.164062 C 543.988281 303.792969 544.726562 304.460938 545.429688 305.164062 C 546.136719 305.867188 546.804688 306.605469 547.4375 307.375 C 548.070312 308.140625 548.664062 308.941406 549.214844 309.769531 C 549.769531 310.59375 550.28125 311.449219 550.75 312.324219 C 551.222656 313.203125 551.648438 314.101562 552.027344 315.019531 C 552.410156 315.941406 552.746094 316.878906 553.035156 317.828125 C 553.324219 318.78125 553.566406 319.746094 553.761719 320.722656 C 553.957031 321.699219 554.101562 322.683594 554.199219 323.675781 C 554.296875 324.664062 554.347656 325.660156 554.347656 326.652344 Z M 554.347656 326.652344 " fill-opacity="1" fill-rule="nonzero"/><path fill="#af0e0e" d="M 407.984375 296.296875 L 405.242188 356.667969 C 405.199219 357.648438 405.089844 358.621094 404.914062 359.585938 C 404.742188 360.554688 404.503906 361.503906 404.199219 362.4375 C 403.898438 363.371094 403.539062 364.28125 403.113281 365.167969 C 402.691406 366.054688 402.210938 366.90625 401.675781 367.730469 C 401.136719 368.550781 400.546875 369.335938 399.90625 370.078125 C 399.265625 370.820312 398.578125 371.519531 397.84375 372.167969 C 397.109375 372.820312 396.335938 373.421875 395.519531 373.96875 C 394.707031 374.515625 393.859375 375.007812 392.980469 375.441406 L 388.59375 377.566406 C 388.59375 377.566406 392.773438 396.34375 395.992188 416.351562 L 373.246094 416.351562 L 373.246094 326.652344 C 373.246094 325.660156 373.292969 324.667969 373.390625 323.679688 C 373.488281 322.6875 373.632812 321.707031 373.828125 320.730469 C 374.023438 319.757812 374.261719 318.792969 374.550781 317.84375 C 374.839844 316.890625 375.175781 315.957031 375.554688 315.039062 C 375.9375 314.117188 376.359375 313.222656 376.828125 312.34375 C 377.296875 311.46875 377.808594 310.617188 378.359375 309.789062 C 378.914062 308.960938 379.503906 308.164062 380.136719 307.394531 C 380.765625 306.628906 381.433594 305.890625 382.136719 305.1875 C 382.839844 304.484375 383.574219 303.820312 384.34375 303.1875 C 385.109375 302.558594 385.910156 301.964844 386.734375 301.414062 C 387.5625 300.863281 388.414062 300.351562 389.289062 299.882812 C 390.167969 299.414062 391.066406 298.988281 391.984375 298.609375 C 392.902344 298.226562 393.835938 297.894531 394.789062 297.605469 C 395.738281 297.316406 396.703125 297.074219 397.675781 296.882812 C 398.652344 296.6875 399.636719 296.542969 400.625 296.445312 C 401.613281 296.347656 402.605469 296.296875 403.597656 296.296875 Z M 407.984375 296.296875 " fill-opacity="1" fill-rule="nonzero"/><path fill="#fbe36a" d="M 539.886719 377.566406 C 539.886719 377.566406 535.777344 396.34375 532.554688 416.351562 L 395.992188 416.351562 C 392.773438 396.34375 388.59375 377.566406 388.59375 377.566406 L 392.980469 375.441406 C 393.859375 375.007812 394.707031 374.515625 395.519531 373.96875 C 396.335938 373.421875 397.109375 372.820312 397.84375 372.167969 C 398.578125 371.519531 399.265625 370.820312 399.90625 370.078125 C 400.546875 369.335938 401.136719 368.550781 401.675781 367.730469 C 402.210938 366.90625 402.691406 366.054688 403.113281 365.167969 C 403.539062 364.28125 403.898438 363.371094 404.199219 362.4375 C 404.503906 361.503906 404.742188 360.554688 404.914062 359.585938 C 405.089844 358.621094 405.199219 357.648438 405.242188 356.667969 L 407.984375 296.296875 L 520.566406 296.296875 L 523.304688 356.667969 C 523.351562 357.648438 523.460938 358.621094 523.636719 359.585938 C 523.808594 360.554688 524.046875 361.503906 524.347656 362.4375 C 524.652344 363.371094 525.011719 364.28125 525.4375 365.167969 C 525.859375 366.054688 526.339844 366.90625 526.875 367.730469 C 527.414062 368.550781 528 369.335938 528.644531 370.078125 C 529.285156 370.820312 529.972656 371.519531 530.707031 372.167969 C 531.441406 372.820312 532.214844 373.421875 533.03125 373.96875 C 533.84375 374.515625 534.691406 375.007812 535.570312 375.441406 Z M 539.886719 377.566406 " fill-opacity="1" fill-rule="nonzero"/><path fill="#da922a" d="M 488.703125 342.757812 L 437.722656 342.757812 L 458.621094 328.230469 L 469.039062 328.230469 Z M 488.703125 342.757812 " fill-opacity="1" fill-rule="nonzero"/><path fill="#777777" d="M 459.101562 296.296875 L 467.324219 296.296875 L 467.324219 328.210938 L 459.101562 328.210938 Z M 459.101562 296.296875 " fill-opacity="1" fill-rule="nonzero"/><path fill="#777777" d="M 491.03125 392.230469 L 491.03125 384.007812 L 441.972656 384.007812 L 441.972656 392.230469 L 462.390625 392.230469 L 462.390625 416.351562 L 470.613281 416.351562 L 470.613281 392.230469 Z M 491.03125 392.230469 " fill-opacity="1" fill-rule="nonzero"/><path fill="#777777" d="M 507.957031 381.882812 L 507.957031 396.753906 L 489.183594 396.753906 C 488.914062 396.753906 488.644531 396.78125 488.378906 396.832031 C 488.117188 396.886719 487.859375 396.964844 487.609375 397.066406 C 487.359375 397.171875 487.121094 397.296875 486.898438 397.445312 C 486.675781 397.597656 486.464844 397.765625 486.277344 397.957031 C 486.085938 398.148438 485.914062 398.355469 485.765625 398.582031 C 485.613281 398.804688 485.488281 399.042969 485.382812 399.292969 C 485.28125 399.542969 485.203125 399.796875 485.148438 400.0625 C 485.097656 400.328125 485.070312 400.59375 485.070312 400.867188 L 485.070312 416.351562 L 493.292969 416.351562 L 493.292969 404.976562 L 507.957031 404.976562 L 507.957031 416.351562 L 516.179688 416.351562 L 516.179688 381.882812 Z M 507.957031 381.882812 " fill-opacity="1" fill-rule="nonzero"/><path fill="#777777" d="M 442.726562 396.753906 L 423.949219 396.753906 L 423.949219 381.882812 L 415.726562 381.882812 L 415.726562 416.351562 L 423.949219 416.351562 L 423.949219 404.976562 L 438.613281 404.976562 L 438.613281 416.351562 L 446.835938 416.351562 L 446.835938 400.867188 C 446.835938 400.59375 446.808594 400.328125 446.757812 400.0625 C 446.703125 399.796875 446.625 399.542969 446.523438 399.292969 C 446.421875 399.042969 446.292969 398.804688 446.144531 398.582031 C 445.992188 398.355469 445.824219 398.148438 445.632812 397.957031 C 445.441406 397.765625 445.234375 397.597656 445.007812 397.445312 C 444.785156 397.296875 444.546875 397.171875 444.296875 397.066406 C 444.050781 396.964844 443.792969 396.886719 443.527344 396.832031 C 443.261719 396.78125 442.996094 396.753906 442.726562 396.753906 Z M 442.726562 396.753906 " fill-opacity="1" fill-rule="nonzero"/><path fill="#777777" d="M 373.246094 322.542969 L 554.347656 322.542969 L 554.347656 330.765625 L 373.246094 330.765625 Z M 373.246094 322.542969 " fill-opacity="1" fill-rule="nonzero"/><path fill="#e0e0e0" d="M 558.664062 184.125 C 558.660156 186.277344 558.511719 188.417969 558.210938 190.550781 C 557.914062 192.679688 557.46875 194.78125 556.875 196.851562 C 556.285156 198.921875 555.554688 200.9375 554.679688 202.90625 C 553.808594 204.875 552.804688 206.773438 551.671875 208.601562 C 550.535156 210.429688 549.277344 212.167969 547.902344 213.824219 C 546.523438 215.476562 545.039062 217.027344 543.445312 218.476562 C 541.851562 219.921875 540.167969 221.253906 538.390625 222.464844 C 536.613281 223.679688 534.757812 224.761719 532.832031 225.71875 C 530.195312 227.03125 527.457031 228.058594 524.609375 228.800781 C 520.574219 229.9375 516.464844 230.507812 512.273438 230.515625 C 506.835938 230.503906 501.558594 229.566406 496.445312 227.707031 C 493.566406 226.671875 490.824219 225.347656 488.222656 223.730469 C 487.367188 223.207031 486.527344 222.65625 485.703125 222.078125 C 484.882812 221.5 484.078125 220.898438 483.296875 220.265625 C 482.515625 219.636719 481.753906 218.980469 481.011719 218.300781 C 480.273438 217.625 479.554688 216.921875 478.859375 216.195312 C 478.167969 215.46875 477.496094 214.71875 476.851562 213.949219 C 476.207031 213.179688 475.585938 212.390625 474.992188 211.578125 C 474.398438 210.769531 473.828125 209.941406 473.289062 209.09375 C 472.75 208.246094 472.238281 207.382812 471.753906 206.5 C 471.269531 205.621094 470.8125 204.726562 470.386719 203.816406 C 469.960938 202.90625 469.566406 201.980469 469.199219 201.046875 C 468.835938 200.109375 468.5 199.164062 468.195312 198.207031 C 467.890625 197.25 467.617188 196.28125 467.378906 195.304688 C 467.136719 194.332031 466.925781 193.347656 466.75 192.359375 C 466.570312 191.371094 466.425781 190.375 466.316406 189.378906 C 466.203125 188.378906 466.121094 187.378906 466.074219 186.375 C 466.027344 185.371094 466.011719 184.367188 466.03125 183.363281 C 466.046875 182.359375 466.097656 181.355469 466.179688 180.351562 C 466.265625 179.351562 466.378906 178.355469 466.527344 177.359375 C 466.675781 176.367188 466.855469 175.378906 467.066406 174.398438 C 467.28125 173.414062 467.523438 172.441406 467.800781 171.472656 C 468.074219 170.507812 468.382812 169.550781 468.71875 168.605469 C 469.058594 167.660156 469.425781 166.722656 469.824219 165.800781 C 470.222656 164.878906 470.652344 163.972656 471.109375 163.078125 C 471.566406 162.183594 472.054688 161.304688 472.570312 160.441406 C 473.085938 159.578125 473.628906 158.734375 474.195312 157.90625 C 474.765625 157.078125 475.363281 156.269531 475.984375 155.480469 C 476.609375 154.691406 477.257812 153.925781 477.929688 153.179688 C 478.601562 152.433594 479.296875 151.707031 480.015625 151.007812 C 480.738281 150.304688 481.476562 149.628906 482.242188 148.976562 C 483.007812 148.324219 483.789062 147.695312 484.59375 147.09375 C 485.398438 146.492188 486.222656 145.917969 487.0625 145.367188 C 487.90625 144.820312 488.765625 144.300781 489.640625 143.808594 C 490.515625 143.3125 491.40625 142.851562 492.3125 142.417969 C 493.21875 141.980469 494.140625 141.578125 495.070312 141.203125 C 496.003906 140.828125 496.945312 140.484375 497.902344 140.171875 C 498.855469 139.855469 499.820312 139.574219 500.792969 139.324219 C 501.765625 139.074219 502.746094 138.855469 503.734375 138.667969 C 504.722656 138.480469 505.714844 138.328125 506.710938 138.207031 C 507.707031 138.082031 508.707031 137.992188 509.710938 137.9375 C 510.714844 137.878906 511.71875 137.855469 512.722656 137.863281 C 513.726562 137.871094 514.730469 137.914062 515.734375 137.984375 C 516.734375 138.058594 517.734375 138.164062 518.730469 138.304688 C 519.726562 138.441406 520.714844 138.613281 521.699219 138.816406 C 522.683594 139.019531 523.660156 139.253906 524.628906 139.519531 C 525.597656 139.789062 526.554688 140.085938 527.503906 140.414062 C 528.453125 140.742188 529.390625 141.101562 530.320312 141.492188 C 531.246094 141.882812 532.15625 142.300781 533.054688 142.75 C 533.953125 143.199219 534.835938 143.679688 535.707031 144.183594 C 536.574219 144.691406 537.421875 145.226562 538.253906 145.789062 C 539.089844 146.351562 539.902344 146.941406 540.695312 147.554688 C 541.492188 148.167969 542.265625 148.808594 543.019531 149.476562 C 543.769531 150.140625 544.5 150.828125 545.210938 151.542969 C 545.917969 152.257812 546.601562 152.992188 547.261719 153.75 C 547.921875 154.507812 548.558594 155.285156 549.167969 156.082031 C 549.777344 156.882812 550.359375 157.699219 550.914062 158.535156 C 551.472656 159.375 552 160.226562 552.5 161.097656 C 553 161.96875 553.472656 162.855469 553.917969 163.757812 C 554.359375 164.660156 554.773438 165.574219 555.15625 166.503906 C 555.539062 167.433594 555.894531 168.371094 556.214844 169.324219 C 556.539062 170.277344 556.828125 171.238281 557.089844 172.207031 C 557.347656 173.179688 557.574219 174.15625 557.773438 175.140625 C 557.96875 176.128906 558.132812 177.117188 558.265625 178.113281 C 558.394531 179.109375 558.496094 180.109375 558.5625 181.113281 C 558.628906 182.117188 558.660156 183.121094 558.664062 184.125 Z M 558.664062 184.125 " fill-opacity="1" fill-rule="nonzero"/><path fill="#777777" d="M 547.425781 162.882812 L 547.425781 188.167969 C 547.425781 188.4375 547.398438 188.703125 547.347656 188.96875 C 547.292969 189.234375 547.214844 189.492188 547.113281 189.742188 C 547.007812 189.988281 546.882812 190.226562 546.734375 190.453125 C 546.582031 190.675781 546.414062 190.882812 546.222656 191.074219 C 546.03125 191.265625 545.824219 191.4375 545.597656 191.585938 C 545.375 191.734375 545.136719 191.863281 544.886719 191.964844 C 544.636719 192.070312 544.382812 192.148438 544.117188 192.199219 C 543.851562 192.253906 543.585938 192.277344 543.3125 192.277344 L 532.832031 192.277344 L 532.832031 225.71875 C 530.195312 227.03125 527.457031 228.058594 524.609375 228.800781 L 524.609375 192.277344 L 514.054688 192.277344 C 513.785156 192.277344 513.519531 192.253906 513.253906 192.199219 C 512.988281 192.148438 512.730469 192.070312 512.480469 191.964844 C 512.234375 191.863281 511.996094 191.734375 511.773438 191.585938 C 511.546875 191.4375 511.339844 191.265625 511.148438 191.074219 C 510.957031 190.882812 510.789062 190.675781 510.636719 190.453125 C 510.488281 190.226562 510.359375 189.988281 510.257812 189.742188 C 510.152344 189.492188 510.074219 189.234375 510.023438 188.96875 C 509.972656 188.703125 509.945312 188.4375 509.945312 188.167969 L 509.945312 162.882812 L 518.167969 162.882812 L 518.167969 184.054688 L 524.609375 184.054688 L 524.609375 162.882812 L 532.832031 162.882812 L 532.832031 184.054688 L 539.203125 184.054688 L 539.203125 162.882812 Z M 547.425781 162.882812 " fill-opacity="1" fill-rule="nonzero"/><path fill="#777777" d="M 504.941406 175.285156 C 504.941406 181.519531 501.378906 186.726562 496.445312 188.648438 L 496.445312 227.707031 C 493.566406 226.671875 490.824219 225.347656 488.222656 223.730469 L 488.222656 188.648438 C 483.222656 186.726562 479.65625 181.519531 479.65625 175.285156 C 479.65625 167.472656 485.34375 161.167969 492.335938 161.167969 C 499.324219 161.167969 504.941406 167.472656 504.941406 175.285156 Z M 504.941406 175.285156 " fill-opacity="1" fill-rule="nonzero"/><g clip-path="url(#43ff49202c)"><path fill="#e2ac7a" d="M 336.652344 438.484375 L 687.484375 438.484375 L 687.484375 460.726562 L 336.652344 460.726562 Z M 336.652344 438.484375 " fill-opacity="1" fill-rule="nonzero"/></g></svg>